{"glyphs":{"0":{"ha":944,"x_min":49,"x_max":868,"o":"m 369 -19 q 133 83 218 -19 q 49 360 49 185 q 112 668 49 522 q 289 903 175 814 q 547 992 403 992 q 783 892 697 992 q 868 624 868 793 q 805 313 868 461 q 628 72 742 164 q 369 -19 514 -19 m 392 114 q 567 188 493 114 q 678 377 640 261 q 715 617 715 493 q 665 798 715 736 q 524 860 614 860 q 348 787 421 860 q 238 600 275 714 q 201 364 201 486 q 251 178 201 242 q 392 114 300 114 z "},"1":{"ha":461,"x_min":76,"x_max":408,"o":"m 228 761 q 76 689 146 707 l 79 821 q 201 880 136 836 q 303 972 267 924 l 408 972 l 236 0 l 92 0 l 228 761 z "},"2":{"ha":693,"x_min":-42,"x_max":624,"o":"m 281 400 q 430 604 389 536 q 471 738 471 672 q 442 822 471 792 q 358 853 413 853 q 231 821 293 853 q 101 731 169 789 l 111 883 q 247 963 174 933 q 397 992 319 992 q 565 931 507 992 q 624 771 624 871 q 597 633 624 699 q 524 501 571 567 q 389 329 476 436 l 231 136 l 557 136 l 533 1 l -42 1 l 281 400 z "},"3":{"ha":718,"x_min":-42,"x_max":644,"o":"m 453 510 q 558 425 521 482 q 594 288 594 368 q 549 130 594 200 q 425 20 504 60 q 249 -19 346 -19 q -42 65 97 -19 l 18 197 q 135 133 78 156 q 256 111 193 111 q 388 158 338 111 q 439 285 439 204 q 394 396 439 357 q 258 435 349 435 l 193 435 l 217 569 l 281 569 q 431 616 374 569 q 488 742 488 663 q 454 831 488 800 q 358 861 421 861 q 142 785 267 861 l 143 926 q 400 992 263 992 q 578 931 513 992 q 644 771 644 869 q 592 613 644 682 q 453 510 540 543 z "},"4":{"ha":792,"x_min":-31,"x_max":717,"o":"m 717 365 l 696 242 l 585 242 l 542 0 l 401 0 l 444 242 l -31 242 l 610 972 l 714 972 l 606 365 l 717 365 m 465 365 l 525 699 l 235 365 l 465 365 z "},"5":{"ha":708,"x_min":-33,"x_max":675,"o":"m 322 832 l 254 608 q 322 613 288 613 q 531 538 456 613 q 607 335 607 463 q 558 151 607 232 q 426 25 510 69 q 238 -19 342 -19 q -33 61 85 -19 l 35 185 q 136 132 88 150 q 244 114 185 114 q 398 170 340 114 q 456 317 456 226 q 406 444 456 399 q 264 489 356 489 q 85 472 188 489 l 231 972 l 675 972 l 642 832 l 322 832 z "},"6":{"ha":775,"x_min":32,"x_max":686,"o":"m 438 583 q 618 514 550 583 q 686 332 686 444 q 639 154 686 235 q 508 27 592 74 q 319 -19 424 -19 q 110 58 189 -19 q 32 267 32 136 q 110 553 32 411 q 317 809 189 694 q 593 992 446 924 l 676 889 q 417 732 540 829 q 229 517 294 635 q 438 583 315 583 m 331 106 q 437 135 389 106 q 512 213 485 164 q 539 317 539 261 q 501 419 539 379 q 397 458 463 458 q 288 429 338 458 q 210 351 239 400 q 182 246 182 303 q 224 144 183 183 q 331 106 264 106 z "},"7":{"ha":689,"x_min":26,"x_max":744,"o":"m 744 972 l 181 0 l 26 0 l 506 833 l 111 833 l 136 972 l 744 972 z "},"8":{"ha":815,"x_min":32,"x_max":724,"o":"m 593 531 q 669 449 643 499 q 696 333 696 399 q 646 151 696 232 q 510 26 596 71 q 321 -19 424 -19 q 111 47 190 -19 q 32 225 32 114 q 85 406 32 324 q 228 532 139 488 q 157 686 160 590 q 201 842 157 772 q 320 951 244 911 q 486 992 396 992 q 665 931 606 992 q 724 776 724 871 q 689 635 724 699 q 593 531 654 571 m 467 865 q 345 819 393 865 q 297 704 297 772 q 331 622 299 653 q 419 590 363 590 q 538 638 492 590 q 583 754 583 685 q 554 836 583 807 q 467 865 525 865 m 333 111 q 490 169 429 111 q 550 317 550 226 q 509 422 549 383 q 396 461 469 461 q 284 433 333 461 q 207 354 235 404 q 179 244 179 304 q 221 147 181 183 q 333 111 261 111 z "},"9":{"ha":788,"x_min":76,"x_max":731,"o":"m 443 992 q 652 914 574 992 q 731 706 731 836 q 652 419 731 561 q 445 163 574 278 q 169 -19 317 49 l 86 83 q 345 240 222 143 q 533 456 468 338 q 325 389 447 389 q 144 458 213 389 q 76 640 76 528 q 124 818 76 738 q 255 945 171 899 q 443 992 339 992 m 365 514 q 474 543 425 514 q 552 621 524 572 q 581 726 581 669 q 539 828 579 789 q 432 867 499 867 q 326 838 374 867 q 251 760 278 808 q 224 656 224 711 q 262 553 224 593 q 365 514 300 514 z "},"\r":{"ha":288,"x_min":0,"x_max":0,"o":""}," ":{"ha":288,"x_min":0,"x_max":0,"o":""},"A":{"ha":807,"x_min":-54,"x_max":729,"o":"m 436 972 l 581 972 l 729 0 l 575 0 l 539 253 l 224 253 l 100 0 l -54 0 l 436 972 m 514 390 l 469 756 l 297 390 l 514 390 z "},"Á":{"ha":807,"x_min":-54,"x_max":729,"o":"m 436 972 l 581 972 l 729 0 l 575 0 l 539 253 l 224 253 l 100 0 l -54 0 l 436 972 m 514 390 l 469 756 l 297 390 l 514 390 m 426 1185 l 689 1332 l 665 1171 l 407 1083 l 426 1185 z "},"Ă":{"ha":807,"x_min":-54,"x_max":771,"o":"m 436 972 l 581 972 l 729 0 l 575 0 l 539 253 l 224 253 l 100 0 l -54 0 l 436 972 m 514 390 l 469 756 l 297 390 l 514 390 m 538 1093 q 407 1133 453 1093 q 361 1238 361 1174 q 365 1275 361 1257 l 475 1275 q 471 1251 471 1265 q 492 1205 471 1221 q 547 1189 513 1189 q 617 1211 588 1189 q 653 1275 646 1233 l 771 1275 q 695 1143 756 1193 q 538 1093 635 1093 z "},"Ắ":{"ha":807,"x_min":-54,"x_max":769,"o":"m 436 972 l 581 972 l 729 0 l 575 0 l 539 253 l 224 253 l 100 0 l -54 0 l 436 972 m 514 390 l 469 756 l 297 390 l 514 390 m 533 1063 q 399 1102 446 1063 q 353 1203 353 1142 q 356 1235 353 1213 l 469 1235 q 468 1215 468 1229 q 490 1167 468 1183 q 547 1151 511 1151 q 617 1173 588 1151 q 654 1235 647 1194 l 769 1235 q 694 1110 756 1157 q 533 1063 633 1063 m 489 1388 l 738 1519 l 715 1374 l 476 1293 l 489 1388 z "},"Ặ":{"ha":807,"x_min":-54,"x_max":760,"o":"m 436 972 l 581 972 l 729 0 l 575 0 l 539 253 l 224 253 l 100 0 l -54 0 l 436 972 m 514 390 l 469 756 l 297 390 l 514 390 m 524 1063 q 390 1102 436 1063 q 343 1203 343 1142 q 346 1235 343 1213 l 460 1235 q 458 1215 458 1229 q 480 1167 458 1183 q 538 1151 501 1151 q 608 1173 578 1151 q 644 1235 638 1194 l 760 1235 q 685 1110 746 1157 q 524 1063 624 1063 m 254 -112 l 386 -112 l 361 -240 l 229 -240 l 254 -112 z "},"Ằ":{"ha":807,"x_min":-54,"x_max":763,"o":"m 436 972 l 581 972 l 729 0 l 575 0 l 539 253 l 224 253 l 100 0 l -54 0 l 436 972 m 514 390 l 469 756 l 297 390 l 514 390 m 526 1061 q 392 1101 439 1061 q 346 1201 346 1140 q 349 1233 346 1211 l 463 1233 q 461 1214 461 1228 q 483 1166 461 1182 q 540 1150 504 1150 q 610 1172 581 1150 q 647 1233 640 1193 l 763 1233 q 688 1108 749 1156 q 526 1061 626 1061 m 469 1372 l 494 1510 l 721 1378 l 704 1292 l 469 1372 z "},"Ẳ":{"ha":807,"x_min":-54,"x_max":779,"o":"m 436 972 l 581 972 l 729 0 l 575 0 l 539 253 l 224 253 l 100 0 l -54 0 l 436 972 m 514 390 l 469 756 l 297 390 l 514 390 m 543 1067 q 409 1106 456 1067 q 363 1207 363 1146 q 365 1239 363 1217 l 479 1239 q 478 1219 478 1233 q 499 1172 478 1188 q 557 1156 521 1156 q 627 1177 597 1156 q 664 1239 657 1199 l 779 1239 q 704 1114 765 1161 q 543 1067 643 1067 m 579 1318 q 638 1375 638 1335 q 625 1403 638 1393 q 589 1413 613 1413 q 504 1388 557 1413 l 493 1464 q 607 1488 550 1488 q 691 1463 658 1488 q 724 1394 724 1438 q 687 1308 724 1342 q 583 1260 650 1275 l 579 1318 z "},"Ẵ":{"ha":807,"x_min":-54,"x_max":832,"o":"m 436 972 l 581 972 l 729 0 l 575 0 l 539 253 l 224 253 l 100 0 l -54 0 l 436 972 m 514 390 l 469 756 l 297 390 l 514 390 m 540 1063 q 406 1102 453 1063 q 360 1203 360 1142 q 363 1235 360 1213 l 476 1235 q 475 1215 475 1229 q 497 1167 475 1183 q 554 1151 518 1151 q 624 1173 594 1151 q 661 1235 654 1194 l 776 1235 q 701 1110 763 1157 q 540 1063 640 1063 m 699 1301 q 656 1308 678 1301 q 599 1331 635 1315 q 519 1354 543 1354 q 488 1343 501 1354 q 472 1308 475 1332 l 376 1308 q 423 1413 389 1376 q 508 1450 457 1450 q 549 1443 529 1450 q 607 1421 569 1436 q 650 1403 628 1411 q 689 1396 672 1396 q 721 1408 708 1396 q 736 1443 733 1421 l 832 1443 q 786 1338 821 1374 q 699 1301 751 1301 z "},"Â":{"ha":807,"x_min":-54,"x_max":729,"o":"m 436 972 l 581 972 l 729 0 l 575 0 l 539 253 l 224 253 l 100 0 l -54 0 l 436 972 m 514 390 l 469 756 l 297 390 l 514 390 m 393 1178 l 572 1313 l 721 1160 l 703 1067 l 546 1179 l 371 1081 l 393 1178 z "},"Ấ":{"ha":807,"x_min":-54,"x_max":893,"o":"m 436 972 l 581 972 l 729 0 l 575 0 l 539 253 l 224 253 l 100 0 l -54 0 l 436 972 m 514 390 l 469 756 l 297 390 l 514 390 m 750 1410 l 893 1410 l 736 1253 l 640 1253 l 750 1410 m 714 1138 l 699 1047 l 536 1142 l 372 1064 l 388 1154 l 557 1264 l 714 1138 z "},"Ậ":{"ha":807,"x_min":-54,"x_max":729,"o":"m 436 972 l 581 972 l 729 0 l 575 0 l 539 253 l 224 253 l 100 0 l -54 0 l 436 972 m 514 390 l 469 756 l 297 390 l 514 390 m 713 1133 l 697 1043 l 535 1138 l 371 1060 l 386 1150 l 556 1260 l 713 1133 m 254 -112 l 386 -112 l 361 -240 l 229 -240 l 254 -112 z "},"Ầ":{"ha":807,"x_min":-54,"x_max":736,"o":"m 436 972 l 581 972 l 729 0 l 575 0 l 539 253 l 224 253 l 100 0 l -54 0 l 436 972 m 514 390 l 469 756 l 297 390 l 514 390 m 642 1253 l 553 1419 l 690 1419 l 736 1253 l 642 1253 m 714 1138 l 699 1047 l 536 1142 l 372 1064 l 388 1154 l 557 1264 l 714 1138 z "},"Ẩ":{"ha":807,"x_min":-54,"x_max":806,"o":"m 436 972 l 581 972 l 729 0 l 575 0 l 539 253 l 224 253 l 100 0 l -54 0 l 436 972 m 514 390 l 469 756 l 297 390 l 514 390 m 713 1133 l 697 1043 l 535 1138 l 371 1060 l 386 1150 l 556 1260 l 713 1133 m 661 1269 q 719 1326 719 1286 q 707 1354 719 1344 q 671 1364 694 1364 q 586 1339 639 1364 l 575 1415 q 689 1439 632 1439 q 773 1414 740 1439 q 806 1346 806 1389 q 769 1260 806 1293 q 665 1211 732 1226 l 661 1269 z "},"Ẫ":{"ha":807,"x_min":-54,"x_max":808,"o":"m 436 972 l 581 972 l 729 0 l 575 0 l 539 253 l 224 253 l 100 0 l -54 0 l 436 972 m 514 390 l 469 756 l 297 390 l 514 390 m 713 1133 l 697 1043 l 535 1138 l 371 1060 l 386 1150 l 556 1260 l 713 1133 m 675 1300 q 633 1307 654 1300 q 575 1329 611 1314 q 496 1353 519 1353 q 465 1342 478 1353 q 449 1307 451 1331 l 353 1307 q 399 1412 365 1375 q 485 1449 433 1449 q 526 1442 506 1449 q 583 1419 546 1435 q 626 1402 604 1410 q 665 1394 649 1394 q 697 1407 685 1394 q 713 1442 710 1419 l 808 1442 q 763 1336 797 1372 q 675 1300 728 1300 z "},"Ȁ":{"ha":807,"x_min":-54,"x_max":729,"o":"m 436 972 l 581 972 l 729 0 l 575 0 l 539 253 l 224 253 l 100 0 l -54 0 l 436 972 m 514 390 l 469 756 l 297 390 l 514 390 m 382 1094 l 285 1304 l 426 1304 l 476 1094 l 382 1094 m 576 1094 l 488 1304 l 629 1304 l 672 1094 l 576 1094 z "},"Ä":{"ha":807,"x_min":-54,"x_max":747,"o":"m 436 972 l 581 972 l 729 0 l 575 0 l 539 253 l 224 253 l 100 0 l -54 0 l 436 972 m 514 390 l 469 756 l 297 390 l 514 390 m 363 1224 l 483 1224 l 460 1108 l 339 1108 l 363 1224 m 626 1224 l 747 1224 l 724 1108 l 603 1108 l 626 1224 z "},"Ạ":{"ha":807,"x_min":-54,"x_max":729,"o":"m 436 972 l 581 972 l 729 0 l 575 0 l 539 253 l 224 253 l 100 0 l -54 0 l 436 972 m 514 390 l 469 756 l 297 390 l 514 390 m 254 -112 l 386 -112 l 361 -240 l 229 -240 l 254 -112 z "},"À":{"ha":807,"x_min":-54,"x_max":729,"o":"m 436 972 l 581 972 l 729 0 l 575 0 l 539 253 l 224 253 l 100 0 l -54 0 l 436 972 m 514 390 l 469 756 l 297 390 l 514 390 m 415 1183 l 440 1328 l 667 1178 l 650 1085 l 415 1183 z "},"Ả":{"ha":807,"x_min":-54,"x_max":729,"o":"m 436 972 l 581 972 l 729 0 l 575 0 l 539 253 l 224 253 l 100 0 l -54 0 l 436 972 m 514 390 l 469 756 l 297 390 l 514 390 m 496 1068 q 558 1123 539 1101 q 576 1171 576 1144 q 564 1199 576 1189 q 529 1208 551 1208 q 439 1183 494 1208 l 429 1257 q 544 1283 485 1283 q 629 1258 597 1283 q 661 1189 661 1233 q 629 1099 661 1138 q 536 1021 597 1060 l 496 1068 z "},"Ȃ":{"ha":807,"x_min":-54,"x_max":733,"o":"m 436 972 l 581 972 l 729 0 l 575 0 l 539 253 l 224 253 l 100 0 l -54 0 l 436 972 m 514 390 l 469 756 l 297 390 l 514 390 m 557 1256 q 688 1215 643 1256 q 733 1114 733 1175 q 731 1083 733 1103 l 617 1083 q 618 1101 618 1090 q 597 1150 618 1133 q 542 1167 576 1167 q 472 1144 501 1167 q 436 1083 443 1122 l 322 1083 q 399 1206 336 1156 q 557 1256 461 1256 z "},"Ā":{"ha":807,"x_min":-54,"x_max":765,"o":"m 436 972 l 581 972 l 729 0 l 575 0 l 539 253 l 224 253 l 100 0 l -54 0 l 436 972 m 514 390 l 469 756 l 297 390 l 514 390 m 325 1200 l 765 1200 l 749 1101 l 307 1101 l 325 1200 z "},"Ą":{"ha":807,"x_min":-54,"x_max":738,"o":"m 436 972 l 581 972 l 729 0 l 575 0 l 539 253 l 224 253 l 100 0 l -54 0 l 436 972 m 514 390 l 469 756 l 297 390 l 514 390 m 729 0 q 631 -81 667 -43 q 594 -162 594 -119 q 608 -202 594 -189 q 646 -215 621 -215 q 728 -193 683 -215 l 738 -264 q 622 -290 685 -290 q 539 -265 571 -290 q 506 -194 507 -240 q 549 -86 506 -139 q 651 0 592 -33 l 729 0 z "},"Å":{"ha":807,"x_min":-54,"x_max":729,"o":"m 436 972 l 581 972 l 729 0 l 575 0 l 539 253 l 224 253 l 100 0 l -54 0 l 436 972 m 514 390 l 469 756 l 297 390 l 514 390 m 525 1078 q 437 1108 468 1078 q 406 1186 406 1139 q 456 1303 406 1254 q 576 1353 507 1353 q 665 1322 633 1353 q 696 1243 696 1292 q 647 1126 696 1174 q 525 1078 597 1078 m 536 1142 q 595 1167 571 1142 q 619 1229 619 1193 q 604 1272 619 1256 q 565 1288 589 1288 q 507 1261 532 1288 q 482 1199 482 1235 q 497 1158 482 1174 q 536 1142 513 1142 z "},"Ǻ":{"ha":807,"x_min":-54,"x_max":729,"o":"m 436 972 l 581 972 l 729 0 l 575 0 l 539 253 l 224 253 l 100 0 l -54 0 l 436 972 m 514 390 l 469 756 l 297 390 l 514 390 m 524 1050 q 434 1081 465 1050 q 403 1161 403 1113 q 451 1274 403 1226 q 564 1321 499 1321 q 653 1290 622 1321 q 685 1210 685 1258 q 638 1097 685 1143 q 524 1050 592 1050 m 531 1114 q 587 1140 564 1114 q 610 1199 610 1165 q 595 1240 610 1225 q 557 1256 581 1256 q 501 1231 525 1256 q 478 1172 478 1206 q 492 1130 478 1146 q 531 1114 507 1114 m 476 1458 l 725 1590 l 703 1444 l 464 1364 l 476 1458 z "},"Ã":{"ha":807,"x_min":-54,"x_max":783,"o":"m 436 972 l 581 972 l 729 0 l 575 0 l 539 253 l 224 253 l 100 0 l -54 0 l 436 972 m 514 390 l 469 756 l 297 390 l 514 390 m 643 1092 q 601 1100 622 1092 q 546 1124 579 1108 q 464 1153 490 1153 q 408 1103 419 1153 l 306 1103 q 358 1222 321 1181 q 451 1263 396 1263 q 495 1254 474 1263 q 546 1231 517 1246 q 590 1209 572 1217 q 626 1201 608 1201 q 679 1256 669 1201 l 783 1256 q 732 1131 767 1171 q 643 1092 697 1092 z "},"Æ":{"ha":1119,"x_min":-74,"x_max":1160,"o":"m 533 972 l 1160 972 l 1135 835 l 749 835 l 703 576 l 1001 576 l 976 439 l 679 439 l 625 138 l 1024 138 l 1000 0 l 443 0 l 486 244 l 229 244 l 76 0 l -74 0 l 533 972 m 511 388 l 589 831 l 321 388 l 511 388 z "},"Ǽ":{"ha":1119,"x_min":-74,"x_max":1160,"o":"m 533 972 l 1160 972 l 1135 835 l 749 835 l 703 576 l 1001 576 l 976 439 l 679 439 l 625 138 l 1024 138 l 1000 0 l 443 0 l 486 244 l 229 244 l 76 0 l -74 0 l 533 972 m 511 388 l 589 831 l 321 388 l 511 388 m 764 1153 l 1013 1285 l 990 1139 l 751 1058 l 764 1153 z "},"B":{"ha":808,"x_min":38,"x_max":739,"o":"m 208 972 l 451 972 q 665 924 590 972 q 739 760 739 875 q 703 617 739 678 q 603 521 667 556 q 739 321 739 472 q 633 83 739 167 q 354 0 526 0 l 38 0 l 208 972 m 421 572 q 542 615 496 572 q 588 731 588 657 q 556 816 588 789 q 464 843 525 843 l 333 843 l 286 572 l 421 572 m 353 131 q 517 177 453 131 q 581 311 581 224 q 542 412 581 378 q 429 446 504 446 l 264 446 l 208 131 l 353 131 z "},"C":{"ha":797,"x_min":63,"x_max":847,"o":"m 431 -19 q 235 30 318 -19 q 108 173 153 79 q 63 396 63 267 q 136 700 63 564 q 334 914 210 836 q 606 992 458 992 q 739 976 674 992 q 847 935 804 960 l 807 797 q 753 819 796 801 q 669 846 711 836 q 586 856 626 856 q 393 793 475 856 q 268 628 311 731 q 225 406 225 525 q 283 194 225 272 q 460 117 340 117 q 565 131 514 117 q 697 175 615 144 l 689 36 q 565 -4 635 11 q 431 -19 494 -19 z "},"Ć":{"ha":797,"x_min":63,"x_max":847,"o":"m 431 -19 q 235 30 318 -19 q 108 173 153 79 q 63 396 63 267 q 136 700 63 564 q 334 914 210 836 q 606 992 458 992 q 739 976 674 992 q 847 935 804 960 l 807 797 q 753 819 796 801 q 669 846 711 836 q 586 856 626 856 q 393 793 475 856 q 268 628 311 731 q 225 406 225 525 q 283 194 225 272 q 460 117 340 117 q 565 131 514 117 q 697 175 615 144 l 689 36 q 565 -4 635 11 q 431 -19 494 -19 m 539 1153 l 788 1285 l 765 1139 l 526 1058 l 539 1153 z "},"Č":{"ha":797,"x_min":63,"x_max":847,"o":"m 431 -19 q 235 30 318 -19 q 108 173 153 79 q 63 396 63 267 q 136 700 63 564 q 334 914 210 836 q 606 992 458 992 q 739 976 674 992 q 847 935 804 960 l 807 797 q 753 819 796 801 q 669 846 711 836 q 586 856 626 856 q 393 793 475 856 q 268 628 311 731 q 225 406 225 525 q 283 194 225 272 q 460 117 340 117 q 565 131 514 117 q 697 175 615 144 l 689 36 q 565 -4 635 11 q 431 -19 494 -19 m 475 1168 l 490 1260 l 651 1163 l 819 1254 l 804 1156 l 631 1043 l 475 1168 z "},"Ç":{"ha":797,"x_min":63,"x_max":847,"o":"m 586 856 q 393 793 475 856 q 268 628 311 731 q 225 406 225 525 q 283 194 225 272 q 460 117 340 117 q 565 131 514 117 q 697 175 615 144 l 689 36 q 586 2 643 17 q 474 -18 529 -12 l 444 -75 l 454 -75 q 532 -100 504 -75 q 560 -169 560 -125 q 510 -278 560 -236 q 383 -319 460 -319 q 278 -293 322 -319 l 314 -221 q 399 -244 353 -244 q 454 -228 433 -244 q 475 -186 475 -211 q 413 -140 475 -140 q 346 -151 379 -140 l 401 -18 q 153 101 244 -8 q 63 396 63 210 q 136 700 63 564 q 334 914 210 836 q 606 992 458 992 q 739 976 674 992 q 847 935 804 960 l 807 797 q 753 819 796 801 q 669 846 711 836 q 586 856 626 856 z "},"Ḉ":{"ha":797,"x_min":63,"x_max":847,"o":"m 765 1139 l 526 1058 l 539 1153 l 788 1285 l 765 1139 m 586 856 q 393 793 475 856 q 268 628 311 731 q 225 406 225 525 q 283 194 225 272 q 460 117 340 117 q 565 131 514 117 q 697 175 615 144 l 689 36 q 586 2 643 17 q 474 -18 529 -12 l 444 -75 l 454 -75 q 532 -100 504 -75 q 560 -169 560 -125 q 510 -278 560 -236 q 383 -319 460 -319 q 278 -293 322 -319 l 314 -221 q 399 -244 353 -244 q 454 -228 433 -244 q 475 -186 475 -211 q 413 -140 475 -140 q 346 -151 379 -140 l 401 -18 q 153 101 244 -8 q 63 396 63 210 q 136 700 63 564 q 334 914 210 836 q 606 992 458 992 q 739 976 674 992 q 847 935 804 960 l 807 797 q 753 819 796 801 q 669 846 711 836 q 586 856 626 856 z "},"Ĉ":{"ha":797,"x_min":63,"x_max":847,"o":"m 431 -19 q 235 30 318 -19 q 108 173 153 79 q 63 396 63 267 q 136 700 63 564 q 334 914 210 836 q 606 992 458 992 q 739 976 674 992 q 847 935 804 960 l 807 797 q 753 819 796 801 q 669 846 711 836 q 586 856 626 856 q 393 793 475 856 q 268 628 311 731 q 225 406 225 525 q 283 194 225 272 q 460 117 340 117 q 565 131 514 117 q 697 175 615 144 l 689 36 q 565 -4 635 11 q 431 -19 494 -19 m 829 1133 l 814 1043 l 651 1138 l 488 1060 l 503 1150 l 672 1260 l 829 1133 z "},"Ċ":{"ha":797,"x_min":63,"x_max":847,"o":"m 431 -19 q 235 30 318 -19 q 108 173 153 79 q 63 396 63 267 q 136 700 63 564 q 334 914 210 836 q 606 992 458 992 q 739 976 674 992 q 847 935 804 960 l 807 797 q 753 819 796 801 q 669 846 711 836 q 586 856 626 856 q 393 793 475 856 q 268 628 311 731 q 225 406 225 525 q 283 194 225 272 q 460 117 340 117 q 565 131 514 117 q 697 175 615 144 l 689 36 q 565 -4 635 11 q 431 -19 494 -19 m 600 1228 l 735 1228 l 711 1100 l 576 1100 l 600 1228 z "},"D":{"ha":947,"x_min":38,"x_max":910,"o":"m 208 972 l 542 972 q 811 867 713 972 q 910 569 910 763 q 838 274 910 404 q 642 72 765 144 q 371 0 519 0 l 38 0 l 208 972 m 396 136 q 585 193 506 136 q 706 347 664 250 q 747 560 747 444 q 690 765 747 693 q 518 836 632 836 l 332 836 l 210 136 l 396 136 z "},"Ǆ":{"ha":1639,"x_min":38,"x_max":1724,"o":"m 208 972 l 542 972 q 811 867 713 972 q 910 569 910 763 q 838 274 910 404 q 642 72 765 144 q 371 0 519 0 l 38 0 l 208 972 m 396 136 q 585 193 506 136 q 706 347 664 250 q 747 560 747 444 q 690 765 747 693 q 518 836 632 836 l 332 836 l 210 136 l 396 136 m 1457 835 l 1076 835 l 1101 972 l 1724 972 l 1138 138 l 1519 138 l 1494 0 l 872 0 l 1457 835 m 1281 1217 l 1300 1310 l 1456 1197 l 1647 1310 l 1629 1200 l 1429 1063 l 1281 1217 z "},"Ð":{"ha":956,"x_min":31,"x_max":918,"o":"m 553 972 q 745 926 663 972 q 873 791 828 879 q 918 582 918 703 q 847 276 918 408 q 652 72 775 144 q 381 0 529 0 l 50 0 l 126 435 l 31 435 l 51 554 l 147 554 l 221 972 l 553 972 m 406 138 q 596 194 517 138 q 716 349 675 250 q 757 571 757 447 q 699 765 757 694 q 528 836 642 836 l 342 836 l 292 554 l 474 554 l 453 435 l 271 435 l 218 138 l 406 138 z "},"Ď":{"ha":947,"x_min":38,"x_max":910,"o":"m 208 972 l 542 972 q 811 867 713 972 q 910 569 910 763 q 838 274 910 404 q 642 72 765 144 q 371 0 519 0 l 38 0 l 208 972 m 396 136 q 585 193 506 136 q 706 347 664 250 q 747 560 747 444 q 690 765 747 693 q 518 836 632 836 l 332 836 l 210 136 l 396 136 m 433 1168 l 449 1260 l 610 1163 l 778 1254 l 763 1156 l 589 1043 l 433 1168 z "},"Đ":{"ha":956,"x_min":31,"x_max":918,"o":"m 553 972 q 745 926 663 972 q 873 791 828 879 q 918 582 918 703 q 847 276 918 408 q 652 72 775 144 q 381 0 529 0 l 50 0 l 126 435 l 31 435 l 51 554 l 147 554 l 221 972 l 553 972 m 406 138 q 596 194 517 138 q 716 349 675 250 q 757 571 757 447 q 699 765 757 694 q 528 836 642 836 l 342 836 l 292 554 l 474 554 l 453 435 l 271 435 l 218 138 l 406 138 z "},"Ḍ":{"ha":947,"x_min":38,"x_max":910,"o":"m 208 972 l 542 972 q 811 867 713 972 q 910 569 910 763 q 838 274 910 404 q 642 72 765 144 q 371 0 519 0 l 38 0 l 208 972 m 396 136 q 585 193 506 136 q 706 347 664 250 q 747 560 747 444 q 690 765 747 693 q 518 836 632 836 l 332 836 l 210 136 l 396 136 m 390 -112 l 522 -112 l 497 -240 l 365 -240 l 390 -112 z "},"Ḏ":{"ha":947,"x_min":38,"x_max":910,"o":"m 208 972 l 542 972 q 811 867 713 972 q 910 569 910 763 q 838 274 910 404 q 642 72 765 144 q 371 0 519 0 l 38 0 l 208 972 m 396 136 q 585 193 506 136 q 706 347 664 250 q 747 560 747 444 q 690 765 747 693 q 518 836 632 836 l 332 836 l 210 136 l 396 136 m 236 -126 l 674 -126 l 653 -229 l 217 -229 l 236 -126 z "},"ǅ":{"ha":1549,"x_min":38,"x_max":1565,"o":"m 208 972 l 542 972 q 811 867 713 972 q 910 569 910 763 q 838 274 910 404 q 642 72 765 144 q 371 0 519 0 l 38 0 l 208 972 m 396 136 q 585 193 506 136 q 706 347 664 250 q 747 560 747 444 q 690 765 747 693 q 518 836 632 836 l 332 836 l 210 136 l 396 136 m 1314 569 l 1011 569 l 1031 685 l 1565 685 l 1150 115 l 1454 115 l 1433 0 l 897 0 l 1314 569 m 1167 929 l 1186 1022 l 1342 910 l 1533 1022 l 1515 913 l 1315 775 l 1167 929 z "},"E":{"ha":733,"x_min":38,"x_max":772,"o":"m 208 972 l 772 972 l 747 835 l 335 835 l 289 576 l 613 576 l 588 439 l 265 439 l 211 138 l 636 138 l 613 0 l 38 0 l 208 972 z "},"É":{"ha":733,"x_min":38,"x_max":772,"o":"m 208 972 l 772 972 l 747 835 l 335 835 l 289 576 l 613 576 l 588 439 l 265 439 l 211 138 l 636 138 l 613 0 l 38 0 l 208 972 m 410 1185 l 672 1332 l 649 1171 l 390 1083 l 410 1185 z "},"Ĕ":{"ha":733,"x_min":38,"x_max":772,"o":"m 208 972 l 772 972 l 747 835 l 335 835 l 289 576 l 613 576 l 588 439 l 265 439 l 211 138 l 636 138 l 613 0 l 38 0 l 208 972 m 507 1063 q 373 1102 419 1063 q 326 1203 326 1142 q 329 1235 326 1213 l 443 1235 q 442 1215 442 1229 q 463 1167 442 1183 q 521 1151 485 1151 q 591 1173 561 1151 q 628 1235 621 1194 l 743 1235 q 668 1110 729 1157 q 507 1063 607 1063 z "},"Ě":{"ha":733,"x_min":38,"x_max":772,"o":"m 208 972 l 772 972 l 747 835 l 335 835 l 289 576 l 613 576 l 588 439 l 265 439 l 211 138 l 636 138 l 613 0 l 38 0 l 208 972 m 342 1168 l 357 1260 l 518 1163 l 686 1254 l 671 1156 l 497 1043 l 342 1168 z "},"Ḝ":{"ha":733,"x_min":38,"x_max":772,"o":"m 208 972 l 772 972 l 747 835 l 335 835 l 289 576 l 613 576 l 588 439 l 265 439 l 211 138 l 636 138 l 613 0 l 38 0 l 208 972 m 353 -75 q 431 -100 403 -75 q 458 -169 458 -125 q 408 -278 458 -236 q 282 -319 358 -319 q 176 -293 221 -319 l 213 -221 q 297 -244 251 -244 q 353 -228 332 -244 q 374 -186 374 -211 q 311 -140 374 -140 q 244 -151 278 -140 l 308 0 l 381 0 l 343 -75 l 353 -75 m 507 1063 q 373 1102 419 1063 q 326 1203 326 1142 q 329 1235 326 1213 l 443 1235 q 442 1215 442 1229 q 463 1167 442 1183 q 521 1151 485 1151 q 591 1173 561 1151 q 628 1235 621 1194 l 743 1235 q 668 1110 729 1157 q 507 1063 607 1063 z "},"Ê":{"ha":733,"x_min":38,"x_max":772,"o":"m 208 972 l 772 972 l 747 835 l 335 835 l 289 576 l 613 576 l 588 439 l 265 439 l 211 138 l 636 138 l 613 0 l 38 0 l 208 972 m 376 1178 l 556 1313 l 704 1160 l 686 1067 l 529 1179 l 354 1081 l 376 1178 z "},"Ế":{"ha":733,"x_min":38,"x_max":876,"o":"m 208 972 l 772 972 l 747 835 l 335 835 l 289 576 l 613 576 l 588 439 l 265 439 l 211 138 l 636 138 l 613 0 l 38 0 l 208 972 m 733 1410 l 876 1410 l 719 1253 l 624 1253 l 733 1410 m 697 1138 l 682 1047 l 519 1142 l 356 1064 l 371 1154 l 540 1264 l 697 1138 z "},"Ệ":{"ha":733,"x_min":38,"x_max":772,"o":"m 208 972 l 772 972 l 747 835 l 335 835 l 289 576 l 613 576 l 588 439 l 265 439 l 211 138 l 636 138 l 613 0 l 38 0 l 208 972 m 696 1133 l 681 1043 l 518 1138 l 354 1060 l 369 1150 l 539 1260 l 696 1133 m 257 -112 l 389 -112 l 364 -240 l 232 -240 l 257 -112 z "},"Ề":{"ha":733,"x_min":38,"x_max":772,"o":"m 208 972 l 772 972 l 747 835 l 335 835 l 289 576 l 613 576 l 588 439 l 265 439 l 211 138 l 636 138 l 613 0 l 38 0 l 208 972 m 625 1253 l 536 1419 l 674 1419 l 719 1253 l 625 1253 m 697 1138 l 682 1047 l 519 1142 l 356 1064 l 371 1154 l 540 1264 l 697 1138 z "},"Ể":{"ha":733,"x_min":38,"x_max":789,"o":"m 208 972 l 772 972 l 747 835 l 335 835 l 289 576 l 613 576 l 588 439 l 265 439 l 211 138 l 636 138 l 613 0 l 38 0 l 208 972 m 696 1133 l 681 1043 l 518 1138 l 354 1060 l 369 1150 l 539 1260 l 696 1133 m 644 1269 q 703 1326 703 1286 q 690 1354 703 1344 q 654 1364 678 1364 q 569 1339 622 1364 l 558 1415 q 672 1439 615 1439 q 756 1414 724 1439 q 789 1346 789 1389 q 752 1260 789 1293 q 649 1211 715 1226 l 644 1269 z "},"Ễ":{"ha":733,"x_min":38,"x_max":792,"o":"m 208 972 l 772 972 l 747 835 l 335 835 l 289 576 l 613 576 l 588 439 l 265 439 l 211 138 l 636 138 l 613 0 l 38 0 l 208 972 m 696 1133 l 681 1043 l 518 1138 l 354 1060 l 369 1150 l 539 1260 l 696 1133 m 658 1300 q 616 1307 638 1300 q 558 1329 594 1314 q 479 1353 503 1353 q 448 1342 461 1353 q 432 1307 435 1331 l 336 1307 q 383 1412 349 1375 q 468 1449 417 1449 q 509 1442 489 1449 q 567 1419 529 1435 q 610 1402 588 1410 q 649 1394 632 1394 q 681 1407 668 1394 q 696 1442 693 1419 l 792 1442 q 746 1336 781 1372 q 658 1300 711 1300 z "},"Ȅ":{"ha":733,"x_min":38,"x_max":772,"o":"m 208 972 l 772 972 l 747 835 l 335 835 l 289 576 l 613 576 l 588 439 l 265 439 l 211 138 l 636 138 l 613 0 l 38 0 l 208 972 m 365 1094 l 268 1304 l 410 1304 l 460 1094 l 365 1094 m 560 1094 l 471 1304 l 613 1304 l 656 1094 l 560 1094 z "},"Ë":{"ha":733,"x_min":38,"x_max":772,"o":"m 208 972 l 772 972 l 747 835 l 335 835 l 289 576 l 613 576 l 588 439 l 265 439 l 211 138 l 636 138 l 613 0 l 38 0 l 208 972 m 346 1224 l 467 1224 l 443 1108 l 322 1108 l 346 1224 m 610 1224 l 731 1224 l 707 1108 l 586 1108 l 610 1224 z "},"Ė":{"ha":733,"x_min":38,"x_max":772,"o":"m 208 972 l 772 972 l 747 835 l 335 835 l 289 576 l 613 576 l 588 439 l 265 439 l 211 138 l 636 138 l 613 0 l 38 0 l 208 972 m 467 1228 l 601 1228 l 578 1100 l 443 1100 l 467 1228 z "},"Ẹ":{"ha":733,"x_min":38,"x_max":772,"o":"m 208 972 l 772 972 l 747 835 l 335 835 l 289 576 l 613 576 l 588 439 l 265 439 l 211 138 l 636 138 l 613 0 l 38 0 l 208 972 m 257 -112 l 389 -112 l 364 -240 l 232 -240 l 257 -112 z "},"È":{"ha":733,"x_min":38,"x_max":772,"o":"m 208 972 l 772 972 l 747 835 l 335 835 l 289 576 l 613 576 l 588 439 l 265 439 l 211 138 l 636 138 l 613 0 l 38 0 l 208 972 m 399 1183 l 424 1328 l 650 1178 l 633 1085 l 399 1183 z "},"Ẻ":{"ha":733,"x_min":38,"x_max":772,"o":"m 208 972 l 772 972 l 747 835 l 335 835 l 289 576 l 613 576 l 588 439 l 265 439 l 211 138 l 636 138 l 613 0 l 38 0 l 208 972 m 479 1068 q 541 1123 522 1101 q 560 1171 560 1144 q 547 1199 560 1189 q 513 1208 535 1208 q 422 1183 478 1208 l 413 1257 q 528 1283 468 1283 q 613 1258 581 1283 q 644 1189 644 1233 q 613 1099 644 1138 q 519 1021 581 1060 l 479 1068 z "},"Ȇ":{"ha":733,"x_min":38,"x_max":772,"o":"m 208 972 l 772 972 l 747 835 l 335 835 l 289 576 l 613 576 l 588 439 l 265 439 l 211 138 l 636 138 l 613 0 l 38 0 l 208 972 m 540 1256 q 672 1215 626 1256 q 717 1114 717 1175 q 714 1083 717 1103 l 600 1083 q 601 1101 601 1090 q 581 1150 601 1133 q 525 1167 560 1167 q 456 1144 485 1167 q 419 1083 426 1122 l 306 1083 q 382 1206 319 1156 q 540 1256 444 1256 z "},"Ē":{"ha":733,"x_min":38,"x_max":772,"o":"m 208 972 l 772 972 l 747 835 l 335 835 l 289 576 l 613 576 l 588 439 l 265 439 l 211 138 l 636 138 l 613 0 l 38 0 l 208 972 m 308 1200 l 749 1200 l 732 1101 l 290 1101 l 308 1200 z "},"Ḗ":{"ha":733,"x_min":38,"x_max":772,"o":"m 208 972 l 772 972 l 747 835 l 335 835 l 289 576 l 613 576 l 588 439 l 265 439 l 211 138 l 636 138 l 613 0 l 38 0 l 208 972 m 308 1200 l 749 1200 l 732 1101 l 290 1101 l 308 1200 m 454 1372 l 703 1504 l 681 1358 l 442 1278 l 454 1372 z "},"Ḕ":{"ha":733,"x_min":38,"x_max":772,"o":"m 208 972 l 772 972 l 747 835 l 335 835 l 289 576 l 613 576 l 588 439 l 265 439 l 211 138 l 636 138 l 613 0 l 38 0 l 208 972 m 308 1200 l 749 1200 l 732 1101 l 290 1101 l 308 1200 m 442 1358 l 467 1496 l 693 1364 l 676 1278 l 442 1358 z "},"Ę":{"ha":733,"x_min":38,"x_max":772,"o":"m 208 972 l 772 972 l 747 835 l 335 835 l 289 576 l 613 576 l 588 439 l 265 439 l 211 138 l 636 138 l 613 0 l 38 0 l 208 972 m 614 0 q 515 -81 551 -43 q 479 -162 479 -119 q 492 -202 479 -189 q 531 -215 506 -215 q 613 -193 568 -215 l 622 -264 q 507 -290 569 -290 q 424 -265 456 -290 q 390 -194 392 -240 q 433 -86 390 -139 q 536 0 476 -33 l 614 0 z "},"Ẽ":{"ha":733,"x_min":38,"x_max":772,"o":"m 208 972 l 772 972 l 747 835 l 335 835 l 289 576 l 613 576 l 588 439 l 265 439 l 211 138 l 636 138 l 613 0 l 38 0 l 208 972 m 626 1092 q 584 1100 606 1092 q 529 1124 563 1108 q 447 1153 474 1153 q 392 1103 403 1153 l 289 1103 q 342 1222 304 1181 q 435 1263 379 1263 q 478 1254 457 1263 q 529 1231 500 1246 q 574 1209 556 1217 q 610 1201 592 1201 q 663 1256 653 1201 l 767 1256 q 715 1131 750 1171 q 626 1092 681 1092 z "},"F":{"ha":689,"x_min":38,"x_max":758,"o":"m 208 972 l 758 972 l 735 835 l 332 835 l 286 576 l 597 576 l 572 439 l 263 439 l 185 0 l 38 0 l 208 972 z "},"G":{"ha":874,"x_min":63,"x_max":867,"o":"m 432 -19 q 238 31 321 -19 q 108 174 154 81 q 63 397 63 268 q 135 700 63 564 q 333 914 208 836 q 607 992 458 992 q 749 976 675 992 q 867 936 822 960 l 828 803 q 710 840 775 825 q 590 856 646 856 q 391 792 474 856 q 267 627 308 729 q 225 410 225 525 q 288 194 225 272 q 472 117 350 117 q 610 140 546 117 l 649 358 l 533 358 l 556 488 l 818 488 l 742 54 q 597 2 685 24 q 432 -19 510 -19 z "},"Ğ":{"ha":874,"x_min":63,"x_max":867,"o":"m 432 -19 q 238 31 321 -19 q 108 174 154 81 q 63 397 63 268 q 135 700 63 564 q 333 914 208 836 q 607 992 458 992 q 749 976 675 992 q 867 936 822 960 l 828 803 q 710 840 775 825 q 590 856 646 856 q 391 792 474 856 q 267 627 308 729 q 225 410 225 525 q 288 194 225 272 q 472 117 350 117 q 610 140 546 117 l 649 358 l 533 358 l 556 488 l 818 488 l 742 54 q 597 2 685 24 q 432 -19 510 -19 m 619 1063 q 485 1102 532 1063 q 439 1203 439 1142 q 442 1235 439 1213 l 556 1235 q 554 1215 554 1229 q 576 1167 554 1183 q 633 1151 597 1151 q 703 1173 674 1151 q 740 1235 733 1194 l 856 1235 q 781 1110 842 1157 q 619 1063 719 1063 z "},"Ǧ":{"ha":874,"x_min":63,"x_max":867,"o":"m 432 -19 q 238 31 321 -19 q 108 174 154 81 q 63 397 63 268 q 135 700 63 564 q 333 914 208 836 q 607 992 458 992 q 749 976 675 992 q 867 936 822 960 l 828 803 q 710 840 775 825 q 590 856 646 856 q 391 792 474 856 q 267 627 308 729 q 225 410 225 525 q 288 194 225 272 q 472 117 350 117 q 610 140 546 117 l 649 358 l 533 358 l 556 488 l 818 488 l 742 54 q 597 2 685 24 q 432 -19 510 -19 m 454 1168 l 469 1260 l 631 1163 l 799 1254 l 783 1156 l 610 1043 l 454 1168 z "},"Ĝ":{"ha":874,"x_min":63,"x_max":867,"o":"m 432 -19 q 238 31 321 -19 q 108 174 154 81 q 63 397 63 268 q 135 700 63 564 q 333 914 208 836 q 607 992 458 992 q 749 976 675 992 q 867 936 822 960 l 828 803 q 710 840 775 825 q 590 856 646 856 q 391 792 474 856 q 267 627 308 729 q 225 410 225 525 q 288 194 225 272 q 472 117 350 117 q 610 140 546 117 l 649 358 l 533 358 l 556 488 l 818 488 l 742 54 q 597 2 685 24 q 432 -19 510 -19 m 808 1133 l 793 1043 l 631 1138 l 467 1060 l 482 1150 l 651 1260 l 808 1133 z "},"Ģ":{"ha":874,"x_min":63,"x_max":867,"o":"m 432 -19 q 238 31 321 -19 q 108 174 154 81 q 63 397 63 268 q 135 700 63 564 q 333 914 208 836 q 607 992 458 992 q 749 976 675 992 q 867 936 822 960 l 828 803 q 710 840 775 825 q 590 856 646 856 q 391 792 474 856 q 267 627 308 729 q 225 410 225 525 q 288 194 225 272 q 472 117 350 117 q 610 140 546 117 l 649 358 l 533 358 l 556 488 l 818 488 l 742 54 q 597 2 685 24 q 432 -19 510 -19 m 317 -371 l 381 -251 l 329 -251 l 351 -126 l 489 -126 l 467 -251 l 371 -371 l 317 -371 z "},"Ġ":{"ha":874,"x_min":63,"x_max":867,"o":"m 432 -19 q 238 31 321 -19 q 108 174 154 81 q 63 397 63 268 q 135 700 63 564 q 333 914 208 836 q 607 992 458 992 q 749 976 675 992 q 867 936 822 960 l 828 803 q 710 840 775 825 q 590 856 646 856 q 391 792 474 856 q 267 627 308 729 q 225 410 225 525 q 288 194 225 272 q 472 117 350 117 q 610 140 546 117 l 649 358 l 533 358 l 556 488 l 818 488 l 742 54 q 597 2 685 24 q 432 -19 510 -19 m 579 1228 l 714 1228 l 690 1100 l 556 1100 l 579 1228 z "},"Ḡ":{"ha":874,"x_min":63,"x_max":867,"o":"m 432 -19 q 238 31 321 -19 q 108 174 154 81 q 63 397 63 268 q 135 700 63 564 q 333 914 208 836 q 607 992 458 992 q 749 976 675 992 q 867 936 822 960 l 828 803 q 710 840 775 825 q 590 856 646 856 q 391 792 474 856 q 267 627 308 729 q 225 410 225 525 q 288 194 225 272 q 472 117 350 117 q 610 140 546 117 l 649 358 l 533 358 l 556 488 l 818 488 l 742 54 q 597 2 685 24 q 432 -19 510 -19 m 421 1200 l 861 1200 l 844 1101 l 403 1101 l 421 1200 z "},"H":{"ha":969,"x_min":38,"x_max":958,"o":"m 208 972 l 356 972 l 286 578 l 742 578 l 811 972 l 958 972 l 786 0 l 639 0 l 717 438 l 263 438 l 185 0 l 38 0 l 208 972 z "},"Ħ":{"ha":972,"x_min":38,"x_max":1007,"o":"m 990 690 l 908 690 l 786 0 l 639 0 l 717 438 l 263 438 l 185 0 l 38 0 l 158 690 l 78 690 l 94 789 l 176 789 l 208 972 l 356 972 l 324 789 l 779 789 l 811 972 l 958 972 l 926 789 l 1007 789 l 990 690 m 761 690 l 306 690 l 286 578 l 742 578 l 761 690 z "},"Ḫ":{"ha":969,"x_min":38,"x_max":958,"o":"m 208 972 l 356 972 l 286 578 l 742 578 l 811 972 l 958 972 l 786 0 l 639 0 l 717 438 l 263 438 l 185 0 l 38 0 l 208 972 m 364 -308 q 233 -268 279 -308 q 188 -164 188 -228 q 192 -126 188 -146 l 301 -126 q 297 -150 297 -137 q 318 -197 297 -181 q 374 -212 339 -212 q 443 -190 414 -212 q 479 -126 472 -168 l 597 -126 q 522 -258 582 -208 q 364 -308 461 -308 z "},"Ĥ":{"ha":969,"x_min":38,"x_max":958,"o":"m 208 972 l 356 972 l 286 578 l 742 578 l 811 972 l 958 972 l 786 0 l 639 0 l 717 438 l 263 438 l 185 0 l 38 0 l 208 972 m 790 1133 l 775 1043 l 613 1138 l 449 1060 l 464 1150 l 633 1260 l 790 1133 z "},"Ḥ":{"ha":969,"x_min":38,"x_max":958,"o":"m 208 972 l 356 972 l 286 578 l 742 578 l 811 972 l 958 972 l 786 0 l 639 0 l 717 438 l 263 438 l 185 0 l 38 0 l 208 972 m 329 -112 l 461 -112 l 436 -240 l 304 -240 l 329 -112 z "},"I":{"ha":367,"x_min":38,"x_max":356,"o":"m 208 972 l 356 972 l 185 0 l 38 0 l 208 972 z "},"Ĳ":{"ha":940,"x_min":89,"x_max":940,"o":"m 396 -19 q 169 57 246 -19 q 89 276 92 133 l 243 313 q 287 168 246 219 q 419 117 328 117 q 613 214 549 117 q 706 476 678 311 l 793 972 l 940 972 l 842 414 q 692 95 806 210 q 396 -19 579 -19 m 200 972 l 347 972 l 260 476 l 249 410 l 100 410 l 200 972 z "},"Í":{"ha":367,"x_min":38,"x_max":467,"o":"m 208 972 l 356 972 l 185 0 l 38 0 l 208 972 m 204 1185 l 467 1332 l 443 1171 l 185 1083 l 204 1185 z "},"Ĭ":{"ha":367,"x_min":38,"x_max":538,"o":"m 208 972 l 356 972 l 185 0 l 38 0 l 208 972 m 301 1063 q 167 1102 214 1063 q 121 1203 121 1142 q 124 1235 121 1213 l 238 1235 q 236 1215 236 1229 q 258 1167 236 1183 q 315 1151 279 1151 q 385 1173 356 1151 q 422 1235 415 1194 l 538 1235 q 463 1110 524 1157 q 301 1063 401 1063 z "},"Î":{"ha":367,"x_min":38,"x_max":499,"o":"m 208 972 l 356 972 l 185 0 l 38 0 l 208 972 m 171 1178 l 350 1313 l 499 1160 l 481 1067 l 324 1179 l 149 1081 l 171 1178 z "},"Ȉ":{"ha":367,"x_min":38,"x_max":450,"o":"m 208 972 l 356 972 l 185 0 l 38 0 l 208 972 m 160 1094 l 63 1304 l 204 1304 l 254 1094 l 160 1094 m 354 1094 l 265 1304 l 407 1304 l 450 1094 l 354 1094 z "},"Ï":{"ha":367,"x_min":38,"x_max":525,"o":"m 208 972 l 356 972 l 185 0 l 38 0 l 208 972 m 140 1224 l 261 1224 l 238 1108 l 117 1108 l 140 1224 m 404 1224 l 525 1224 l 501 1108 l 381 1108 l 404 1224 z "},"Ḯ":{"ha":367,"x_min":38,"x_max":517,"o":"m 208 972 l 356 972 l 185 0 l 38 0 l 208 972 m 135 1207 l 256 1207 l 235 1099 l 114 1099 l 135 1207 m 396 1207 l 517 1207 l 496 1099 l 375 1099 l 396 1207 m 239 1371 l 488 1503 l 465 1357 l 226 1276 l 239 1371 z "},"İ":{"ha":367,"x_min":38,"x_max":396,"o":"m 208 972 l 356 972 l 185 0 l 38 0 l 208 972 m 261 1228 l 396 1228 l 372 1100 l 238 1100 l 261 1228 z "},"Ị":{"ha":367,"x_min":4,"x_max":356,"o":"m 208 972 l 356 972 l 185 0 l 38 0 l 208 972 m 29 -112 l 161 -112 l 136 -240 l 4 -240 l 29 -112 z "},"Ì":{"ha":367,"x_min":38,"x_max":444,"o":"m 208 972 l 356 972 l 185 0 l 38 0 l 208 972 m 193 1183 l 218 1328 l 444 1178 l 428 1085 l 193 1183 z "},"Ỉ":{"ha":367,"x_min":38,"x_max":439,"o":"m 208 972 l 356 972 l 185 0 l 38 0 l 208 972 m 274 1068 q 335 1123 317 1101 q 354 1171 354 1144 q 342 1199 354 1189 q 307 1208 329 1208 q 217 1183 272 1208 l 207 1257 q 322 1283 263 1283 q 407 1258 375 1283 q 439 1189 439 1233 q 407 1099 439 1138 q 314 1021 375 1060 l 274 1068 z "},"Ȋ":{"ha":367,"x_min":38,"x_max":511,"o":"m 208 972 l 356 972 l 185 0 l 38 0 l 208 972 m 335 1256 q 466 1215 421 1256 q 511 1114 511 1175 q 508 1083 511 1103 l 394 1083 q 396 1101 396 1090 q 375 1150 396 1133 q 319 1167 354 1167 q 250 1144 279 1167 q 214 1083 221 1122 l 100 1083 q 176 1206 114 1156 q 335 1256 239 1256 z "},"Ī":{"ha":367,"x_min":38,"x_max":543,"o":"m 208 972 l 356 972 l 185 0 l 38 0 l 208 972 m 103 1200 l 543 1200 l 526 1101 l 85 1101 l 103 1200 z "},"Į":{"ha":367,"x_min":-37,"x_max":356,"o":"m 208 972 l 356 972 l 185 0 l 38 0 l 208 972 m 186 0 q 88 -81 124 -43 q 51 -162 51 -119 q 65 -202 51 -189 q 103 -215 78 -215 q 185 -193 140 -215 l 194 -264 q 79 -290 142 -290 q -4 -265 28 -290 q -37 -194 -36 -240 q 6 -86 -37 -139 q 108 0 49 -33 l 186 0 z "},"Ĩ":{"ha":367,"x_min":38,"x_max":561,"o":"m 208 972 l 356 972 l 185 0 l 38 0 l 208 972 m 421 1092 q 378 1100 400 1092 q 324 1124 357 1108 q 242 1153 268 1153 q 186 1103 197 1153 l 83 1103 q 136 1222 99 1181 q 229 1263 174 1263 q 273 1254 251 1263 q 324 1231 294 1246 q 368 1209 350 1217 q 404 1201 386 1201 q 457 1256 447 1201 l 561 1256 q 510 1131 544 1171 q 421 1092 475 1092 z "},"J":{"ha":368,"x_min":-103,"x_max":357,"o":"m -97 -143 l -75 -143 q 0 -110 -25 -143 q 38 -1 25 -78 l 210 972 l 357 972 l 178 -40 q 99 -188 161 -137 q -65 -239 36 -239 l -103 -239 l -97 -143 z "},"Ĵ":{"ha":368,"x_min":-103,"x_max":490,"o":"m -97 -143 l -75 -143 q 0 -110 -25 -143 q 38 -1 25 -78 l 210 972 l 357 972 l 178 -40 q 99 -188 161 -137 q -65 -239 36 -239 l -103 -239 l -97 -143 m 490 1133 l 475 1043 l 313 1138 l 149 1060 l 164 1150 l 333 1260 l 490 1133 z "},"K":{"ha":788,"x_min":38,"x_max":863,"o":"m 208 972 l 356 972 l 185 0 l 38 0 l 208 972 m 288 515 l 685 972 l 863 972 l 446 515 l 706 0 l 540 0 l 288 515 z "},"Ķ":{"ha":788,"x_min":38,"x_max":863,"o":"m 208 972 l 356 972 l 185 0 l 38 0 l 208 972 m 288 515 l 685 972 l 863 972 l 446 515 l 706 0 l 540 0 l 288 515 m 242 -371 l 306 -251 l 254 -251 l 276 -126 l 414 -126 l 392 -251 l 296 -371 l 242 -371 z "},"L":{"ha":660,"x_min":38,"x_max":594,"o":"m 208 972 l 356 972 l 210 138 l 594 138 l 569 0 l 38 0 l 208 972 z "},"Ǉ":{"ha":1028,"x_min":38,"x_max":1017,"o":"m 208 972 l 356 972 l 210 138 l 594 138 l 569 0 l 38 0 l 208 972 m 563 -143 l 585 -143 q 660 -110 635 -143 q 697 -1 685 -78 l 869 972 l 1017 972 l 838 -40 q 758 -188 821 -137 q 594 -239 696 -239 l 557 -239 l 563 -143 z "},"Ĺ":{"ha":660,"x_min":38,"x_max":594,"o":"m 208 972 l 356 972 l 210 138 l 594 138 l 569 0 l 38 0 l 208 972 m 200 1153 l 449 1285 l 426 1139 l 188 1058 l 200 1153 z "},"Ľ":{"ha":660,"x_min":38,"x_max":774,"o":"m 208 972 l 356 972 l 210 138 l 594 138 l 569 0 l 38 0 l 208 972 m 643 972 l 774 972 l 692 736 l 600 736 l 643 972 z "},"Ļ":{"ha":660,"x_min":38,"x_max":594,"o":"m 208 972 l 356 972 l 210 138 l 594 138 l 569 0 l 38 0 l 208 972 m 210 -371 l 274 -251 l 222 -251 l 244 -126 l 382 -126 l 360 -251 l 264 -371 l 210 -371 z "},"Ŀ":{"ha":660,"x_min":38,"x_max":608,"o":"m 208 972 l 356 972 l 210 138 l 594 138 l 569 0 l 38 0 l 208 972 m 461 615 l 608 615 l 581 460 l 435 460 l 461 615 z "},"Ḷ":{"ha":660,"x_min":38,"x_max":594,"o":"m 208 972 l 356 972 l 210 138 l 594 138 l 569 0 l 38 0 l 208 972 m 247 -112 l 379 -112 l 354 -240 l 222 -240 l 247 -112 z "},"ǈ":{"ha":971,"x_min":38,"x_max":986,"o":"m 208 972 l 356 972 l 210 138 l 594 138 l 569 0 l 38 0 l 208 972 m 844 972 l 986 972 l 960 822 l 818 822 l 844 972 m 550 -225 q 606 -212 588 -222 q 635 -177 624 -203 q 656 -96 646 -151 l 793 685 l 935 685 l 788 -150 q 722 -281 772 -236 q 594 -332 671 -325 l 544 -336 l 550 -225 z "},"Ḻ":{"ha":660,"x_min":38,"x_max":594,"o":"m 208 972 l 356 972 l 210 138 l 594 138 l 569 0 l 38 0 l 208 972 m 93 -126 l 531 -126 l 510 -229 l 74 -229 l 93 -126 z "},"Ł":{"ha":660,"x_min":26,"x_max":594,"o":"m 594 138 l 569 0 l 38 0 l 126 508 l 26 471 l 47 585 l 147 622 l 208 972 l 356 972 l 304 682 l 569 782 l 549 668 l 285 568 l 210 138 l 594 138 z "},"M":{"ha":1071,"x_min":-7,"x_max":981,"o":"m 288 972 l 418 972 l 551 503 l 850 972 l 981 972 l 932 0 l 778 0 l 822 693 l 503 222 l 349 693 l 147 0 l -7 0 l 288 972 z "},"Ṃ":{"ha":1071,"x_min":-7,"x_max":981,"o":"m 288 972 l 418 972 l 551 503 l 850 972 l 981 972 l 932 0 l 778 0 l 822 693 l 503 222 l 349 693 l 147 0 l -7 0 l 288 972 m 379 -112 l 511 -112 l 486 -240 l 354 -240 l 379 -112 z "},"N":{"ha":924,"x_min":38,"x_max":913,"o":"m 208 972 l 360 972 l 642 278 l 764 972 l 913 972 l 740 0 l 618 0 l 315 735 l 185 0 l 38 0 l 208 972 z "},"Ǌ":{"ha":1292,"x_min":38,"x_max":1281,"o":"m 208 972 l 360 972 l 642 278 l 764 972 l 913 972 l 740 0 l 618 0 l 315 735 l 185 0 l 38 0 l 208 972 m 826 -143 l 849 -143 q 924 -110 899 -143 q 961 -1 949 -78 l 1133 972 l 1281 972 l 1101 -40 q 1022 -188 1085 -137 q 858 -239 960 -239 l 821 -239 l 826 -143 z "},"Ń":{"ha":924,"x_min":38,"x_max":913,"o":"m 208 972 l 360 972 l 642 278 l 764 972 l 913 972 l 740 0 l 618 0 l 315 735 l 185 0 l 38 0 l 208 972 m 479 1153 l 728 1285 l 706 1139 l 467 1058 l 479 1153 z "},"Ň":{"ha":924,"x_min":38,"x_max":913,"o":"m 208 972 l 360 972 l 642 278 l 764 972 l 913 972 l 740 0 l 618 0 l 315 735 l 185 0 l 38 0 l 208 972 m 415 1168 l 431 1260 l 592 1163 l 760 1254 l 744 1156 l 571 1043 l 415 1168 z "},"Ņ":{"ha":924,"x_min":38,"x_max":913,"o":"m 208 972 l 360 972 l 642 278 l 764 972 l 913 972 l 740 0 l 618 0 l 315 735 l 185 0 l 38 0 l 208 972 m 281 -371 l 344 -251 l 293 -251 l 315 -126 l 453 -126 l 431 -251 l 335 -371 l 281 -371 z "},"Ṅ":{"ha":924,"x_min":38,"x_max":913,"o":"m 208 972 l 360 972 l 642 278 l 764 972 l 913 972 l 740 0 l 618 0 l 315 735 l 185 0 l 38 0 l 208 972 m 540 1228 l 675 1228 l 651 1100 l 517 1100 l 540 1228 z "},"Ṇ":{"ha":924,"x_min":38,"x_max":913,"o":"m 208 972 l 360 972 l 642 278 l 764 972 l 913 972 l 740 0 l 618 0 l 315 735 l 185 0 l 38 0 l 208 972 m 318 -112 l 450 -112 l 425 -240 l 293 -240 l 318 -112 z "},"Ŋ":{"ha":947,"x_min":46,"x_max":892,"o":"m 783 54 q 662 -185 756 -104 q 432 -267 568 -267 q 282 -237 356 -267 l 324 -106 q 449 -129 383 -129 q 572 -84 522 -129 q 635 51 621 -39 l 732 601 q 739 672 739 646 q 694 808 739 761 q 564 856 650 856 q 433 825 493 856 q 325 744 372 794 l 193 0 l 46 0 l 218 972 l 343 972 l 335 875 q 631 992 471 992 q 824 917 757 992 q 892 715 892 842 q 882 619 892 668 l 783 54 z "},"ǋ":{"ha":1221,"x_min":38,"x_max":1236,"o":"m 208 972 l 360 972 l 642 278 l 764 972 l 913 972 l 740 0 l 618 0 l 315 735 l 185 0 l 38 0 l 208 972 m 1094 972 l 1236 972 l 1210 822 l 1068 822 l 1094 972 m 800 -225 q 856 -212 838 -222 q 885 -177 874 -203 q 906 -96 896 -151 l 1043 685 l 1185 685 l 1038 -150 q 972 -281 1022 -236 q 844 -332 921 -325 l 794 -336 l 800 -225 z "},"Ṉ":{"ha":924,"x_min":38,"x_max":913,"o":"m 208 972 l 360 972 l 642 278 l 764 972 l 913 972 l 740 0 l 618 0 l 315 735 l 185 0 l 38 0 l 208 972 m 164 -126 l 601 -126 l 581 -229 l 144 -229 l 164 -126 z "},"Ñ":{"ha":924,"x_min":38,"x_max":913,"o":"m 208 972 l 360 972 l 642 278 l 764 972 l 913 972 l 740 0 l 618 0 l 315 735 l 185 0 l 38 0 l 208 972 m 700 1092 q 658 1100 679 1092 q 603 1124 636 1108 q 521 1153 547 1153 q 465 1103 476 1153 l 363 1103 q 415 1222 378 1181 q 508 1263 453 1263 q 552 1254 531 1263 q 603 1231 574 1246 q 647 1209 629 1217 q 683 1201 665 1201 q 736 1256 726 1201 l 840 1256 q 789 1131 824 1171 q 700 1092 754 1092 z "},"O":{"ha":1001,"x_min":63,"x_max":965,"o":"m 429 -19 q 234 30 317 -19 q 107 172 151 79 q 63 394 63 265 q 135 699 63 563 q 331 914 208 836 q 599 992 454 992 q 794 942 711 992 q 921 800 876 893 q 965 578 965 707 q 892 273 965 410 q 697 58 819 136 q 429 -19 574 -19 m 453 117 q 637 180 557 117 q 760 347 717 243 q 804 568 804 450 q 747 778 804 700 q 574 856 690 856 q 390 792 469 856 q 268 626 311 729 q 225 404 225 522 q 281 194 225 272 q 453 117 338 117 z "},"Ó":{"ha":1001,"x_min":63,"x_max":965,"o":"m 429 -19 q 234 30 317 -19 q 107 172 151 79 q 63 394 63 265 q 135 699 63 563 q 331 914 208 836 q 599 992 454 992 q 794 942 711 992 q 921 800 876 893 q 965 578 965 707 q 892 273 965 410 q 697 58 819 136 q 429 -19 574 -19 m 453 117 q 637 180 557 117 q 760 347 717 243 q 804 568 804 450 q 747 778 804 700 q 574 856 690 856 q 390 792 469 856 q 268 626 311 729 q 225 404 225 522 q 281 194 225 272 q 453 117 338 117 m 522 1185 l 785 1332 l 761 1171 l 503 1083 l 522 1185 z "},"Ŏ":{"ha":1001,"x_min":63,"x_max":965,"o":"m 429 -19 q 234 30 317 -19 q 107 172 151 79 q 63 394 63 265 q 135 699 63 563 q 331 914 208 836 q 599 992 454 992 q 794 942 711 992 q 921 800 876 893 q 965 578 965 707 q 892 273 965 410 q 697 58 819 136 q 429 -19 574 -19 m 453 117 q 637 180 557 117 q 760 347 717 243 q 804 568 804 450 q 747 778 804 700 q 574 856 690 856 q 390 792 469 856 q 268 626 311 729 q 225 404 225 522 q 281 194 225 272 q 453 117 338 117 m 619 1063 q 485 1102 532 1063 q 439 1203 439 1142 q 442 1235 439 1213 l 556 1235 q 554 1215 554 1229 q 576 1167 554 1183 q 633 1151 597 1151 q 703 1173 674 1151 q 740 1235 733 1194 l 856 1235 q 781 1110 842 1157 q 619 1063 719 1063 z "},"Ô":{"ha":1001,"x_min":63,"x_max":965,"o":"m 429 -19 q 234 30 317 -19 q 107 172 151 79 q 63 394 63 265 q 135 699 63 563 q 331 914 208 836 q 599 992 454 992 q 794 942 711 992 q 921 800 876 893 q 965 578 965 707 q 892 273 965 410 q 697 58 819 136 q 429 -19 574 -19 m 453 117 q 637 180 557 117 q 760 347 717 243 q 804 568 804 450 q 747 778 804 700 q 574 856 690 856 q 390 792 469 856 q 268 626 311 729 q 225 404 225 522 q 281 194 225 272 q 453 117 338 117 m 489 1178 l 668 1313 l 817 1160 l 799 1067 l 642 1179 l 467 1081 l 489 1178 z "},"Ố":{"ha":1001,"x_min":63,"x_max":989,"o":"m 429 -19 q 234 30 317 -19 q 107 172 151 79 q 63 394 63 265 q 135 699 63 563 q 331 914 208 836 q 599 992 454 992 q 794 942 711 992 q 921 800 876 893 q 965 578 965 707 q 892 273 965 410 q 697 58 819 136 q 429 -19 574 -19 m 453 117 q 637 180 557 117 q 760 347 717 243 q 804 568 804 450 q 747 778 804 700 q 574 856 690 856 q 390 792 469 856 q 268 626 311 729 q 225 404 225 522 q 281 194 225 272 q 453 117 338 117 m 846 1410 l 989 1410 l 832 1253 l 736 1253 l 846 1410 m 810 1138 l 794 1047 l 632 1142 l 468 1064 l 483 1154 l 653 1264 l 810 1138 z "},"Ộ":{"ha":1001,"x_min":63,"x_max":965,"o":"m 429 -19 q 234 30 317 -19 q 107 172 151 79 q 63 394 63 265 q 135 699 63 563 q 331 914 208 836 q 599 992 454 992 q 794 942 711 992 q 921 800 876 893 q 965 578 965 707 q 892 273 965 410 q 697 58 819 136 q 429 -19 574 -19 m 453 117 q 637 180 557 117 q 760 347 717 243 q 804 568 804 450 q 747 778 804 700 q 574 856 690 856 q 390 792 469 856 q 268 626 311 729 q 225 404 225 522 q 281 194 225 272 q 453 117 338 117 m 808 1133 l 793 1043 l 631 1138 l 467 1060 l 482 1150 l 651 1260 l 808 1133 m 333 -112 l 465 -112 l 440 -240 l 308 -240 l 333 -112 z "},"Ồ":{"ha":1001,"x_min":63,"x_max":965,"o":"m 429 -19 q 234 30 317 -19 q 107 172 151 79 q 63 394 63 265 q 135 699 63 563 q 331 914 208 836 q 599 992 454 992 q 794 942 711 992 q 921 800 876 893 q 965 578 965 707 q 892 273 965 410 q 697 58 819 136 q 429 -19 574 -19 m 453 117 q 637 180 557 117 q 760 347 717 243 q 804 568 804 450 q 747 778 804 700 q 574 856 690 856 q 390 792 469 856 q 268 626 311 729 q 225 404 225 522 q 281 194 225 272 q 453 117 338 117 m 738 1253 l 649 1419 l 786 1419 l 832 1253 l 738 1253 m 810 1138 l 794 1047 l 632 1142 l 468 1064 l 483 1154 l 653 1264 l 810 1138 z "},"Ổ":{"ha":1001,"x_min":63,"x_max":965,"o":"m 429 -19 q 234 30 317 -19 q 107 172 151 79 q 63 394 63 265 q 135 699 63 563 q 331 914 208 836 q 599 992 454 992 q 794 942 711 992 q 921 800 876 893 q 965 578 965 707 q 892 273 965 410 q 697 58 819 136 q 429 -19 574 -19 m 453 117 q 637 180 557 117 q 760 347 717 243 q 804 568 804 450 q 747 778 804 700 q 574 856 690 856 q 390 792 469 856 q 268 626 311 729 q 225 404 225 522 q 281 194 225 272 q 453 117 338 117 m 808 1133 l 793 1043 l 631 1138 l 467 1060 l 482 1150 l 651 1260 l 808 1133 m 757 1269 q 815 1326 815 1286 q 803 1354 815 1344 q 767 1364 790 1364 q 682 1339 735 1364 l 671 1415 q 785 1439 728 1439 q 869 1414 836 1439 q 901 1346 901 1389 q 865 1260 901 1293 q 761 1211 828 1226 l 757 1269 z "},"Ỗ":{"ha":1001,"x_min":63,"x_max":965,"o":"m 429 -19 q 234 30 317 -19 q 107 172 151 79 q 63 394 63 265 q 135 699 63 563 q 331 914 208 836 q 599 992 454 992 q 794 942 711 992 q 921 800 876 893 q 965 578 965 707 q 892 273 965 410 q 697 58 819 136 q 429 -19 574 -19 m 453 117 q 637 180 557 117 q 760 347 717 243 q 804 568 804 450 q 747 778 804 700 q 574 856 690 856 q 390 792 469 856 q 268 626 311 729 q 225 404 225 522 q 281 194 225 272 q 453 117 338 117 m 808 1133 l 793 1043 l 631 1138 l 467 1060 l 482 1150 l 651 1260 l 808 1133 m 771 1300 q 728 1307 750 1300 q 671 1329 707 1314 q 592 1353 615 1353 q 560 1342 574 1353 q 544 1307 547 1331 l 449 1307 q 495 1412 461 1375 q 581 1449 529 1449 q 622 1442 601 1449 q 679 1419 642 1435 q 722 1402 700 1410 q 761 1394 744 1394 q 793 1407 781 1394 q 808 1442 806 1419 l 904 1442 q 858 1336 893 1372 q 771 1300 824 1300 z "},"Ȍ":{"ha":1001,"x_min":63,"x_max":965,"o":"m 429 -19 q 234 30 317 -19 q 107 172 151 79 q 63 394 63 265 q 135 699 63 563 q 331 914 208 836 q 599 992 454 992 q 794 942 711 992 q 921 800 876 893 q 965 578 965 707 q 892 273 965 410 q 697 58 819 136 q 429 -19 574 -19 m 453 117 q 637 180 557 117 q 760 347 717 243 q 804 568 804 450 q 747 778 804 700 q 574 856 690 856 q 390 792 469 856 q 268 626 311 729 q 225 404 225 522 q 281 194 225 272 q 453 117 338 117 m 478 1094 l 381 1304 l 522 1304 l 572 1094 l 478 1094 m 672 1094 l 583 1304 l 725 1304 l 768 1094 l 672 1094 z "},"Ö":{"ha":1001,"x_min":63,"x_max":965,"o":"m 429 -19 q 234 30 317 -19 q 107 172 151 79 q 63 394 63 265 q 135 699 63 563 q 331 914 208 836 q 599 992 454 992 q 794 942 711 992 q 921 800 876 893 q 965 578 965 707 q 892 273 965 410 q 697 58 819 136 q 429 -19 574 -19 m 453 117 q 637 180 557 117 q 760 347 717 243 q 804 568 804 450 q 747 778 804 700 q 574 856 690 856 q 390 792 469 856 q 268 626 311 729 q 225 404 225 522 q 281 194 225 272 q 453 117 338 117 m 458 1224 l 579 1224 l 556 1108 l 435 1108 l 458 1224 m 722 1224 l 843 1224 l 819 1108 l 699 1108 l 722 1224 z "},"Ȫ":{"ha":1001,"x_min":63,"x_max":965,"o":"m 429 -19 q 234 30 317 -19 q 107 172 151 79 q 63 394 63 265 q 135 699 63 563 q 331 914 208 836 q 599 992 454 992 q 794 942 711 992 q 921 800 876 893 q 965 578 965 707 q 892 273 965 410 q 697 58 819 136 q 429 -19 574 -19 m 453 117 q 637 180 557 117 q 760 347 717 243 q 804 568 804 450 q 747 778 804 700 q 574 856 690 856 q 390 792 469 856 q 268 626 311 729 q 225 404 225 522 q 281 194 225 272 q 453 117 338 117 m 453 1207 l 574 1207 l 553 1099 l 432 1099 l 453 1207 m 714 1207 l 835 1207 l 814 1099 l 693 1099 l 714 1207 m 460 1418 l 900 1418 l 883 1319 l 442 1319 l 460 1418 z "},"Ȱ":{"ha":1001,"x_min":63,"x_max":965,"o":"m 429 -19 q 234 30 317 -19 q 107 172 151 79 q 63 394 63 265 q 135 699 63 563 q 331 914 208 836 q 599 992 454 992 q 794 942 711 992 q 921 800 876 893 q 965 578 965 707 q 892 273 965 410 q 697 58 819 136 q 429 -19 574 -19 m 453 117 q 637 180 557 117 q 760 347 717 243 q 804 568 804 450 q 747 778 804 700 q 574 856 690 856 q 390 792 469 856 q 268 626 311 729 q 225 404 225 522 q 281 194 225 272 q 453 117 338 117 m 579 1228 l 714 1228 l 690 1100 l 556 1100 l 579 1228 m 463 1438 l 903 1438 l 886 1339 l 444 1339 l 463 1438 z "},"Ọ":{"ha":1001,"x_min":63,"x_max":965,"o":"m 429 -19 q 234 30 317 -19 q 107 172 151 79 q 63 394 63 265 q 135 699 63 563 q 331 914 208 836 q 599 992 454 992 q 794 942 711 992 q 921 800 876 893 q 965 578 965 707 q 892 273 965 410 q 697 58 819 136 q 429 -19 574 -19 m 453 117 q 637 180 557 117 q 760 347 717 243 q 804 568 804 450 q 747 778 804 700 q 574 856 690 856 q 390 792 469 856 q 268 626 311 729 q 225 404 225 522 q 281 194 225 272 q 453 117 338 117 m 333 -112 l 465 -112 l 440 -240 l 308 -240 l 333 -112 z "},"Ò":{"ha":1001,"x_min":63,"x_max":965,"o":"m 429 -19 q 234 30 317 -19 q 107 172 151 79 q 63 394 63 265 q 135 699 63 563 q 331 914 208 836 q 599 992 454 992 q 794 942 711 992 q 921 800 876 893 q 965 578 965 707 q 892 273 965 410 q 697 58 819 136 q 429 -19 574 -19 m 453 117 q 637 180 557 117 q 760 347 717 243 q 804 568 804 450 q 747 778 804 700 q 574 856 690 856 q 390 792 469 856 q 268 626 311 729 q 225 404 225 522 q 281 194 225 272 q 453 117 338 117 m 511 1183 l 536 1328 l 763 1178 l 746 1085 l 511 1183 z "},"Ỏ":{"ha":1001,"x_min":63,"x_max":965,"o":"m 429 -19 q 234 30 317 -19 q 107 172 151 79 q 63 394 63 265 q 135 699 63 563 q 331 914 208 836 q 599 992 454 992 q 794 942 711 992 q 921 800 876 893 q 965 578 965 707 q 892 273 965 410 q 697 58 819 136 q 429 -19 574 -19 m 453 117 q 637 180 557 117 q 760 347 717 243 q 804 568 804 450 q 747 778 804 700 q 574 856 690 856 q 390 792 469 856 q 268 626 311 729 q 225 404 225 522 q 281 194 225 272 q 453 117 338 117 m 592 1068 q 653 1123 635 1101 q 672 1171 672 1144 q 660 1199 672 1189 q 625 1208 647 1208 q 535 1183 590 1208 l 525 1257 q 640 1283 581 1283 q 725 1258 693 1283 q 757 1189 757 1233 q 725 1099 757 1138 q 632 1021 693 1060 l 592 1068 z "},"Ơ":{"ha":1001,"x_min":63,"x_max":967,"o":"m 840 908 q 933 772 900 856 q 965 578 965 688 q 892 273 965 410 q 697 58 819 136 q 429 -19 574 -19 q 234 30 317 -19 q 107 172 151 79 q 63 394 63 265 q 135 699 63 563 q 331 914 208 836 q 599 992 454 992 q 726 972 665 992 q 838 1075 819 981 l 967 1075 q 923 977 956 1019 q 840 908 890 935 m 453 117 q 637 180 557 117 q 760 347 717 243 q 804 568 804 450 q 747 778 804 700 q 574 856 690 856 q 390 792 469 856 q 268 626 311 729 q 225 404 225 522 q 281 194 225 272 q 453 117 338 117 z "},"Ớ":{"ha":1001,"x_min":63,"x_max":967,"o":"m 840 908 q 933 772 900 856 q 965 578 965 688 q 892 273 965 410 q 697 58 819 136 q 429 -19 574 -19 q 234 30 317 -19 q 107 172 151 79 q 63 394 63 265 q 135 699 63 563 q 331 914 208 836 q 599 992 454 992 q 726 972 665 992 q 838 1075 819 981 l 967 1075 q 923 977 956 1019 q 840 908 890 935 m 453 117 q 637 180 557 117 q 760 347 717 243 q 804 568 804 450 q 747 778 804 700 q 574 856 690 856 q 390 792 469 856 q 268 626 311 729 q 225 404 225 522 q 281 194 225 272 q 453 117 338 117 m 522 1185 l 785 1332 l 761 1171 l 503 1083 l 522 1185 z "},"Ợ":{"ha":1001,"x_min":63,"x_max":967,"o":"m 840 908 q 933 772 900 856 q 965 578 965 688 q 892 273 965 410 q 697 58 819 136 q 429 -19 574 -19 q 234 30 317 -19 q 107 172 151 79 q 63 394 63 265 q 135 699 63 563 q 331 914 208 836 q 599 992 454 992 q 726 972 665 992 q 838 1075 819 981 l 967 1075 q 923 977 956 1019 q 840 908 890 935 m 453 117 q 637 180 557 117 q 760 347 717 243 q 804 568 804 450 q 747 778 804 700 q 574 856 690 856 q 390 792 469 856 q 268 626 311 729 q 225 404 225 522 q 281 194 225 272 q 453 117 338 117 m 333 -112 l 465 -112 l 440 -240 l 308 -240 l 333 -112 z "},"Ờ":{"ha":1001,"x_min":63,"x_max":967,"o":"m 840 908 q 933 772 900 856 q 965 578 965 688 q 892 273 965 410 q 697 58 819 136 q 429 -19 574 -19 q 234 30 317 -19 q 107 172 151 79 q 63 394 63 265 q 135 699 63 563 q 331 914 208 836 q 599 992 454 992 q 726 972 665 992 q 838 1075 819 981 l 967 1075 q 923 977 956 1019 q 840 908 890 935 m 453 117 q 637 180 557 117 q 760 347 717 243 q 804 568 804 450 q 747 778 804 700 q 574 856 690 856 q 390 792 469 856 q 268 626 311 729 q 225 404 225 522 q 281 194 225 272 q 453 117 338 117 m 511 1183 l 536 1328 l 763 1178 l 746 1085 l 511 1183 z "},"Ở":{"ha":1001,"x_min":63,"x_max":967,"o":"m 840 908 q 933 772 900 856 q 965 578 965 688 q 892 273 965 410 q 697 58 819 136 q 429 -19 574 -19 q 234 30 317 -19 q 107 172 151 79 q 63 394 63 265 q 135 699 63 563 q 331 914 208 836 q 599 992 454 992 q 726 972 665 992 q 838 1075 819 981 l 967 1075 q 923 977 956 1019 q 840 908 890 935 m 453 117 q 637 180 557 117 q 760 347 717 243 q 804 568 804 450 q 747 778 804 700 q 574 856 690 856 q 390 792 469 856 q 268 626 311 729 q 225 404 225 522 q 281 194 225 272 q 453 117 338 117 m 592 1068 q 653 1123 635 1101 q 672 1171 672 1144 q 660 1199 672 1189 q 625 1208 647 1208 q 535 1183 590 1208 l 525 1257 q 640 1283 581 1283 q 725 1258 693 1283 q 757 1189 757 1233 q 725 1099 757 1138 q 632 1021 693 1060 l 592 1068 z "},"Ỡ":{"ha":1001,"x_min":63,"x_max":967,"o":"m 840 908 q 933 772 900 856 q 965 578 965 688 q 892 273 965 410 q 697 58 819 136 q 429 -19 574 -19 q 234 30 317 -19 q 107 172 151 79 q 63 394 63 265 q 135 699 63 563 q 331 914 208 836 q 599 992 454 992 q 726 972 665 992 q 838 1075 819 981 l 967 1075 q 923 977 956 1019 q 840 908 890 935 m 453 117 q 637 180 557 117 q 760 347 717 243 q 804 568 804 450 q 747 778 804 700 q 574 856 690 856 q 390 792 469 856 q 268 626 311 729 q 225 404 225 522 q 281 194 225 272 q 453 117 338 117 m 739 1092 q 697 1100 718 1092 q 642 1124 675 1108 q 560 1153 586 1153 q 504 1103 515 1153 l 401 1103 q 454 1222 417 1181 q 547 1263 492 1263 q 591 1254 569 1263 q 642 1231 613 1246 q 686 1209 668 1217 q 722 1201 704 1201 q 775 1256 765 1201 l 879 1256 q 828 1131 863 1171 q 739 1092 793 1092 z "},"Ő":{"ha":1001,"x_min":63,"x_max":965,"o":"m 429 -19 q 234 30 317 -19 q 107 172 151 79 q 63 394 63 265 q 135 699 63 563 q 331 914 208 836 q 599 992 454 992 q 794 942 711 992 q 921 800 876 893 q 965 578 965 707 q 892 273 965 410 q 697 58 819 136 q 429 -19 574 -19 m 453 117 q 637 180 557 117 q 760 347 717 243 q 804 568 804 450 q 747 778 804 700 q 574 856 690 856 q 390 792 469 856 q 268 626 311 729 q 225 404 225 522 q 281 194 225 272 q 453 117 338 117 m 589 1304 l 731 1304 l 569 1094 l 474 1094 l 589 1304 m 793 1304 l 935 1304 l 765 1094 l 669 1094 l 793 1304 z "},"Ȏ":{"ha":1001,"x_min":63,"x_max":965,"o":"m 429 -19 q 234 30 317 -19 q 107 172 151 79 q 63 394 63 265 q 135 699 63 563 q 331 914 208 836 q 599 992 454 992 q 794 942 711 992 q 921 800 876 893 q 965 578 965 707 q 892 273 965 410 q 697 58 819 136 q 429 -19 574 -19 m 453 117 q 637 180 557 117 q 760 347 717 243 q 804 568 804 450 q 747 778 804 700 q 574 856 690 856 q 390 792 469 856 q 268 626 311 729 q 225 404 225 522 q 281 194 225 272 q 453 117 338 117 m 653 1256 q 784 1215 739 1256 q 829 1114 829 1175 q 826 1083 829 1103 l 713 1083 q 714 1101 714 1090 q 693 1150 714 1133 q 638 1167 672 1167 q 568 1144 597 1167 q 532 1083 539 1122 l 418 1083 q 494 1206 432 1156 q 653 1256 557 1256 z "},"Ō":{"ha":1001,"x_min":63,"x_max":965,"o":"m 429 -19 q 234 30 317 -19 q 107 172 151 79 q 63 394 63 265 q 135 699 63 563 q 331 914 208 836 q 599 992 454 992 q 794 942 711 992 q 921 800 876 893 q 965 578 965 707 q 892 273 965 410 q 697 58 819 136 q 429 -19 574 -19 m 453 117 q 637 180 557 117 q 760 347 717 243 q 804 568 804 450 q 747 778 804 700 q 574 856 690 856 q 390 792 469 856 q 268 626 311 729 q 225 404 225 522 q 281 194 225 272 q 453 117 338 117 m 421 1200 l 861 1200 l 844 1101 l 403 1101 l 421 1200 z "},"Ṓ":{"ha":1001,"x_min":63,"x_max":965,"o":"m 429 -19 q 234 30 317 -19 q 107 172 151 79 q 63 394 63 265 q 135 699 63 563 q 331 914 208 836 q 599 992 454 992 q 794 942 711 992 q 921 800 876 893 q 965 578 965 707 q 892 273 965 410 q 697 58 819 136 q 429 -19 574 -19 m 453 117 q 637 180 557 117 q 760 347 717 243 q 804 568 804 450 q 747 778 804 700 q 574 856 690 856 q 390 792 469 856 q 268 626 311 729 q 225 404 225 522 q 281 194 225 272 q 453 117 338 117 m 421 1200 l 861 1200 l 844 1101 l 403 1101 l 421 1200 m 567 1372 l 815 1504 l 793 1358 l 554 1278 l 567 1372 z "},"Ṑ":{"ha":1001,"x_min":63,"x_max":965,"o":"m 429 -19 q 234 30 317 -19 q 107 172 151 79 q 63 394 63 265 q 135 699 63 563 q 331 914 208 836 q 599 992 454 992 q 794 942 711 992 q 921 800 876 893 q 965 578 965 707 q 892 273 965 410 q 697 58 819 136 q 429 -19 574 -19 m 453 117 q 637 180 557 117 q 760 347 717 243 q 804 568 804 450 q 747 778 804 700 q 574 856 690 856 q 390 792 469 856 q 268 626 311 729 q 225 404 225 522 q 281 194 225 272 q 453 117 338 117 m 421 1200 l 861 1200 l 844 1101 l 403 1101 l 421 1200 m 554 1358 l 579 1496 l 806 1364 l 789 1278 l 554 1358 z "},"Ǫ":{"ha":1001,"x_min":63,"x_max":965,"o":"m 499 -14 q 415 -88 446 -53 q 385 -162 385 -124 q 399 -202 385 -189 q 436 -215 413 -215 q 518 -193 474 -215 l 528 -264 q 413 -290 475 -290 q 329 -265 361 -290 q 296 -194 297 -240 q 328 -99 296 -146 q 411 -19 361 -53 q 156 97 249 -12 q 63 394 63 206 q 135 699 63 563 q 331 914 208 836 q 599 992 454 992 q 794 942 711 992 q 921 800 876 893 q 965 578 965 707 q 903 295 965 424 q 734 85 840 167 q 499 -14 628 4 m 225 404 q 281 194 225 272 q 453 117 338 117 q 637 180 557 117 q 760 347 717 243 q 804 568 804 450 q 747 778 804 700 q 574 856 690 856 q 390 792 469 856 q 268 626 311 729 q 225 404 225 522 z "},"Ø":{"ha":1001,"x_min":26,"x_max":1003,"o":"m 876 871 q 965 578 965 760 q 892 273 965 410 q 697 58 819 136 q 429 -19 574 -19 q 231 32 314 -19 l 158 -61 l 26 -61 l 151 101 q 63 394 63 210 q 135 699 63 563 q 331 914 208 836 q 599 992 454 992 q 799 939 714 992 l 871 1033 l 1003 1033 l 876 871 m 225 404 q 257 238 225 303 l 704 818 q 574 856 651 856 q 390 792 469 856 q 268 626 311 729 q 225 404 225 522 m 804 568 q 772 735 804 669 l 324 153 q 453 117 375 117 q 637 180 557 117 q 760 347 717 243 q 804 568 804 450 z "},"Ǿ":{"ha":1001,"x_min":26,"x_max":1003,"o":"m 876 871 q 965 578 965 760 q 892 273 965 410 q 697 58 819 136 q 429 -19 574 -19 q 231 32 314 -19 l 158 -61 l 26 -61 l 151 101 q 63 394 63 210 q 135 699 63 563 q 331 914 208 836 q 599 992 454 992 q 799 939 714 992 l 871 1033 l 1003 1033 l 876 871 m 225 404 q 257 238 225 303 l 704 818 q 574 856 651 856 q 390 792 469 856 q 268 626 311 729 q 225 404 225 522 m 804 568 q 772 735 804 669 l 324 153 q 453 117 375 117 q 637 180 557 117 q 760 347 717 243 q 804 568 804 450 m 518 1153 l 767 1285 l 744 1139 l 506 1058 l 518 1153 z "},"Õ":{"ha":1001,"x_min":63,"x_max":965,"o":"m 429 -19 q 234 30 317 -19 q 107 172 151 79 q 63 394 63 265 q 135 699 63 563 q 331 914 208 836 q 599 992 454 992 q 794 942 711 992 q 921 800 876 893 q 965 578 965 707 q 892 273 965 410 q 697 58 819 136 q 429 -19 574 -19 m 453 117 q 637 180 557 117 q 760 347 717 243 q 804 568 804 450 q 747 778 804 700 q 574 856 690 856 q 390 792 469 856 q 268 626 311 729 q 225 404 225 522 q 281 194 225 272 q 453 117 338 117 m 739 1092 q 697 1100 718 1092 q 642 1124 675 1108 q 560 1153 586 1153 q 504 1103 515 1153 l 401 1103 q 454 1222 417 1181 q 547 1263 492 1263 q 591 1254 569 1263 q 642 1231 613 1246 q 686 1209 668 1217 q 722 1201 704 1201 q 775 1256 765 1201 l 879 1256 q 828 1131 863 1171 q 739 1092 793 1092 z "},"Ṍ":{"ha":1001,"x_min":63,"x_max":965,"o":"m 429 -19 q 234 30 317 -19 q 107 172 151 79 q 63 394 63 265 q 135 699 63 563 q 331 914 208 836 q 599 992 454 992 q 794 942 711 992 q 921 800 876 893 q 965 578 965 707 q 892 273 965 410 q 697 58 819 136 q 429 -19 574 -19 m 453 117 q 637 180 557 117 q 760 347 717 243 q 804 568 804 450 q 747 778 804 700 q 574 856 690 856 q 390 792 469 856 q 268 626 311 729 q 225 404 225 522 q 281 194 225 272 q 453 117 338 117 m 729 1090 q 687 1097 708 1090 q 629 1119 665 1104 q 550 1143 574 1143 q 519 1132 532 1143 q 503 1097 506 1121 l 407 1097 q 453 1202 419 1165 q 539 1239 488 1239 q 580 1232 560 1239 q 638 1210 600 1225 q 681 1192 658 1200 q 719 1185 703 1185 q 751 1197 739 1185 q 767 1232 764 1210 l 863 1232 q 817 1126 851 1163 q 729 1090 782 1090 m 560 1392 l 808 1524 l 786 1378 l 547 1297 l 560 1392 z "},"Ṏ":{"ha":1001,"x_min":63,"x_max":965,"o":"m 429 -19 q 234 30 317 -19 q 107 172 151 79 q 63 394 63 265 q 135 699 63 563 q 331 914 208 836 q 599 992 454 992 q 794 942 711 992 q 921 800 876 893 q 965 578 965 707 q 892 273 965 410 q 697 58 819 136 q 429 -19 574 -19 m 453 117 q 637 180 557 117 q 760 347 717 243 q 804 568 804 450 q 747 778 804 700 q 574 856 690 856 q 390 792 469 856 q 268 626 311 729 q 225 404 225 522 q 281 194 225 272 q 453 117 338 117 m 729 1090 q 687 1097 708 1090 q 629 1119 665 1104 q 550 1143 574 1143 q 519 1132 532 1143 q 503 1097 506 1121 l 407 1097 q 453 1202 419 1165 q 539 1239 488 1239 q 580 1232 560 1239 q 638 1210 600 1225 q 681 1192 658 1200 q 719 1185 703 1185 q 751 1197 739 1185 q 767 1232 764 1210 l 863 1232 q 817 1126 851 1163 q 729 1090 782 1090 m 494 1446 l 615 1446 l 594 1338 l 474 1338 l 494 1446 m 756 1446 l 876 1446 l 856 1338 l 735 1338 l 756 1446 z "},"Ȭ":{"ha":1001,"x_min":63,"x_max":965,"o":"m 429 -19 q 234 30 317 -19 q 107 172 151 79 q 63 394 63 265 q 135 699 63 563 q 331 914 208 836 q 599 992 454 992 q 794 942 711 992 q 921 800 876 893 q 965 578 965 707 q 892 273 965 410 q 697 58 819 136 q 429 -19 574 -19 m 453 117 q 637 180 557 117 q 760 347 717 243 q 804 568 804 450 q 747 778 804 700 q 574 856 690 856 q 390 792 469 856 q 268 626 311 729 q 225 404 225 522 q 281 194 225 272 q 453 117 338 117 m 729 1090 q 687 1097 708 1090 q 629 1119 665 1104 q 550 1143 574 1143 q 519 1132 532 1143 q 503 1097 506 1121 l 407 1097 q 453 1202 419 1165 q 539 1239 488 1239 q 580 1232 560 1239 q 638 1210 600 1225 q 681 1192 658 1200 q 719 1185 703 1185 q 751 1197 739 1185 q 767 1232 764 1210 l 863 1232 q 817 1126 851 1163 q 729 1090 782 1090 m 463 1439 l 903 1439 l 886 1340 l 444 1340 l 463 1439 z "},"Œ":{"ha":1378,"x_min":63,"x_max":1417,"o":"m 979 835 l 935 576 l 1257 576 l 1233 439 l 910 439 l 857 138 l 1282 138 l 1257 0 l 700 0 l 721 117 q 576 16 657 51 q 406 -19 496 -19 q 225 30 303 -19 q 105 172 147 79 q 63 394 63 265 q 131 697 63 560 q 315 913 199 833 q 567 992 431 992 q 732 945 661 992 q 843 817 803 899 l 871 972 l 1417 972 l 1393 835 l 979 835 m 442 117 q 622 180 544 117 q 740 348 699 243 q 781 572 781 453 q 726 779 781 703 q 564 856 672 856 q 385 792 463 856 q 267 626 308 729 q 225 404 225 522 q 279 194 225 272 q 442 117 333 117 z "},"P":{"ha":769,"x_min":38,"x_max":786,"o":"m 208 972 l 497 972 q 786 708 786 972 q 736 497 786 582 q 603 373 686 413 q 419 333 521 333 l 246 333 l 188 0 l 38 0 l 208 972 m 428 468 q 578 528 524 468 q 632 692 632 589 q 599 806 632 767 q 489 844 565 844 l 338 844 l 269 468 l 428 468 z "},"Þ":{"ha":728,"x_min":26,"x_max":742,"o":"m 199 972 l 347 972 l 310 761 l 486 761 q 676 707 611 761 q 742 553 742 653 q 648 333 742 414 q 397 253 554 253 l 221 253 l 175 0 l 26 0 l 199 972 m 406 382 q 540 420 493 382 q 588 529 588 458 q 450 633 588 633 l 288 633 l 243 382 l 406 382 z "},"Q":{"ha":1000,"x_min":63,"x_max":965,"o":"m 426 -19 q 233 30 315 -19 q 107 173 151 79 q 63 394 63 267 q 135 698 63 561 q 331 913 208 835 q 597 992 454 992 q 794 942 711 992 q 922 799 878 892 q 965 582 965 707 q 928 369 965 471 q 813 163 890 268 l 879 94 l 779 -1 l 706 75 q 426 -19 576 -19 m 453 117 q 613 165 546 117 l 513 275 l 613 374 l 714 260 q 784 402 760 335 q 808 563 808 469 q 750 778 808 700 q 575 856 692 856 q 390 792 469 856 q 267 625 310 729 q 225 403 225 521 q 281 194 225 271 q 453 117 338 117 z "},"R":{"ha":807,"x_min":38,"x_max":788,"o":"m 208 972 l 496 972 q 713 910 639 972 q 788 725 788 849 q 728 530 788 610 q 575 413 668 450 l 707 0 l 553 0 l 428 374 l 253 374 l 188 0 l 38 0 l 208 972 m 435 514 q 576 566 521 514 q 631 714 631 618 q 597 817 631 782 q 486 851 563 851 l 338 851 l 278 514 l 435 514 z "},"Ŕ":{"ha":807,"x_min":38,"x_max":788,"o":"m 208 972 l 496 972 q 713 910 639 972 q 788 725 788 849 q 728 530 788 610 q 575 413 668 450 l 707 0 l 553 0 l 428 374 l 253 374 l 188 0 l 38 0 l 208 972 m 435 514 q 576 566 521 514 q 631 714 631 618 q 597 817 631 782 q 486 851 563 851 l 338 851 l 278 514 l 435 514 m 443 1153 l 692 1285 l 669 1139 l 431 1058 l 443 1153 z "},"Ř":{"ha":807,"x_min":38,"x_max":788,"o":"m 208 972 l 496 972 q 713 910 639 972 q 788 725 788 849 q 728 530 788 610 q 575 413 668 450 l 707 0 l 553 0 l 428 374 l 253 374 l 188 0 l 38 0 l 208 972 m 435 514 q 576 566 521 514 q 631 714 631 618 q 597 817 631 782 q 486 851 563 851 l 338 851 l 278 514 l 435 514 m 379 1168 l 394 1260 l 556 1163 l 724 1254 l 708 1156 l 535 1043 l 379 1168 z "},"Ŗ":{"ha":807,"x_min":38,"x_max":788,"o":"m 208 972 l 496 972 q 713 910 639 972 q 788 725 788 849 q 728 530 788 610 q 575 413 668 450 l 707 0 l 553 0 l 428 374 l 253 374 l 188 0 l 38 0 l 208 972 m 435 514 q 576 566 521 514 q 631 714 631 618 q 597 817 631 782 q 486 851 563 851 l 338 851 l 278 514 l 435 514 m 249 -371 l 313 -251 l 261 -251 l 283 -126 l 421 -126 l 399 -251 l 303 -371 l 249 -371 z "},"Ȑ":{"ha":807,"x_min":38,"x_max":788,"o":"m 208 972 l 496 972 q 713 910 639 972 q 788 725 788 849 q 728 530 788 610 q 575 413 668 450 l 707 0 l 553 0 l 428 374 l 253 374 l 188 0 l 38 0 l 208 972 m 435 514 q 576 566 521 514 q 631 714 631 618 q 597 817 631 782 q 486 851 563 851 l 338 851 l 278 514 l 435 514 m 403 1094 l 306 1304 l 447 1304 l 497 1094 l 403 1094 m 597 1094 l 508 1304 l 650 1304 l 693 1094 l 597 1094 z "},"Ṛ":{"ha":807,"x_min":38,"x_max":788,"o":"m 208 972 l 496 972 q 713 910 639 972 q 788 725 788 849 q 728 530 788 610 q 575 413 668 450 l 707 0 l 553 0 l 428 374 l 253 374 l 188 0 l 38 0 l 208 972 m 435 514 q 576 566 521 514 q 631 714 631 618 q 597 817 631 782 q 486 851 563 851 l 338 851 l 278 514 l 435 514 m 286 -112 l 418 -112 l 393 -240 l 261 -240 l 286 -112 z "},"Ȓ":{"ha":807,"x_min":38,"x_max":788,"o":"m 208 972 l 496 972 q 713 910 639 972 q 788 725 788 849 q 728 530 788 610 q 575 413 668 450 l 707 0 l 553 0 l 428 374 l 253 374 l 188 0 l 38 0 l 208 972 m 435 514 q 576 566 521 514 q 631 714 631 618 q 597 817 631 782 q 486 851 563 851 l 338 851 l 278 514 l 435 514 m 578 1256 q 709 1215 664 1256 q 754 1114 754 1175 q 751 1083 754 1103 l 638 1083 q 639 1101 639 1090 q 618 1150 639 1133 q 563 1167 597 1167 q 493 1144 522 1167 q 457 1083 464 1122 l 343 1083 q 419 1206 357 1156 q 578 1256 482 1256 z "},"Ṟ":{"ha":807,"x_min":38,"x_max":788,"o":"m 208 972 l 496 972 q 713 910 639 972 q 788 725 788 849 q 728 530 788 610 q 575 413 668 450 l 707 0 l 553 0 l 428 374 l 253 374 l 188 0 l 38 0 l 208 972 m 435 514 q 576 566 521 514 q 631 714 631 618 q 597 817 631 782 q 486 851 563 851 l 338 851 l 278 514 l 435 514 m 132 -126 l 569 -126 l 549 -229 l 113 -229 l 132 -126 z "},"S":{"ha":760,"x_min":8,"x_max":756,"o":"m 294 -19 q 129 -1 204 -19 q 8 46 54 18 l 56 217 q 169 145 104 174 q 315 117 235 117 q 467 155 408 117 q 525 268 525 193 q 503 344 525 314 q 442 395 481 375 q 339 440 404 415 q 216 497 263 471 q 138 567 169 522 q 107 679 107 611 q 148 826 107 754 q 273 945 189 899 q 478 992 357 992 q 633 972 561 992 q 756 922 706 951 l 714 768 q 592 834 649 813 q 467 856 535 856 q 326 819 388 856 q 265 711 265 782 q 303 631 265 660 q 425 571 340 603 q 566 511 515 538 q 654 433 617 485 q 692 300 692 382 q 653 146 692 218 q 526 27 615 74 q 294 -19 438 -19 z "},"Ś":{"ha":760,"x_min":8,"x_max":756,"o":"m 294 -19 q 129 -1 204 -19 q 8 46 54 18 l 56 217 q 169 145 104 174 q 315 117 235 117 q 467 155 408 117 q 525 268 525 193 q 503 344 525 314 q 442 395 481 375 q 339 440 404 415 q 216 497 263 471 q 138 567 169 522 q 107 679 107 611 q 148 826 107 754 q 273 945 189 899 q 478 992 357 992 q 633 972 561 992 q 756 922 706 951 l 714 768 q 592 834 649 813 q 467 856 535 856 q 326 819 388 856 q 265 711 265 782 q 303 631 265 660 q 425 571 340 603 q 566 511 515 538 q 654 433 617 485 q 692 300 692 382 q 653 146 692 218 q 526 27 615 74 q 294 -19 438 -19 m 399 1153 l 647 1285 l 625 1139 l 386 1058 l 399 1153 z "},"Ṥ":{"ha":760,"x_min":8,"x_max":756,"o":"m 294 -19 q 129 -1 204 -19 q 8 46 54 18 l 56 217 q 169 145 104 174 q 315 117 235 117 q 467 155 408 117 q 525 268 525 193 q 503 344 525 314 q 442 395 481 375 q 339 440 404 415 q 216 497 263 471 q 138 567 169 522 q 107 679 107 611 q 148 826 107 754 q 273 945 189 899 q 478 992 357 992 q 633 972 561 992 q 756 922 706 951 l 714 768 q 592 834 649 813 q 467 856 535 856 q 326 819 388 856 q 265 711 265 782 q 303 631 265 660 q 425 571 340 603 q 566 511 515 538 q 654 433 617 485 q 692 300 692 382 q 653 146 692 218 q 526 27 615 74 q 294 -19 438 -19 m 399 1153 l 647 1285 l 625 1139 l 386 1058 l 399 1153 m 508 1481 l 643 1481 l 619 1353 l 485 1353 l 508 1481 z "},"Š":{"ha":760,"x_min":8,"x_max":756,"o":"m 294 -19 q 129 -1 204 -19 q 8 46 54 18 l 56 217 q 169 145 104 174 q 315 117 235 117 q 467 155 408 117 q 525 268 525 193 q 503 344 525 314 q 442 395 481 375 q 339 440 404 415 q 216 497 263 471 q 138 567 169 522 q 107 679 107 611 q 148 826 107 754 q 273 945 189 899 q 478 992 357 992 q 633 972 561 992 q 756 922 706 951 l 714 768 q 592 834 649 813 q 467 856 535 856 q 326 819 388 856 q 265 711 265 782 q 303 631 265 660 q 425 571 340 603 q 566 511 515 538 q 654 433 617 485 q 692 300 692 382 q 653 146 692 218 q 526 27 615 74 q 294 -19 438 -19 m 350 1217 l 369 1310 l 525 1197 l 717 1310 l 699 1200 l 499 1063 l 350 1217 z "},"Ṧ":{"ha":760,"x_min":8,"x_max":756,"o":"m 294 -19 q 129 -1 204 -19 q 8 46 54 18 l 56 217 q 169 145 104 174 q 315 117 235 117 q 467 155 408 117 q 525 268 525 193 q 503 344 525 314 q 442 395 481 375 q 339 440 404 415 q 216 497 263 471 q 138 567 169 522 q 107 679 107 611 q 148 826 107 754 q 273 945 189 899 q 478 992 357 992 q 633 972 561 992 q 756 922 706 951 l 714 768 q 592 834 649 813 q 467 856 535 856 q 326 819 388 856 q 265 711 265 782 q 303 631 265 660 q 425 571 340 603 q 566 511 515 538 q 654 433 617 485 q 692 300 692 382 q 653 146 692 218 q 526 27 615 74 q 294 -19 438 -19 m 335 1168 l 350 1260 l 511 1163 l 679 1254 l 664 1156 l 490 1043 l 335 1168 m 494 1435 l 629 1435 l 606 1307 l 471 1307 l 494 1435 z "},"Ş":{"ha":760,"x_min":8,"x_max":756,"o":"m 467 856 q 326 819 388 856 q 265 711 265 782 q 303 631 265 660 q 425 571 340 603 q 566 511 515 538 q 654 433 617 485 q 692 300 692 382 q 613 90 692 181 q 360 -17 533 0 l 331 -75 l 340 -75 q 418 -100 390 -75 q 446 -169 446 -125 q 396 -278 446 -236 q 269 -319 346 -319 q 164 -293 208 -319 l 200 -221 q 285 -244 239 -244 q 340 -228 319 -244 q 361 -186 361 -211 q 299 -140 361 -140 q 232 -151 265 -140 l 288 -19 q 126 0 199 -18 q 8 46 53 18 l 56 217 q 169 145 104 174 q 315 117 235 117 q 467 155 408 117 q 525 268 525 193 q 503 344 525 314 q 442 395 481 375 q 339 440 404 415 q 216 497 263 471 q 138 567 169 522 q 107 679 107 611 q 148 826 107 754 q 273 945 189 899 q 478 992 357 992 q 633 972 561 992 q 756 922 706 951 l 714 768 q 592 834 649 813 q 467 856 535 856 z "},"Ŝ":{"ha":760,"x_min":8,"x_max":756,"o":"m 294 -19 q 129 -1 204 -19 q 8 46 54 18 l 56 217 q 169 145 104 174 q 315 117 235 117 q 467 155 408 117 q 525 268 525 193 q 503 344 525 314 q 442 395 481 375 q 339 440 404 415 q 216 497 263 471 q 138 567 169 522 q 107 679 107 611 q 148 826 107 754 q 273 945 189 899 q 478 992 357 992 q 633 972 561 992 q 756 922 706 951 l 714 768 q 592 834 649 813 q 467 856 535 856 q 326 819 388 856 q 265 711 265 782 q 303 631 265 660 q 425 571 340 603 q 566 511 515 538 q 654 433 617 485 q 692 300 692 382 q 653 146 692 218 q 526 27 615 74 q 294 -19 438 -19 m 689 1133 l 674 1043 l 511 1138 l 347 1060 l 363 1150 l 532 1260 l 689 1133 z "},"Ș":{"ha":760,"x_min":8,"x_max":756,"o":"m 294 -19 q 129 -1 204 -19 q 8 46 54 18 l 56 217 q 169 145 104 174 q 315 117 235 117 q 467 155 408 117 q 525 268 525 193 q 503 344 525 314 q 442 395 481 375 q 339 440 404 415 q 216 497 263 471 q 138 567 169 522 q 107 679 107 611 q 148 826 107 754 q 273 945 189 899 q 478 992 357 992 q 633 972 561 992 q 756 922 706 951 l 714 768 q 592 834 649 813 q 467 856 535 856 q 326 819 388 856 q 265 711 265 782 q 303 631 265 660 q 425 571 340 603 q 566 511 515 538 q 654 433 617 485 q 692 300 692 382 q 653 146 692 218 q 526 27 615 74 q 294 -19 438 -19 m 207 -371 l 271 -251 l 219 -251 l 242 -126 l 379 -126 l 357 -251 l 261 -371 l 207 -371 z "},"Ṡ":{"ha":760,"x_min":8,"x_max":756,"o":"m 294 -19 q 129 -1 204 -19 q 8 46 54 18 l 56 217 q 169 145 104 174 q 315 117 235 117 q 467 155 408 117 q 525 268 525 193 q 503 344 525 314 q 442 395 481 375 q 339 440 404 415 q 216 497 263 471 q 138 567 169 522 q 107 679 107 611 q 148 826 107 754 q 273 945 189 899 q 478 992 357 992 q 633 972 561 992 q 756 922 706 951 l 714 768 q 592 834 649 813 q 467 856 535 856 q 326 819 388 856 q 265 711 265 782 q 303 631 265 660 q 425 571 340 603 q 566 511 515 538 q 654 433 617 485 q 692 300 692 382 q 653 146 692 218 q 526 27 615 74 q 294 -19 438 -19 m 460 1228 l 594 1228 l 571 1100 l 436 1100 l 460 1228 z "},"Ṣ":{"ha":760,"x_min":8,"x_max":756,"o":"m 294 -19 q 129 -1 204 -19 q 8 46 54 18 l 56 217 q 169 145 104 174 q 315 117 235 117 q 467 155 408 117 q 525 268 525 193 q 503 344 525 314 q 442 395 481 375 q 339 440 404 415 q 216 497 263 471 q 138 567 169 522 q 107 679 107 611 q 148 826 107 754 q 273 945 189 899 q 478 992 357 992 q 633 972 561 992 q 756 922 706 951 l 714 768 q 592 834 649 813 q 467 856 535 856 q 326 819 388 856 q 265 711 265 782 q 303 631 265 660 q 425 571 340 603 q 566 511 515 538 q 654 433 617 485 q 692 300 692 382 q 653 146 692 218 q 526 27 615 74 q 294 -19 438 -19 m 244 -112 l 376 -112 l 351 -240 l 219 -240 l 244 -112 z "},"Ṩ":{"ha":760,"x_min":8,"x_max":756,"o":"m 294 -19 q 129 -1 204 -19 q 8 46 54 18 l 56 217 q 169 145 104 174 q 315 117 235 117 q 467 155 408 117 q 525 268 525 193 q 503 344 525 314 q 442 395 481 375 q 339 440 404 415 q 216 497 263 471 q 138 567 169 522 q 107 679 107 611 q 148 826 107 754 q 273 945 189 899 q 478 992 357 992 q 633 972 561 992 q 756 922 706 951 l 714 768 q 592 834 649 813 q 467 856 535 856 q 326 819 388 856 q 265 711 265 782 q 303 631 265 660 q 425 571 340 603 q 566 511 515 538 q 654 433 617 485 q 692 300 692 382 q 653 146 692 218 q 526 27 615 74 q 294 -19 438 -19 m 460 1228 l 594 1228 l 571 1100 l 436 1100 l 460 1228 m 244 -112 l 376 -112 l 351 -240 l 219 -240 l 244 -112 z "},"ẞ":{"ha":824,"x_min":31,"x_max":808,"o":"m 783 803 l 582 550 q 716 462 668 525 q 764 306 764 399 q 720 136 764 210 q 597 22 676 63 q 418 -19 518 -19 q 285 0 353 -19 l 310 135 q 415 117 360 117 q 551 166 500 117 q 601 299 601 215 q 557 409 601 371 q 433 453 513 447 l 411 454 l 432 565 l 654 839 q 533 858 600 858 q 374 806 436 858 q 293 650 311 754 l 178 0 l 31 0 l 149 663 q 278 910 176 829 q 535 992 381 992 q 684 972 614 992 q 808 921 754 953 l 783 803 z "},"Ə":{"ha":940,"x_min":39,"x_max":908,"o":"m 531 992 q 809 885 710 992 q 908 596 908 779 q 840 290 908 432 q 650 65 771 149 q 379 -19 529 -19 q 131 68 222 -19 q 39 310 39 156 q 49 408 39 356 q 75 499 60 461 l 743 499 q 747 578 747 539 q 682 783 747 711 q 490 856 617 856 q 183 786 353 856 l 186 915 q 352 971 264 950 q 531 992 440 992 m 403 117 q 592 185 513 117 q 713 368 672 254 l 201 368 q 196 313 196 342 q 249 169 197 221 q 403 117 300 117 z "},"T":{"ha":746,"x_min":117,"x_max":800,"o":"m 374 835 l 117 835 l 142 972 l 800 972 l 776 835 l 521 835 l 374 0 l 226 0 l 374 835 z "},"Ŧ":{"ha":746,"x_min":117,"x_max":800,"o":"m 521 835 l 469 540 l 640 540 l 624 444 l 451 444 l 374 0 l 226 0 l 304 444 l 132 444 l 150 540 l 322 540 l 374 835 l 117 835 l 142 972 l 800 972 l 776 835 l 521 835 z "},"Ť":{"ha":746,"x_min":117,"x_max":800,"o":"m 374 835 l 117 835 l 142 972 l 800 972 l 776 835 l 521 835 l 374 0 l 226 0 l 374 835 m 324 1168 l 339 1260 l 500 1163 l 668 1254 l 653 1156 l 479 1043 l 324 1168 z "},"Ţ":{"ha":746,"x_min":117,"x_max":800,"o":"m 374 835 l 117 835 l 142 972 l 800 972 l 776 835 l 521 835 l 374 0 l 226 0 l 374 835 m 313 -75 q 390 -100 363 -75 q 418 -169 418 -125 q 368 -278 418 -236 q 242 -319 318 -319 q 136 -293 181 -319 l 172 -221 q 257 -244 211 -244 q 313 -228 292 -244 q 333 -186 333 -211 q 271 -140 333 -140 q 204 -151 238 -140 l 268 0 l 340 0 l 303 -75 l 313 -75 z "},"Ț":{"ha":746,"x_min":117,"x_max":800,"o":"m 374 835 l 117 835 l 142 972 l 800 972 l 776 835 l 521 835 l 374 0 l 226 0 l 374 835 m 179 -371 l 243 -251 l 192 -251 l 214 -126 l 351 -126 l 329 -251 l 233 -371 l 179 -371 z "},"Ṭ":{"ha":746,"x_min":117,"x_max":800,"o":"m 374 835 l 117 835 l 142 972 l 800 972 l 776 835 l 521 835 l 374 0 l 226 0 l 374 835 m 217 -112 l 349 -112 l 324 -240 l 192 -240 l 217 -112 z "},"Ṯ":{"ha":746,"x_min":43,"x_max":800,"o":"m 374 835 l 117 835 l 142 972 l 800 972 l 776 835 l 521 835 l 374 0 l 226 0 l 374 835 m 63 -126 l 500 -126 l 479 -229 l 43 -229 l 63 -126 z "},"U":{"ha":940,"x_min":89,"x_max":940,"o":"m 396 -19 q 166 60 243 -19 q 89 288 89 140 q 101 414 89 346 l 200 972 l 347 972 l 260 476 q 243 325 243 383 q 285 172 244 226 q 419 117 325 117 q 613 214 549 117 q 706 476 678 311 l 793 972 l 940 972 l 842 414 q 692 95 806 210 q 396 -19 579 -19 z "},"Ú":{"ha":940,"x_min":89,"x_max":940,"o":"m 396 -19 q 166 60 243 -19 q 89 288 89 140 q 101 414 89 346 l 200 972 l 347 972 l 260 476 q 243 325 243 383 q 285 172 244 226 q 419 117 325 117 q 613 214 549 117 q 706 476 678 311 l 793 972 l 940 972 l 842 414 q 692 95 806 210 q 396 -19 579 -19 m 494 1185 l 757 1332 l 733 1171 l 475 1083 l 494 1185 z "},"Ŭ":{"ha":940,"x_min":89,"x_max":940,"o":"m 396 -19 q 166 60 243 -19 q 89 288 89 140 q 101 414 89 346 l 200 972 l 347 972 l 260 476 q 243 325 243 383 q 285 172 244 226 q 419 117 325 117 q 613 214 549 117 q 706 476 678 311 l 793 972 l 940 972 l 842 414 q 692 95 806 210 q 396 -19 579 -19 m 592 1063 q 458 1102 504 1063 q 411 1203 411 1142 q 414 1235 411 1213 l 528 1235 q 526 1215 526 1229 q 548 1167 526 1183 q 606 1151 569 1151 q 676 1173 646 1151 q 713 1235 706 1194 l 828 1235 q 753 1110 814 1157 q 592 1063 692 1063 z "},"Û":{"ha":940,"x_min":89,"x_max":940,"o":"m 396 -19 q 166 60 243 -19 q 89 288 89 140 q 101 414 89 346 l 200 972 l 347 972 l 260 476 q 243 325 243 383 q 285 172 244 226 q 419 117 325 117 q 613 214 549 117 q 706 476 678 311 l 793 972 l 940 972 l 842 414 q 692 95 806 210 q 396 -19 579 -19 m 461 1178 l 640 1313 l 789 1160 l 771 1067 l 614 1179 l 439 1081 l 461 1178 z "},"Ȕ":{"ha":940,"x_min":89,"x_max":940,"o":"m 396 -19 q 166 60 243 -19 q 89 288 89 140 q 101 414 89 346 l 200 972 l 347 972 l 260 476 q 243 325 243 383 q 285 172 244 226 q 419 117 325 117 q 613 214 549 117 q 706 476 678 311 l 793 972 l 940 972 l 842 414 q 692 95 806 210 q 396 -19 579 -19 m 450 1094 l 353 1304 l 494 1304 l 544 1094 l 450 1094 m 644 1094 l 556 1304 l 697 1304 l 740 1094 l 644 1094 z "},"Ü":{"ha":940,"x_min":89,"x_max":940,"o":"m 396 -19 q 166 60 243 -19 q 89 288 89 140 q 101 414 89 346 l 200 972 l 347 972 l 260 476 q 243 325 243 383 q 285 172 244 226 q 419 117 325 117 q 613 214 549 117 q 706 476 678 311 l 793 972 l 940 972 l 842 414 q 692 95 806 210 q 396 -19 579 -19 m 431 1224 l 551 1224 l 528 1108 l 407 1108 l 431 1224 m 694 1224 l 815 1224 l 792 1108 l 671 1108 l 694 1224 z "},"Ụ":{"ha":940,"x_min":89,"x_max":940,"o":"m 396 -19 q 166 60 243 -19 q 89 288 89 140 q 101 414 89 346 l 200 972 l 347 972 l 260 476 q 243 325 243 383 q 285 172 244 226 q 419 117 325 117 q 613 214 549 117 q 706 476 678 311 l 793 972 l 940 972 l 842 414 q 692 95 806 210 q 396 -19 579 -19 m 308 -112 l 440 -112 l 415 -240 l 283 -240 l 308 -112 z "},"Ù":{"ha":940,"x_min":89,"x_max":940,"o":"m 396 -19 q 166 60 243 -19 q 89 288 89 140 q 101 414 89 346 l 200 972 l 347 972 l 260 476 q 243 325 243 383 q 285 172 244 226 q 419 117 325 117 q 613 214 549 117 q 706 476 678 311 l 793 972 l 940 972 l 842 414 q 692 95 806 210 q 396 -19 579 -19 m 483 1183 l 508 1328 l 735 1178 l 718 1085 l 483 1183 z "},"Ủ":{"ha":940,"x_min":89,"x_max":940,"o":"m 396 -19 q 166 60 243 -19 q 89 288 89 140 q 101 414 89 346 l 200 972 l 347 972 l 260 476 q 243 325 243 383 q 285 172 244 226 q 419 117 325 117 q 613 214 549 117 q 706 476 678 311 l 793 972 l 940 972 l 842 414 q 692 95 806 210 q 396 -19 579 -19 m 564 1068 q 626 1123 607 1101 q 644 1171 644 1144 q 632 1199 644 1189 q 597 1208 619 1208 q 507 1183 563 1208 l 497 1257 q 613 1283 553 1283 q 697 1258 665 1283 q 729 1189 729 1233 q 697 1099 729 1138 q 604 1021 665 1060 l 564 1068 z "},"Ư":{"ha":940,"x_min":89,"x_max":1113,"o":"m 1113 1075 q 1049 955 1099 1004 q 925 885 999 906 l 842 414 q 692 95 806 210 q 396 -19 579 -19 q 166 60 243 -19 q 89 288 89 140 q 101 414 89 346 l 200 972 l 347 972 l 260 476 q 243 325 243 383 q 285 172 244 226 q 419 117 325 117 q 613 214 549 117 q 706 476 678 311 l 793 972 l 854 972 q 983 1075 964 972 l 1113 1075 z "},"Ứ":{"ha":940,"x_min":89,"x_max":1113,"o":"m 1113 1075 q 1049 955 1099 1004 q 925 885 999 906 l 842 414 q 692 95 806 210 q 396 -19 579 -19 q 166 60 243 -19 q 89 288 89 140 q 101 414 89 346 l 200 972 l 347 972 l 260 476 q 243 325 243 383 q 285 172 244 226 q 419 117 325 117 q 613 214 549 117 q 706 476 678 311 l 793 972 l 854 972 q 983 1075 964 972 l 1113 1075 m 494 1185 l 757 1332 l 733 1171 l 475 1083 l 494 1185 z "},"Ự":{"ha":940,"x_min":89,"x_max":1113,"o":"m 1113 1075 q 1049 955 1099 1004 q 925 885 999 906 l 842 414 q 692 95 806 210 q 396 -19 579 -19 q 166 60 243 -19 q 89 288 89 140 q 101 414 89 346 l 200 972 l 347 972 l 260 476 q 243 325 243 383 q 285 172 244 226 q 419 117 325 117 q 613 214 549 117 q 706 476 678 311 l 793 972 l 854 972 q 983 1075 964 972 l 1113 1075 m 308 -112 l 440 -112 l 415 -240 l 283 -240 l 308 -112 z "},"Ừ":{"ha":940,"x_min":89,"x_max":1113,"o":"m 1113 1075 q 1049 955 1099 1004 q 925 885 999 906 l 842 414 q 692 95 806 210 q 396 -19 579 -19 q 166 60 243 -19 q 89 288 89 140 q 101 414 89 346 l 200 972 l 347 972 l 260 476 q 243 325 243 383 q 285 172 244 226 q 419 117 325 117 q 613 214 549 117 q 706 476 678 311 l 793 972 l 854 972 q 983 1075 964 972 l 1113 1075 m 483 1183 l 508 1328 l 735 1178 l 718 1085 l 483 1183 z "},"Ử":{"ha":940,"x_min":89,"x_max":1113,"o":"m 1113 1075 q 1049 955 1099 1004 q 925 885 999 906 l 842 414 q 692 95 806 210 q 396 -19 579 -19 q 166 60 243 -19 q 89 288 89 140 q 101 414 89 346 l 200 972 l 347 972 l 260 476 q 243 325 243 383 q 285 172 244 226 q 419 117 325 117 q 613 214 549 117 q 706 476 678 311 l 793 972 l 854 972 q 983 1075 964 972 l 1113 1075 m 564 1068 q 626 1123 607 1101 q 644 1171 644 1144 q 632 1199 644 1189 q 597 1208 619 1208 q 507 1183 563 1208 l 497 1257 q 613 1283 553 1283 q 697 1258 665 1283 q 729 1189 729 1233 q 697 1099 729 1138 q 604 1021 665 1060 l 564 1068 z "},"Ữ":{"ha":940,"x_min":89,"x_max":1113,"o":"m 1113 1075 q 1049 955 1099 1004 q 925 885 999 906 l 842 414 q 692 95 806 210 q 396 -19 579 -19 q 166 60 243 -19 q 89 288 89 140 q 101 414 89 346 l 200 972 l 347 972 l 260 476 q 243 325 243 383 q 285 172 244 226 q 419 117 325 117 q 613 214 549 117 q 706 476 678 311 l 793 972 l 854 972 q 983 1075 964 972 l 1113 1075 m 711 1092 q 669 1100 690 1092 q 614 1124 647 1108 q 532 1153 558 1153 q 476 1103 488 1153 l 374 1103 q 426 1222 389 1181 q 519 1263 464 1263 q 563 1254 542 1263 q 614 1231 585 1246 q 658 1209 640 1217 q 694 1201 676 1201 q 747 1256 738 1201 l 851 1256 q 800 1131 835 1171 q 711 1092 765 1092 z "},"Ű":{"ha":940,"x_min":89,"x_max":940,"o":"m 396 -19 q 166 60 243 -19 q 89 288 89 140 q 101 414 89 346 l 200 972 l 347 972 l 260 476 q 243 325 243 383 q 285 172 244 226 q 419 117 325 117 q 613 214 549 117 q 706 476 678 311 l 793 972 l 940 972 l 842 414 q 692 95 806 210 q 396 -19 579 -19 m 561 1304 l 703 1304 l 542 1094 l 446 1094 l 561 1304 m 765 1304 l 907 1304 l 738 1094 l 642 1094 l 765 1304 z "},"Ȗ":{"ha":940,"x_min":89,"x_max":940,"o":"m 396 -19 q 166 60 243 -19 q 89 288 89 140 q 101 414 89 346 l 200 972 l 347 972 l 260 476 q 243 325 243 383 q 285 172 244 226 q 419 117 325 117 q 613 214 549 117 q 706 476 678 311 l 793 972 l 940 972 l 842 414 q 692 95 806 210 q 396 -19 579 -19 m 625 1256 q 756 1215 711 1256 q 801 1114 801 1175 q 799 1083 801 1103 l 685 1083 q 686 1101 686 1090 q 665 1150 686 1133 q 610 1167 644 1167 q 540 1144 569 1167 q 504 1083 511 1122 l 390 1083 q 467 1206 404 1156 q 625 1256 529 1256 z "},"Ū":{"ha":940,"x_min":89,"x_max":940,"o":"m 396 -19 q 166 60 243 -19 q 89 288 89 140 q 101 414 89 346 l 200 972 l 347 972 l 260 476 q 243 325 243 383 q 285 172 244 226 q 419 117 325 117 q 613 214 549 117 q 706 476 678 311 l 793 972 l 940 972 l 842 414 q 692 95 806 210 q 396 -19 579 -19 m 393 1200 l 833 1200 l 817 1101 l 375 1101 l 393 1200 z "},"Ṻ":{"ha":940,"x_min":89,"x_max":940,"o":"m 396 -19 q 166 60 243 -19 q 89 288 89 140 q 101 414 89 346 l 200 972 l 347 972 l 260 476 q 243 325 243 383 q 285 172 244 226 q 419 117 325 117 q 613 214 549 117 q 706 476 678 311 l 793 972 l 940 972 l 842 414 q 692 95 806 210 q 396 -19 579 -19 m 393 1200 l 833 1200 l 817 1101 l 375 1101 l 393 1200 m 474 1426 l 594 1426 l 574 1318 l 453 1318 l 474 1426 m 735 1426 l 856 1426 l 835 1318 l 714 1318 l 735 1426 z "},"Ų":{"ha":940,"x_min":89,"x_max":940,"o":"m 940 972 l 842 414 q 725 132 811 242 q 501 -8 639 22 q 412 -85 444 -49 q 379 -162 379 -122 q 393 -202 379 -189 q 431 -215 407 -215 q 513 -193 468 -215 l 522 -264 q 407 -290 469 -290 q 324 -265 356 -290 q 290 -194 292 -240 q 322 -100 290 -146 q 404 -19 354 -54 l 396 -19 q 166 60 243 -19 q 89 288 89 140 q 101 414 89 346 l 200 972 l 347 972 l 260 476 q 243 325 243 383 q 285 172 244 226 q 419 117 325 117 q 613 214 549 117 q 706 476 678 311 l 793 972 l 940 972 z "},"Ů":{"ha":940,"x_min":89,"x_max":940,"o":"m 396 -19 q 166 60 243 -19 q 89 288 89 140 q 101 414 89 346 l 200 972 l 347 972 l 260 476 q 243 325 243 383 q 285 172 244 226 q 419 117 325 117 q 613 214 549 117 q 706 476 678 311 l 793 972 l 940 972 l 842 414 q 692 95 806 210 q 396 -19 579 -19 m 592 1050 q 502 1081 533 1050 q 471 1161 471 1113 q 519 1274 471 1226 q 632 1321 567 1321 q 722 1290 690 1321 q 753 1210 753 1258 q 706 1097 753 1143 q 592 1050 660 1050 m 599 1114 q 655 1140 632 1114 q 678 1199 678 1165 q 663 1240 678 1225 q 625 1256 649 1256 q 569 1231 593 1256 q 546 1172 546 1206 q 560 1130 546 1146 q 599 1114 575 1114 z "},"Ũ":{"ha":940,"x_min":89,"x_max":940,"o":"m 396 -19 q 166 60 243 -19 q 89 288 89 140 q 101 414 89 346 l 200 972 l 347 972 l 260 476 q 243 325 243 383 q 285 172 244 226 q 419 117 325 117 q 613 214 549 117 q 706 476 678 311 l 793 972 l 940 972 l 842 414 q 692 95 806 210 q 396 -19 579 -19 m 711 1092 q 669 1100 690 1092 q 614 1124 647 1108 q 532 1153 558 1153 q 476 1103 488 1153 l 374 1103 q 426 1222 389 1181 q 519 1263 464 1263 q 563 1254 542 1263 q 614 1231 585 1246 q 658 1209 640 1217 q 694 1201 676 1201 q 747 1256 738 1201 l 851 1256 q 800 1131 835 1171 q 711 1092 765 1092 z "},"Ṹ":{"ha":940,"x_min":89,"x_max":940,"o":"m 396 -19 q 166 60 243 -19 q 89 288 89 140 q 101 414 89 346 l 200 972 l 347 972 l 260 476 q 243 325 243 383 q 285 172 244 226 q 419 117 325 117 q 613 214 549 117 q 706 476 678 311 l 793 972 l 940 972 l 842 414 q 692 95 806 210 q 396 -19 579 -19 m 701 1090 q 659 1097 681 1090 q 601 1119 638 1104 q 522 1143 546 1143 q 491 1132 504 1143 q 475 1097 478 1121 l 379 1097 q 426 1202 392 1165 q 511 1239 460 1239 q 552 1232 532 1239 q 610 1210 572 1225 q 653 1192 631 1200 q 692 1185 675 1185 q 724 1197 711 1185 q 739 1232 736 1210 l 835 1232 q 789 1126 824 1163 q 701 1090 754 1090 m 532 1392 l 781 1524 l 758 1378 l 519 1297 l 532 1392 z "},"V":{"ha":846,"x_min":101,"x_max":929,"o":"m 101 972 l 256 972 l 378 175 l 775 972 l 929 972 l 432 0 l 260 0 l 101 972 z "},"W":{"ha":1256,"x_min":126,"x_max":1336,"o":"m 126 972 l 281 972 l 326 203 l 664 960 l 794 960 l 865 210 l 1183 972 l 1336 972 l 903 0 l 763 0 l 690 747 l 353 0 l 206 0 l 126 972 z "},"Ẃ":{"ha":1256,"x_min":126,"x_max":1336,"o":"m 126 972 l 281 972 l 326 203 l 664 960 l 794 960 l 865 210 l 1183 972 l 1336 972 l 903 0 l 763 0 l 690 747 l 353 0 l 206 0 l 126 972 m 646 1153 l 894 1285 l 872 1139 l 633 1058 l 646 1153 z "},"Ŵ":{"ha":1256,"x_min":126,"x_max":1336,"o":"m 126 972 l 281 972 l 326 203 l 664 960 l 794 960 l 865 210 l 1183 972 l 1336 972 l 903 0 l 763 0 l 690 747 l 353 0 l 206 0 l 126 972 m 936 1133 l 921 1043 l 758 1138 l 594 1060 l 610 1150 l 779 1260 l 936 1133 z "},"Ẅ":{"ha":1256,"x_min":126,"x_max":1336,"o":"m 126 972 l 281 972 l 326 203 l 664 960 l 794 960 l 865 210 l 1183 972 l 1336 972 l 903 0 l 763 0 l 690 747 l 353 0 l 206 0 l 126 972 m 581 1207 l 701 1207 l 681 1099 l 560 1099 l 581 1207 m 842 1207 l 963 1207 l 942 1099 l 821 1099 l 842 1207 z "},"Ẁ":{"ha":1256,"x_min":126,"x_max":1336,"o":"m 126 972 l 281 972 l 326 203 l 664 960 l 794 960 l 865 210 l 1183 972 l 1336 972 l 903 0 l 763 0 l 690 747 l 353 0 l 206 0 l 126 972 m 633 1139 l 658 1276 l 885 1144 l 868 1058 l 633 1139 z "},"X":{"ha":806,"x_min":-58,"x_max":883,"o":"m 331 497 l 122 972 l 292 972 l 440 599 l 719 972 l 883 972 l 499 494 l 724 0 l 558 0 l 393 385 l 106 0 l -58 0 l 331 497 z "},"Y":{"ha":785,"x_min":106,"x_max":868,"o":"m 319 443 l 106 972 l 261 972 l 419 574 l 713 972 l 868 972 l 469 443 l 390 0 l 242 0 l 319 443 z "},"Ý":{"ha":785,"x_min":106,"x_max":868,"o":"m 319 443 l 106 972 l 261 972 l 419 574 l 713 972 l 868 972 l 469 443 l 390 0 l 242 0 l 319 443 m 408 1185 l 671 1332 l 647 1171 l 389 1083 l 408 1185 z "},"Ŷ":{"ha":785,"x_min":106,"x_max":868,"o":"m 319 443 l 106 972 l 261 972 l 419 574 l 713 972 l 868 972 l 469 443 l 390 0 l 242 0 l 319 443 m 694 1133 l 679 1043 l 517 1138 l 353 1060 l 368 1150 l 538 1260 l 694 1133 z "},"Ÿ":{"ha":785,"x_min":106,"x_max":868,"o":"m 319 443 l 106 972 l 261 972 l 419 574 l 713 972 l 868 972 l 469 443 l 390 0 l 242 0 l 319 443 m 344 1224 l 465 1224 l 442 1108 l 321 1108 l 344 1224 m 608 1224 l 729 1224 l 706 1108 l 585 1108 l 608 1224 z "},"Ẏ":{"ha":785,"x_min":106,"x_max":868,"o":"m 319 443 l 106 972 l 261 972 l 419 574 l 713 972 l 868 972 l 469 443 l 390 0 l 242 0 l 319 443 m 465 1228 l 600 1228 l 576 1100 l 442 1100 l 465 1228 z "},"Ỵ":{"ha":785,"x_min":106,"x_max":868,"o":"m 319 443 l 106 972 l 261 972 l 419 574 l 713 972 l 868 972 l 469 443 l 390 0 l 242 0 l 319 443 m 233 -112 l 365 -112 l 340 -240 l 208 -240 l 233 -112 z "},"Ỳ":{"ha":785,"x_min":106,"x_max":868,"o":"m 319 443 l 106 972 l 261 972 l 419 574 l 713 972 l 868 972 l 469 443 l 390 0 l 242 0 l 319 443 m 397 1183 l 422 1328 l 649 1178 l 632 1085 l 397 1183 z "},"Ỷ":{"ha":785,"x_min":106,"x_max":868,"o":"m 319 443 l 106 972 l 261 972 l 419 574 l 713 972 l 868 972 l 469 443 l 390 0 l 242 0 l 319 443 m 478 1068 q 540 1123 521 1101 q 558 1171 558 1144 q 546 1199 558 1189 q 511 1208 533 1208 q 421 1183 476 1208 l 411 1257 q 526 1283 467 1283 q 611 1258 579 1283 q 643 1189 643 1233 q 611 1099 643 1138 q 518 1021 579 1060 l 478 1068 z "},"Ȳ":{"ha":785,"x_min":106,"x_max":868,"o":"m 319 443 l 106 972 l 261 972 l 419 574 l 713 972 l 868 972 l 469 443 l 390 0 l 242 0 l 319 443 m 307 1200 l 747 1200 l 731 1101 l 289 1101 l 307 1200 z "},"Ỹ":{"ha":785,"x_min":106,"x_max":868,"o":"m 319 443 l 106 972 l 261 972 l 419 574 l 713 972 l 868 972 l 469 443 l 390 0 l 242 0 l 319 443 m 625 1092 q 583 1100 604 1092 q 528 1124 561 1108 q 446 1153 472 1153 q 390 1103 401 1153 l 288 1103 q 340 1222 303 1181 q 433 1263 378 1263 q 477 1254 456 1263 q 528 1231 499 1246 q 572 1209 554 1217 q 608 1201 590 1201 q 661 1256 651 1201 l 765 1256 q 714 1131 749 1171 q 625 1092 679 1092 z "},"Z":{"ha":711,"x_min":-56,"x_max":796,"o":"m 529 835 l 149 835 l 174 972 l 796 972 l 210 138 l 592 138 l 567 0 l -56 0 l 529 835 z "},"Ź":{"ha":711,"x_min":-56,"x_max":796,"o":"m 529 835 l 149 835 l 174 972 l 796 972 l 210 138 l 592 138 l 567 0 l -56 0 l 529 835 m 401 1153 l 650 1285 l 628 1139 l 389 1058 l 401 1153 z "},"Ž":{"ha":711,"x_min":-56,"x_max":796,"o":"m 529 835 l 149 835 l 174 972 l 796 972 l 210 138 l 592 138 l 567 0 l -56 0 l 529 835 m 353 1217 l 372 1310 l 528 1197 l 719 1310 l 701 1200 l 501 1063 l 353 1217 z "},"Ż":{"ha":711,"x_min":-56,"x_max":796,"o":"m 529 835 l 149 835 l 174 972 l 796 972 l 210 138 l 592 138 l 567 0 l -56 0 l 529 835 m 463 1228 l 597 1228 l 574 1100 l 439 1100 l 463 1228 z "},"Ẓ":{"ha":711,"x_min":-56,"x_max":796,"o":"m 529 835 l 149 835 l 174 972 l 796 972 l 210 138 l 592 138 l 567 0 l -56 0 l 529 835 m 172 -112 l 304 -112 l 279 -240 l 147 -240 l 172 -112 z "},"a":{"ha":771,"x_min":28,"x_max":704,"o":"m 264 -14 q 92 63 157 -14 q 28 264 28 139 q 75 474 28 374 q 207 637 122 575 q 397 699 292 699 q 556 621 507 699 l 581 685 l 704 685 l 622 206 q 617 151 617 176 q 631 110 617 121 q 683 100 644 100 l 647 -14 q 559 -8 590 -14 q 507 17 528 -3 q 474 79 486 38 q 264 -14 388 -14 m 311 107 q 419 144 371 107 q 493 247 467 182 q 519 392 519 313 q 483 530 519 483 q 383 576 447 576 q 277 537 325 576 q 202 431 229 497 q 175 289 175 365 q 209 157 175 207 q 311 107 243 107 z "},"á":{"ha":771,"x_min":28,"x_max":704,"o":"m 264 -14 q 92 63 157 -14 q 28 264 28 139 q 75 474 28 374 q 207 637 122 575 q 397 699 292 699 q 556 621 507 699 l 581 685 l 704 685 l 622 206 q 617 151 617 176 q 631 110 617 121 q 683 100 644 100 l 647 -14 q 559 -8 590 -14 q 507 17 528 -3 q 474 79 486 38 q 264 -14 388 -14 m 311 107 q 419 144 371 107 q 493 247 467 182 q 519 392 519 313 q 483 530 519 483 q 383 576 447 576 q 277 537 325 576 q 202 431 229 497 q 175 289 175 365 q 209 157 175 207 q 311 107 243 107 m 372 897 l 635 1044 l 611 883 l 353 796 l 372 897 z "},"ă":{"ha":771,"x_min":28,"x_max":717,"o":"m 264 -14 q 92 63 157 -14 q 28 264 28 139 q 75 474 28 374 q 207 637 122 575 q 397 699 292 699 q 556 621 507 699 l 581 685 l 704 685 l 622 206 q 617 151 617 176 q 631 110 617 121 q 683 100 644 100 l 647 -14 q 559 -8 590 -14 q 507 17 528 -3 q 474 79 486 38 q 264 -14 388 -14 m 311 107 q 419 144 371 107 q 493 247 467 182 q 519 392 519 313 q 483 530 519 483 q 383 576 447 576 q 277 537 325 576 q 202 431 229 497 q 175 289 175 365 q 209 157 175 207 q 311 107 243 107 m 483 806 q 353 846 399 806 q 307 950 307 886 q 311 988 307 969 l 421 988 q 417 964 417 978 q 438 917 417 933 q 493 901 458 901 q 563 924 533 901 q 599 988 592 946 l 717 988 q 641 856 701 906 q 483 806 581 806 z "},"ắ":{"ha":771,"x_min":28,"x_max":715,"o":"m 264 -14 q 92 63 157 -14 q 28 264 28 139 q 75 474 28 374 q 207 637 122 575 q 397 699 292 699 q 556 621 507 699 l 581 685 l 704 685 l 622 206 q 617 151 617 176 q 631 110 617 121 q 683 100 644 100 l 647 -14 q 559 -8 590 -14 q 507 17 528 -3 q 474 79 486 38 q 264 -14 388 -14 m 311 107 q 419 144 371 107 q 493 247 467 182 q 519 392 519 313 q 483 530 519 483 q 383 576 447 576 q 277 537 325 576 q 202 431 229 497 q 175 289 175 365 q 209 157 175 207 q 311 107 243 107 m 479 775 q 345 815 392 775 q 299 915 299 854 q 301 947 299 925 l 415 947 q 414 928 414 942 q 435 880 414 896 q 493 864 457 864 q 563 885 533 864 q 600 947 593 907 l 715 947 q 640 822 701 869 q 479 775 579 775 m 435 1100 l 683 1232 l 661 1086 l 422 1006 l 435 1100 z "},"ặ":{"ha":771,"x_min":28,"x_max":717,"o":"m 264 -14 q 92 63 157 -14 q 28 264 28 139 q 75 474 28 374 q 207 637 122 575 q 397 699 292 699 q 556 621 507 699 l 581 685 l 704 685 l 622 206 q 617 151 617 176 q 631 110 617 121 q 683 100 644 100 l 647 -14 q 559 -8 590 -14 q 507 17 528 -3 q 474 79 486 38 q 264 -14 388 -14 m 311 107 q 419 144 371 107 q 493 247 467 182 q 519 392 519 313 q 483 530 519 483 q 383 576 447 576 q 277 537 325 576 q 202 431 229 497 q 175 289 175 365 q 209 157 175 207 q 311 107 243 107 m 483 806 q 353 846 399 806 q 307 950 307 886 q 311 988 307 969 l 421 988 q 417 964 417 978 q 438 917 417 933 q 493 901 458 901 q 563 924 533 901 q 599 988 592 946 l 717 988 q 641 856 701 906 q 483 806 581 806 m 208 -112 l 340 -112 l 315 -240 l 183 -240 l 208 -112 z "},"ằ":{"ha":771,"x_min":28,"x_max":708,"o":"m 264 -14 q 92 63 157 -14 q 28 264 28 139 q 75 474 28 374 q 207 637 122 575 q 397 699 292 699 q 556 621 507 699 l 581 685 l 704 685 l 622 206 q 617 151 617 176 q 631 110 617 121 q 683 100 644 100 l 647 -14 q 559 -8 590 -14 q 507 17 528 -3 q 474 79 486 38 q 264 -14 388 -14 m 311 107 q 419 144 371 107 q 493 247 467 182 q 519 392 519 313 q 483 530 519 483 q 383 576 447 576 q 277 537 325 576 q 202 431 229 497 q 175 289 175 365 q 209 157 175 207 q 311 107 243 107 m 472 774 q 338 813 385 774 q 292 914 292 853 q 294 946 292 924 l 408 946 q 407 926 407 940 q 428 878 407 894 q 486 863 450 863 q 556 884 526 863 q 593 946 586 906 l 708 946 q 633 821 694 868 q 472 774 572 774 m 415 1085 l 440 1222 l 667 1090 l 650 1004 l 415 1085 z "},"ẳ":{"ha":771,"x_min":28,"x_max":725,"o":"m 264 -14 q 92 63 157 -14 q 28 264 28 139 q 75 474 28 374 q 207 637 122 575 q 397 699 292 699 q 556 621 507 699 l 581 685 l 704 685 l 622 206 q 617 151 617 176 q 631 110 617 121 q 683 100 644 100 l 647 -14 q 559 -8 590 -14 q 507 17 528 -3 q 474 79 486 38 q 264 -14 388 -14 m 311 107 q 419 144 371 107 q 493 247 467 182 q 519 392 519 313 q 483 530 519 483 q 383 576 447 576 q 277 537 325 576 q 202 431 229 497 q 175 289 175 365 q 209 157 175 207 q 311 107 243 107 m 489 779 q 355 819 401 779 q 308 919 308 858 q 311 951 308 929 l 425 951 q 424 932 424 946 q 445 884 424 900 q 503 868 467 868 q 573 890 543 868 q 610 951 603 911 l 725 951 q 650 826 711 874 q 489 779 589 779 m 525 1031 q 583 1088 583 1047 q 571 1115 583 1106 q 535 1125 558 1125 q 450 1100 503 1125 l 439 1176 q 553 1200 496 1200 q 637 1175 604 1200 q 669 1107 669 1150 q 633 1021 669 1054 q 529 972 596 988 l 525 1031 z "},"ẵ":{"ha":771,"x_min":28,"x_max":778,"o":"m 264 -14 q 92 63 157 -14 q 28 264 28 139 q 75 474 28 374 q 207 637 122 575 q 397 699 292 699 q 556 621 507 699 l 581 685 l 704 685 l 622 206 q 617 151 617 176 q 631 110 617 121 q 683 100 644 100 l 647 -14 q 559 -8 590 -14 q 507 17 528 -3 q 474 79 486 38 q 264 -14 388 -14 m 311 107 q 419 144 371 107 q 493 247 467 182 q 519 392 519 313 q 483 530 519 483 q 383 576 447 576 q 277 537 325 576 q 202 431 229 497 q 175 289 175 365 q 209 157 175 207 q 311 107 243 107 m 486 775 q 352 815 399 775 q 306 915 306 854 q 308 947 306 925 l 422 947 q 421 928 421 942 q 442 880 421 896 q 500 864 464 864 q 570 885 540 864 q 607 947 600 907 l 722 947 q 647 822 708 869 q 486 775 586 775 m 644 1014 q 602 1021 624 1014 q 544 1043 581 1028 q 465 1067 489 1067 q 434 1056 447 1067 q 418 1021 421 1044 l 322 1021 q 369 1126 335 1089 q 454 1163 403 1163 q 495 1156 475 1163 q 553 1133 515 1149 q 596 1116 574 1124 q 635 1108 618 1108 q 667 1121 654 1108 q 682 1156 679 1133 l 778 1156 q 732 1050 767 1086 q 644 1014 697 1014 z "},"â":{"ha":771,"x_min":28,"x_max":704,"o":"m 264 -14 q 92 63 157 -14 q 28 264 28 139 q 75 474 28 374 q 207 637 122 575 q 397 699 292 699 q 556 621 507 699 l 581 685 l 704 685 l 622 206 q 617 151 617 176 q 631 110 617 121 q 683 100 644 100 l 647 -14 q 559 -8 590 -14 q 507 17 528 -3 q 474 79 486 38 q 264 -14 388 -14 m 311 107 q 419 144 371 107 q 493 247 467 182 q 519 392 519 313 q 483 530 519 483 q 383 576 447 576 q 277 537 325 576 q 202 431 229 497 q 175 289 175 365 q 209 157 175 207 q 311 107 243 107 m 339 890 l 518 1025 l 667 872 l 649 779 l 492 892 l 317 793 l 339 890 z "},"ấ":{"ha":771,"x_min":28,"x_max":839,"o":"m 264 -14 q 92 63 157 -14 q 28 264 28 139 q 75 474 28 374 q 207 637 122 575 q 397 699 292 699 q 556 621 507 699 l 581 685 l 704 685 l 622 206 q 617 151 617 176 q 631 110 617 121 q 683 100 644 100 l 647 -14 q 559 -8 590 -14 q 507 17 528 -3 q 474 79 486 38 q 264 -14 388 -14 m 311 107 q 419 144 371 107 q 493 247 467 182 q 519 392 519 313 q 483 530 519 483 q 383 576 447 576 q 277 537 325 576 q 202 431 229 497 q 175 289 175 365 q 209 157 175 207 q 311 107 243 107 m 696 1122 l 839 1122 l 682 965 l 586 965 l 696 1122 m 660 850 l 644 760 l 482 854 l 318 776 l 333 867 l 503 976 l 660 850 z "},"ậ":{"ha":771,"x_min":28,"x_max":704,"o":"m 264 -14 q 92 63 157 -14 q 28 264 28 139 q 75 474 28 374 q 207 637 122 575 q 397 699 292 699 q 556 621 507 699 l 581 685 l 704 685 l 622 206 q 617 151 617 176 q 631 110 617 121 q 683 100 644 100 l 647 -14 q 559 -8 590 -14 q 507 17 528 -3 q 474 79 486 38 q 264 -14 388 -14 m 311 107 q 419 144 371 107 q 493 247 467 182 q 519 392 519 313 q 483 530 519 483 q 383 576 447 576 q 277 537 325 576 q 202 431 229 497 q 175 289 175 365 q 209 157 175 207 q 311 107 243 107 m 339 890 l 518 1025 l 667 872 l 649 779 l 492 892 l 317 793 l 339 890 m 208 -112 l 340 -112 l 315 -240 l 183 -240 l 208 -112 z "},"ầ":{"ha":771,"x_min":28,"x_max":704,"o":"m 264 -14 q 92 63 157 -14 q 28 264 28 139 q 75 474 28 374 q 207 637 122 575 q 397 699 292 699 q 556 621 507 699 l 581 685 l 704 685 l 622 206 q 617 151 617 176 q 631 110 617 121 q 683 100 644 100 l 647 -14 q 559 -8 590 -14 q 507 17 528 -3 q 474 79 486 38 q 264 -14 388 -14 m 311 107 q 419 144 371 107 q 493 247 467 182 q 519 392 519 313 q 483 530 519 483 q 383 576 447 576 q 277 537 325 576 q 202 431 229 497 q 175 289 175 365 q 209 157 175 207 q 311 107 243 107 m 588 965 l 499 1132 l 636 1132 l 682 965 l 588 965 m 660 850 l 644 760 l 482 854 l 318 776 l 333 867 l 503 976 l 660 850 z "},"ẩ":{"ha":771,"x_min":28,"x_max":751,"o":"m 264 -14 q 92 63 157 -14 q 28 264 28 139 q 75 474 28 374 q 207 637 122 575 q 397 699 292 699 q 556 621 507 699 l 581 685 l 704 685 l 622 206 q 617 151 617 176 q 631 110 617 121 q 683 100 644 100 l 647 -14 q 559 -8 590 -14 q 507 17 528 -3 q 474 79 486 38 q 264 -14 388 -14 m 311 107 q 419 144 371 107 q 493 247 467 182 q 519 392 519 313 q 483 530 519 483 q 383 576 447 576 q 277 537 325 576 q 202 431 229 497 q 175 289 175 365 q 209 157 175 207 q 311 107 243 107 m 658 846 l 643 756 l 481 850 l 317 772 l 332 863 l 501 972 l 658 846 m 607 982 q 665 1039 665 999 q 653 1067 665 1057 q 617 1076 640 1076 q 532 1051 585 1076 l 521 1128 q 635 1151 578 1151 q 719 1126 686 1151 q 751 1058 751 1101 q 715 972 751 1006 q 611 924 678 939 l 607 982 z "},"ẫ":{"ha":771,"x_min":28,"x_max":754,"o":"m 264 -14 q 92 63 157 -14 q 28 264 28 139 q 75 474 28 374 q 207 637 122 575 q 397 699 292 699 q 556 621 507 699 l 581 685 l 704 685 l 622 206 q 617 151 617 176 q 631 110 617 121 q 683 100 644 100 l 647 -14 q 559 -8 590 -14 q 507 17 528 -3 q 474 79 486 38 q 264 -14 388 -14 m 311 107 q 419 144 371 107 q 493 247 467 182 q 519 392 519 313 q 483 530 519 483 q 383 576 447 576 q 277 537 325 576 q 202 431 229 497 q 175 289 175 365 q 209 157 175 207 q 311 107 243 107 m 658 846 l 643 756 l 481 850 l 317 772 l 332 863 l 501 972 l 658 846 m 621 1013 q 578 1019 600 1013 q 521 1042 557 1026 q 442 1065 465 1065 q 410 1054 424 1065 q 394 1019 397 1043 l 299 1019 q 345 1124 311 1088 q 431 1161 379 1161 q 472 1154 451 1161 q 529 1132 492 1147 q 572 1115 550 1122 q 611 1107 594 1107 q 643 1119 631 1107 q 658 1154 656 1132 l 754 1154 q 708 1049 743 1085 q 621 1013 674 1013 z "},"ȁ":{"ha":771,"x_min":28,"x_max":704,"o":"m 264 -14 q 92 63 157 -14 q 28 264 28 139 q 75 474 28 374 q 207 637 122 575 q 397 699 292 699 q 556 621 507 699 l 581 685 l 704 685 l 622 206 q 617 151 617 176 q 631 110 617 121 q 683 100 644 100 l 647 -14 q 559 -8 590 -14 q 507 17 528 -3 q 474 79 486 38 q 264 -14 388 -14 m 311 107 q 419 144 371 107 q 493 247 467 182 q 519 392 519 313 q 483 530 519 483 q 383 576 447 576 q 277 537 325 576 q 202 431 229 497 q 175 289 175 365 q 209 157 175 207 q 311 107 243 107 m 328 807 l 225 1044 l 369 1044 l 426 807 l 328 807 m 525 807 l 431 1044 l 575 1044 l 622 807 l 525 807 z "},"ä":{"ha":771,"x_min":28,"x_max":704,"o":"m 264 -14 q 92 63 157 -14 q 28 264 28 139 q 75 474 28 374 q 207 637 122 575 q 397 699 292 699 q 556 621 507 699 l 581 685 l 704 685 l 622 206 q 617 151 617 176 q 631 110 617 121 q 683 100 644 100 l 647 -14 q 559 -8 590 -14 q 507 17 528 -3 q 474 79 486 38 q 264 -14 388 -14 m 311 107 q 419 144 371 107 q 493 247 467 182 q 519 392 519 313 q 483 530 519 483 q 383 576 447 576 q 277 537 325 576 q 202 431 229 497 q 175 289 175 365 q 209 157 175 207 q 311 107 243 107 m 308 936 l 429 936 l 406 821 l 285 821 l 308 936 m 572 936 l 693 936 l 669 821 l 549 821 l 572 936 z "},"ạ":{"ha":771,"x_min":28,"x_max":704,"o":"m 264 -14 q 92 63 157 -14 q 28 264 28 139 q 75 474 28 374 q 207 637 122 575 q 397 699 292 699 q 556 621 507 699 l 581 685 l 704 685 l 622 206 q 617 151 617 176 q 631 110 617 121 q 683 100 644 100 l 647 -14 q 559 -8 590 -14 q 507 17 528 -3 q 474 79 486 38 q 264 -14 388 -14 m 311 107 q 419 144 371 107 q 493 247 467 182 q 519 392 519 313 q 483 530 519 483 q 383 576 447 576 q 277 537 325 576 q 202 431 229 497 q 175 289 175 365 q 209 157 175 207 q 311 107 243 107 m 208 -112 l 340 -112 l 315 -240 l 183 -240 l 208 -112 z "},"à":{"ha":771,"x_min":28,"x_max":704,"o":"m 264 -14 q 92 63 157 -14 q 28 264 28 139 q 75 474 28 374 q 207 637 122 575 q 397 699 292 699 q 556 621 507 699 l 581 685 l 704 685 l 622 206 q 617 151 617 176 q 631 110 617 121 q 683 100 644 100 l 647 -14 q 559 -8 590 -14 q 507 17 528 -3 q 474 79 486 38 q 264 -14 388 -14 m 311 107 q 419 144 371 107 q 493 247 467 182 q 519 392 519 313 q 483 530 519 483 q 383 576 447 576 q 277 537 325 576 q 202 431 229 497 q 175 289 175 365 q 209 157 175 207 q 311 107 243 107 m 361 896 l 386 1040 l 613 890 l 596 797 l 361 896 z "},"ả":{"ha":771,"x_min":28,"x_max":704,"o":"m 264 -14 q 92 63 157 -14 q 28 264 28 139 q 75 474 28 374 q 207 637 122 575 q 397 699 292 699 q 556 621 507 699 l 581 685 l 704 685 l 622 206 q 617 151 617 176 q 631 110 617 121 q 683 100 644 100 l 647 -14 q 559 -8 590 -14 q 507 17 528 -3 q 474 79 486 38 q 264 -14 388 -14 m 311 107 q 419 144 371 107 q 493 247 467 182 q 519 392 519 313 q 483 530 519 483 q 383 576 447 576 q 277 537 325 576 q 202 431 229 497 q 175 289 175 365 q 209 157 175 207 q 311 107 243 107 m 442 781 q 503 835 485 814 q 522 883 522 857 q 510 911 522 901 q 475 921 497 921 q 385 896 440 921 l 375 969 q 490 996 431 996 q 575 971 543 996 q 607 901 607 946 q 575 811 607 850 q 482 733 543 772 l 442 781 z "},"ȃ":{"ha":771,"x_min":28,"x_max":704,"o":"m 264 -14 q 92 63 157 -14 q 28 264 28 139 q 75 474 28 374 q 207 637 122 575 q 397 699 292 699 q 556 621 507 699 l 581 685 l 704 685 l 622 206 q 617 151 617 176 q 631 110 617 121 q 683 100 644 100 l 647 -14 q 559 -8 590 -14 q 507 17 528 -3 q 474 79 486 38 q 264 -14 388 -14 m 311 107 q 419 144 371 107 q 493 247 467 182 q 519 392 519 313 q 483 530 519 483 q 383 576 447 576 q 277 537 325 576 q 202 431 229 497 q 175 289 175 365 q 209 157 175 207 q 311 107 243 107 m 501 988 q 634 946 589 988 q 679 838 679 904 q 676 806 679 828 l 565 806 q 567 824 567 813 q 545 874 567 857 q 488 892 524 892 q 416 869 446 892 q 379 806 386 847 l 264 806 q 341 935 278 882 q 501 988 404 988 z "},"ā":{"ha":771,"x_min":28,"x_max":718,"o":"m 264 -14 q 92 63 157 -14 q 28 264 28 139 q 75 474 28 374 q 207 637 122 575 q 397 699 292 699 q 556 621 507 699 l 581 685 l 704 685 l 622 206 q 617 151 617 176 q 631 110 617 121 q 683 100 644 100 l 647 -14 q 559 -8 590 -14 q 507 17 528 -3 q 474 79 486 38 q 264 -14 388 -14 m 311 107 q 419 144 371 107 q 493 247 467 182 q 519 392 519 313 q 483 530 519 483 q 383 576 447 576 q 277 537 325 576 q 202 431 229 497 q 175 289 175 365 q 209 157 175 207 q 311 107 243 107 m 281 928 l 718 928 l 697 825 l 261 825 l 281 928 z "},"ą":{"ha":771,"x_min":28,"x_max":704,"o":"m 617 151 q 631 110 617 121 q 683 100 644 100 l 647 -14 q 604 -12 618 -14 q 519 -87 550 -51 q 489 -162 489 -122 q 503 -202 489 -189 q 540 -215 517 -215 q 622 -193 578 -215 l 632 -264 q 517 -290 579 -290 q 433 -265 465 -290 q 400 -194 401 -240 q 441 -89 400 -140 q 540 -3 482 -37 q 499 25 515 6 q 474 79 483 44 q 264 -14 388 -14 q 92 63 157 -14 q 28 264 28 139 q 75 474 28 374 q 207 637 122 575 q 397 699 292 699 q 556 621 507 699 l 581 685 l 704 685 l 622 206 q 617 151 617 176 m 311 107 q 419 144 371 107 q 493 247 467 182 q 519 392 519 313 q 483 530 519 483 q 383 576 447 576 q 277 537 325 576 q 202 431 229 497 q 175 289 175 365 q 209 157 175 207 q 311 107 243 107 z "},"å":{"ha":771,"x_min":28,"x_max":704,"o":"m 264 -14 q 92 63 157 -14 q 28 264 28 139 q 75 474 28 374 q 207 637 122 575 q 397 699 292 699 q 556 621 507 699 l 581 685 l 704 685 l 622 206 q 617 151 617 176 q 631 110 617 121 q 683 100 644 100 l 647 -14 q 559 -8 590 -14 q 507 17 528 -3 q 474 79 486 38 q 264 -14 388 -14 m 311 107 q 419 144 371 107 q 493 247 467 182 q 519 392 519 313 q 483 530 519 483 q 383 576 447 576 q 277 537 325 576 q 202 431 229 497 q 175 289 175 365 q 209 157 175 207 q 311 107 243 107 m 471 790 q 383 821 414 790 q 351 899 351 851 q 402 1016 351 967 q 522 1065 453 1065 q 610 1035 579 1065 q 642 956 642 1004 q 592 838 642 886 q 471 790 543 790 m 482 854 q 541 880 517 854 q 565 942 565 906 q 550 984 565 968 q 511 1000 535 1000 q 453 974 478 1000 q 428 911 428 947 q 443 870 428 886 q 482 854 458 854 z "},"ǻ":{"ha":771,"x_min":28,"x_max":704,"o":"m 264 -14 q 92 63 157 -14 q 28 264 28 139 q 75 474 28 374 q 207 637 122 575 q 397 699 292 699 q 556 621 507 699 l 581 685 l 704 685 l 622 206 q 617 151 617 176 q 631 110 617 121 q 683 100 644 100 l 647 -14 q 559 -8 590 -14 q 507 17 528 -3 q 474 79 486 38 q 264 -14 388 -14 m 311 107 q 419 144 371 107 q 493 247 467 182 q 519 392 519 313 q 483 530 519 483 q 383 576 447 576 q 277 537 325 576 q 202 431 229 497 q 175 289 175 365 q 209 157 175 207 q 311 107 243 107 m 469 763 q 380 794 411 763 q 349 874 349 825 q 397 986 349 939 q 510 1033 444 1033 q 599 1002 568 1033 q 631 922 631 971 q 584 809 631 856 q 469 763 538 763 m 476 826 q 533 852 510 826 q 556 911 556 878 q 541 953 556 938 q 503 968 526 968 q 447 943 471 968 q 424 885 424 918 q 438 842 424 858 q 476 826 453 826 m 422 1171 l 671 1303 l 649 1157 l 410 1076 l 422 1171 z "},"ã":{"ha":771,"x_min":28,"x_max":729,"o":"m 264 -14 q 92 63 157 -14 q 28 264 28 139 q 75 474 28 374 q 207 637 122 575 q 397 699 292 699 q 556 621 507 699 l 581 685 l 704 685 l 622 206 q 617 151 617 176 q 631 110 617 121 q 683 100 644 100 l 647 -14 q 559 -8 590 -14 q 507 17 528 -3 q 474 79 486 38 q 264 -14 388 -14 m 311 107 q 419 144 371 107 q 493 247 467 182 q 519 392 519 313 q 483 530 519 483 q 383 576 447 576 q 277 537 325 576 q 202 431 229 497 q 175 289 175 365 q 209 157 175 207 q 311 107 243 107 m 589 804 q 547 813 568 804 q 492 836 525 821 q 410 865 436 865 q 354 815 365 865 l 251 815 q 304 934 267 893 q 397 975 342 975 q 441 967 419 975 q 492 943 463 958 q 536 922 518 929 q 572 914 554 914 q 625 968 615 914 l 729 968 q 678 844 713 883 q 589 804 643 804 z "},"æ":{"ha":1029,"x_min":-11,"x_max":996,"o":"m 163 -19 q 33 22 78 -19 q -11 133 -11 63 q 117 357 -11 293 q 408 429 246 421 q 388 543 408 511 q 304 575 368 575 q 224 565 264 575 q 129 531 183 554 l 136 642 q 365 699 258 699 q 535 546 528 699 q 637 659 567 619 q 790 699 707 699 q 940 639 885 699 q 996 472 996 579 q 989 403 996 435 q 967 331 982 372 l 551 331 q 549 271 549 286 q 595 144 553 188 q 704 100 638 100 q 901 153 789 100 l 894 40 q 674 -14 783 -14 q 443 135 482 -14 q 163 -19 336 -19 m 861 426 q 867 476 867 450 q 763 576 864 576 q 651 538 700 576 q 575 426 603 500 l 861 426 m 213 94 q 324 140 271 94 q 393 276 376 186 l 401 333 q 281 316 342 333 q 180 260 221 299 q 139 163 139 221 q 159 112 139 129 q 213 94 179 94 z "},"ǽ":{"ha":1029,"x_min":-11,"x_max":996,"o":"m 163 -19 q 33 22 78 -19 q -11 133 -11 63 q 117 357 -11 293 q 408 429 246 421 q 388 543 408 511 q 304 575 368 575 q 224 565 264 575 q 129 531 183 554 l 136 642 q 365 699 258 699 q 535 546 528 699 q 637 659 567 619 q 790 699 707 699 q 940 639 885 699 q 996 472 996 579 q 989 403 996 435 q 967 331 982 372 l 551 331 q 549 271 549 286 q 595 144 553 188 q 704 100 638 100 q 901 153 789 100 l 894 40 q 674 -14 783 -14 q 443 135 482 -14 q 163 -19 336 -19 m 861 426 q 867 476 867 450 q 763 576 864 576 q 651 538 700 576 q 575 426 603 500 l 861 426 m 213 94 q 324 140 271 94 q 393 276 376 186 l 401 333 q 281 316 342 333 q 180 260 221 299 q 139 163 139 221 q 159 112 139 129 q 213 94 179 94 m 496 897 l 758 1044 l 735 883 l 476 796 l 496 897 z "},"b":{"ha":740,"x_min":13,"x_max":690,"o":"m 356 -14 q 164 85 225 -14 l 140 0 l 13 0 l 196 1042 l 338 1042 l 263 617 q 451 699 339 699 q 628 616 565 699 q 690 408 690 533 q 646 189 690 285 q 525 40 601 93 q 356 -14 449 -14 m 343 107 q 447 145 401 107 q 517 249 492 183 q 543 394 543 315 q 510 527 543 478 q 411 576 478 576 q 304 539 353 576 q 228 435 256 501 q 200 286 200 369 q 238 151 200 196 q 343 107 275 107 z "},"c":{"ha":589,"x_min":29,"x_max":596,"o":"m 294 -14 q 94 67 160 -14 q 29 278 29 147 q 75 485 29 389 q 209 640 121 582 q 421 699 297 699 q 520 687 475 699 q 596 654 565 675 l 558 531 q 419 576 490 576 q 288 539 343 576 q 203 438 232 501 q 175 296 175 374 q 216 156 175 206 q 339 107 257 107 q 493 153 410 107 l 486 33 q 294 -14 407 -14 z "},"ć":{"ha":589,"x_min":29,"x_max":615,"o":"m 294 -14 q 94 67 160 -14 q 29 278 29 147 q 75 485 29 389 q 209 640 121 582 q 421 699 297 699 q 520 687 475 699 q 596 654 565 675 l 558 531 q 419 576 490 576 q 288 539 343 576 q 203 438 232 501 q 175 296 175 374 q 216 156 175 206 q 339 107 257 107 q 493 153 410 107 l 486 33 q 294 -14 407 -14 m 353 897 l 615 1044 l 592 883 l 333 796 l 353 897 z "},"č":{"ha":589,"x_min":29,"x_max":667,"o":"m 294 -14 q 94 67 160 -14 q 29 278 29 147 q 75 485 29 389 q 209 640 121 582 q 421 699 297 699 q 520 687 475 699 q 596 654 565 675 l 558 531 q 419 576 490 576 q 288 539 343 576 q 203 438 232 501 q 175 296 175 374 q 216 156 175 206 q 339 107 257 107 q 493 153 410 107 l 486 33 q 294 -14 407 -14 m 300 929 l 319 1022 l 475 910 l 667 1022 l 649 913 l 449 775 l 300 929 z "},"ç":{"ha":589,"x_min":29,"x_max":596,"o":"m 419 576 q 288 539 343 576 q 203 438 232 501 q 175 296 175 374 q 216 156 175 206 q 339 107 257 107 q 493 153 410 107 l 486 33 q 332 -12 422 -4 l 300 -75 l 310 -75 q 388 -100 360 -75 q 415 -169 415 -125 q 365 -278 415 -236 q 239 -319 315 -319 q 133 -293 178 -319 l 169 -221 q 254 -244 208 -244 q 310 -228 289 -244 q 331 -186 331 -211 q 268 -140 331 -140 q 201 -151 235 -140 l 260 -12 q 85 77 142 -1 q 29 278 29 156 q 75 485 29 389 q 209 640 121 582 q 421 699 297 699 q 520 687 475 699 q 596 654 565 675 l 558 531 q 419 576 490 576 z "},"ḉ":{"ha":589,"x_min":29,"x_max":615,"o":"m 592 883 l 333 796 l 353 897 l 615 1044 l 592 883 m 29 278 q 75 485 29 389 q 209 640 121 582 q 421 699 297 699 q 520 687 475 699 q 596 654 565 675 l 558 531 q 419 576 490 576 q 288 539 343 576 q 203 438 232 501 q 175 296 175 374 q 216 156 175 206 q 339 107 257 107 q 493 153 410 107 l 486 33 q 332 -12 422 -4 l 300 -75 l 310 -75 q 388 -100 360 -75 q 415 -169 415 -125 q 365 -278 415 -236 q 239 -319 315 -319 q 133 -293 178 -319 l 169 -221 q 254 -244 208 -244 q 310 -228 289 -244 q 331 -186 331 -211 q 268 -140 331 -140 q 201 -151 235 -140 l 260 -12 q 85 77 142 -1 q 29 278 29 156 z "},"ĉ":{"ha":589,"x_min":29,"x_max":647,"o":"m 294 -14 q 94 67 160 -14 q 29 278 29 147 q 75 485 29 389 q 209 640 121 582 q 421 699 297 699 q 520 687 475 699 q 596 654 565 675 l 558 531 q 419 576 490 576 q 288 539 343 576 q 203 438 232 501 q 175 296 175 374 q 216 156 175 206 q 339 107 257 107 q 493 153 410 107 l 486 33 q 294 -14 407 -14 m 319 890 l 499 1025 l 647 872 l 629 779 l 472 892 l 297 793 l 319 890 z "},"ċ":{"ha":589,"x_min":29,"x_max":596,"o":"m 294 -14 q 94 67 160 -14 q 29 278 29 147 q 75 485 29 389 q 209 640 121 582 q 421 699 297 699 q 520 687 475 699 q 596 654 565 675 l 558 531 q 419 576 490 576 q 288 539 343 576 q 203 438 232 501 q 175 296 175 374 q 216 156 175 206 q 339 107 257 107 q 493 153 410 107 l 486 33 q 294 -14 407 -14 m 418 954 l 550 954 l 525 826 l 393 826 l 418 954 z "},"d":{"ha":742,"x_min":28,"x_max":768,"o":"m 768 1042 l 585 0 l 454 0 l 463 82 q 261 -14 374 -14 q 138 24 190 -14 q 56 126 85 61 q 28 271 28 190 q 72 478 28 379 q 197 638 117 576 q 378 699 278 699 q 550 607 493 699 l 626 1042 l 768 1042 m 310 107 q 415 144 367 107 q 491 245 463 181 q 519 392 519 310 q 483 529 519 482 q 383 576 447 576 q 277 537 325 576 q 202 431 229 497 q 175 286 175 364 q 208 156 175 206 q 310 107 242 107 z "},"ð":{"ha":682,"x_min":10,"x_max":636,"o":"m 521 807 q 624 465 624 665 q 578 213 624 322 q 452 43 533 103 q 267 -17 371 -17 q 79 55 149 -17 q 10 239 10 126 q 50 414 10 333 q 163 543 90 494 q 326 592 235 592 q 426 569 386 592 q 490 511 467 546 q 419 764 490 654 l 251 692 l 213 774 l 360 836 q 254 908 317 876 l 301 974 q 457 878 392 939 l 599 939 l 636 856 l 521 807 m 281 107 q 367 134 326 107 q 431 210 407 161 q 456 324 456 260 q 425 430 456 390 q 338 469 394 469 q 243 440 285 469 q 178 363 201 411 q 156 257 156 314 q 188 149 156 190 q 281 107 221 107 z "},"ď":{"ha":810,"x_min":28,"x_max":953,"o":"m 768 1042 l 585 0 l 454 0 l 463 82 q 261 -14 374 -14 q 138 24 190 -14 q 56 126 85 61 q 28 271 28 190 q 72 478 28 379 q 197 638 117 576 q 378 699 278 699 q 550 607 493 699 l 626 1042 l 768 1042 m 310 107 q 415 144 367 107 q 491 245 463 181 q 519 392 519 310 q 483 529 519 482 q 383 576 447 576 q 277 537 325 576 q 202 431 229 497 q 175 286 175 364 q 208 156 175 206 q 310 107 242 107 m 822 1042 l 953 1042 l 871 806 l 779 806 l 822 1042 z "},"đ":{"ha":742,"x_min":28,"x_max":826,"o":"m 808 817 l 728 817 l 585 0 l 454 0 l 463 82 q 261 -14 374 -14 q 138 24 190 -14 q 56 126 85 61 q 28 271 28 190 q 72 478 28 379 q 197 638 117 576 q 378 699 278 699 q 550 607 493 699 l 588 817 l 413 817 l 431 914 l 604 914 l 626 1042 l 768 1042 l 746 914 l 826 914 l 808 817 m 310 107 q 415 144 367 107 q 491 245 463 181 q 519 392 519 310 q 483 529 519 482 q 383 576 447 576 q 277 537 325 576 q 202 431 229 497 q 175 286 175 364 q 208 156 175 206 q 310 107 242 107 z "},"ḍ":{"ha":742,"x_min":28,"x_max":768,"o":"m 768 1042 l 585 0 l 454 0 l 463 82 q 261 -14 374 -14 q 138 24 190 -14 q 56 126 85 61 q 28 271 28 190 q 72 478 28 379 q 197 638 117 576 q 378 699 278 699 q 550 607 493 699 l 626 1042 l 768 1042 m 310 107 q 415 144 367 107 q 491 245 463 181 q 519 392 519 310 q 483 529 519 482 q 383 576 447 576 q 277 537 325 576 q 202 431 229 497 q 175 286 175 364 q 208 156 175 206 q 310 107 242 107 m 288 -112 l 419 -112 l 394 -240 l 263 -240 l 288 -112 z "},"ḏ":{"ha":742,"x_min":28,"x_max":768,"o":"m 768 1042 l 585 0 l 454 0 l 463 82 q 261 -14 374 -14 q 138 24 190 -14 q 56 126 85 61 q 28 271 28 190 q 72 478 28 379 q 197 638 117 576 q 378 699 278 699 q 550 607 493 699 l 626 1042 l 768 1042 m 310 107 q 415 144 367 107 q 491 245 463 181 q 519 392 519 310 q 483 529 519 482 q 383 576 447 576 q 277 537 325 576 q 202 431 229 497 q 175 286 175 364 q 208 156 175 206 q 310 107 242 107 m 133 -126 l 571 -126 l 550 -229 l 114 -229 l 133 -126 z "},"ǆ":{"ha":1353,"x_min":28,"x_max":1369,"o":"m 768 1042 l 585 0 l 454 0 l 463 82 q 261 -14 374 -14 q 138 24 190 -14 q 56 126 85 61 q 28 271 28 190 q 72 478 28 379 q 197 638 117 576 q 378 699 278 699 q 550 607 493 699 l 626 1042 l 768 1042 m 310 107 q 415 144 367 107 q 491 245 463 181 q 519 392 519 310 q 483 529 519 482 q 383 576 447 576 q 277 537 325 576 q 202 431 229 497 q 175 286 175 364 q 208 156 175 206 q 310 107 242 107 m 1118 569 l 815 569 l 835 685 l 1369 685 l 954 115 l 1258 115 l 1238 0 l 701 0 l 1118 569 m 971 929 l 990 1022 l 1146 910 l 1338 1022 l 1319 913 l 1119 775 l 971 929 z "},"e":{"ha":650,"x_min":28,"x_max":617,"o":"m 315 -14 q 101 69 175 -14 q 28 282 28 151 q 76 486 28 390 q 210 640 124 582 q 406 699 296 699 q 562 649 507 699 q 617 515 617 599 q 535 351 617 415 q 294 286 453 286 q 178 297 229 286 q 349 107 182 107 q 449 119 397 107 q 546 153 501 131 l 536 39 q 315 -14 443 -14 m 278 381 q 442 417 393 381 q 492 503 492 453 q 463 559 492 542 q 394 576 435 576 q 274 527 326 576 q 192 392 221 478 q 278 381 231 381 z "},"é":{"ha":650,"x_min":28,"x_max":617,"o":"m 315 -14 q 101 69 175 -14 q 28 282 28 151 q 76 486 28 390 q 210 640 124 582 q 406 699 296 699 q 562 649 507 699 q 617 515 617 599 q 535 351 617 415 q 294 286 453 286 q 178 297 229 286 q 349 107 182 107 q 449 119 397 107 q 546 153 501 131 l 536 39 q 315 -14 443 -14 m 278 381 q 442 417 393 381 q 492 503 492 453 q 463 559 492 542 q 394 576 435 576 q 274 527 326 576 q 192 392 221 478 q 278 381 231 381 m 339 897 l 601 1044 l 578 883 l 319 796 l 339 897 z "},"ĕ":{"ha":650,"x_min":28,"x_max":683,"o":"m 315 -14 q 101 69 175 -14 q 28 282 28 151 q 76 486 28 390 q 210 640 124 582 q 406 699 296 699 q 562 649 507 699 q 617 515 617 599 q 535 351 617 415 q 294 286 453 286 q 178 297 229 286 q 349 107 182 107 q 449 119 397 107 q 546 153 501 131 l 536 39 q 315 -14 443 -14 m 278 381 q 442 417 393 381 q 492 503 492 453 q 463 559 492 542 q 394 576 435 576 q 274 527 326 576 q 192 392 221 478 q 278 381 231 381 m 450 806 q 319 846 365 806 q 274 950 274 886 q 278 988 274 969 l 388 988 q 383 964 383 978 q 404 917 383 933 q 460 901 425 901 q 529 924 500 901 q 565 988 558 946 l 683 988 q 608 856 668 906 q 450 806 547 806 z "},"ě":{"ha":650,"x_min":28,"x_max":653,"o":"m 315 -14 q 101 69 175 -14 q 28 282 28 151 q 76 486 28 390 q 210 640 124 582 q 406 699 296 699 q 562 649 507 699 q 617 515 617 599 q 535 351 617 415 q 294 286 453 286 q 178 297 229 286 q 349 107 182 107 q 449 119 397 107 q 546 153 501 131 l 536 39 q 315 -14 443 -14 m 278 381 q 442 417 393 381 q 492 503 492 453 q 463 559 492 542 q 394 576 435 576 q 274 527 326 576 q 192 392 221 478 q 278 381 231 381 m 286 929 l 306 1022 l 461 910 l 653 1022 l 635 913 l 435 775 l 286 929 z "},"ḝ":{"ha":650,"x_min":28,"x_max":683,"o":"m 683 988 q 608 856 668 906 q 450 806 547 806 q 319 846 365 806 q 274 950 274 886 q 278 988 274 969 l 388 988 q 383 964 383 978 q 404 917 383 933 q 460 901 425 901 q 529 924 500 901 q 565 988 558 946 l 683 988 m 406 699 q 562 649 507 699 q 617 515 617 599 q 535 351 617 415 q 294 286 453 286 q 178 297 229 286 q 349 107 182 107 q 449 119 397 107 q 546 153 501 131 l 536 39 q 367 -11 464 -3 l 335 -75 l 344 -75 q 422 -100 394 -75 q 450 -169 450 -125 q 400 -278 450 -236 q 274 -319 350 -319 q 168 -293 213 -319 l 204 -221 q 289 -244 243 -244 q 344 -228 324 -244 q 365 -186 365 -211 q 303 -140 365 -140 q 236 -151 269 -140 l 294 -14 q 96 74 164 -7 q 28 282 28 156 q 76 486 28 390 q 210 640 124 582 q 406 699 296 699 m 278 381 q 442 417 393 381 q 492 503 492 453 q 463 559 492 542 q 394 576 435 576 q 274 527 326 576 q 192 392 221 478 q 278 381 231 381 z "},"ê":{"ha":650,"x_min":28,"x_max":633,"o":"m 315 -14 q 101 69 175 -14 q 28 282 28 151 q 76 486 28 390 q 210 640 124 582 q 406 699 296 699 q 562 649 507 699 q 617 515 617 599 q 535 351 617 415 q 294 286 453 286 q 178 297 229 286 q 349 107 182 107 q 449 119 397 107 q 546 153 501 131 l 536 39 q 315 -14 443 -14 m 278 381 q 442 417 393 381 q 492 503 492 453 q 463 559 492 542 q 394 576 435 576 q 274 527 326 576 q 192 392 221 478 q 278 381 231 381 m 306 890 l 485 1025 l 633 872 l 615 779 l 458 892 l 283 793 l 306 890 z "},"ế":{"ha":650,"x_min":28,"x_max":806,"o":"m 315 -14 q 101 69 175 -14 q 28 282 28 151 q 76 486 28 390 q 210 640 124 582 q 406 699 296 699 q 562 649 507 699 q 617 515 617 599 q 535 351 617 415 q 294 286 453 286 q 178 297 229 286 q 349 107 182 107 q 449 119 397 107 q 546 153 501 131 l 536 39 q 315 -14 443 -14 m 278 381 q 442 417 393 381 q 492 503 492 453 q 463 559 492 542 q 394 576 435 576 q 274 527 326 576 q 192 392 221 478 q 278 381 231 381 m 663 1122 l 806 1122 l 649 965 l 553 965 l 663 1122 m 626 850 l 611 760 l 449 854 l 285 776 l 300 867 l 469 976 l 626 850 z "},"ệ":{"ha":650,"x_min":28,"x_max":633,"o":"m 315 -14 q 101 69 175 -14 q 28 282 28 151 q 76 486 28 390 q 210 640 124 582 q 406 699 296 699 q 562 649 507 699 q 617 515 617 599 q 535 351 617 415 q 294 286 453 286 q 178 297 229 286 q 349 107 182 107 q 449 119 397 107 q 546 153 501 131 l 536 39 q 315 -14 443 -14 m 278 381 q 442 417 393 381 q 492 503 492 453 q 463 559 492 542 q 394 576 435 576 q 274 527 326 576 q 192 392 221 478 q 278 381 231 381 m 306 890 l 485 1025 l 633 872 l 615 779 l 458 892 l 283 793 l 306 890 m 249 -112 l 381 -112 l 356 -240 l 224 -240 l 249 -112 z "},"ề":{"ha":650,"x_min":28,"x_max":649,"o":"m 315 -14 q 101 69 175 -14 q 28 282 28 151 q 76 486 28 390 q 210 640 124 582 q 406 699 296 699 q 562 649 507 699 q 617 515 617 599 q 535 351 617 415 q 294 286 453 286 q 178 297 229 286 q 349 107 182 107 q 449 119 397 107 q 546 153 501 131 l 536 39 q 315 -14 443 -14 m 278 381 q 442 417 393 381 q 492 503 492 453 q 463 559 492 542 q 394 576 435 576 q 274 527 326 576 q 192 392 221 478 q 278 381 231 381 m 554 965 l 465 1132 l 603 1132 l 649 965 l 554 965 m 626 850 l 611 760 l 449 854 l 285 776 l 300 867 l 469 976 l 626 850 z "},"ể":{"ha":650,"x_min":28,"x_max":718,"o":"m 315 -14 q 101 69 175 -14 q 28 282 28 151 q 76 486 28 390 q 210 640 124 582 q 406 699 296 699 q 562 649 507 699 q 617 515 617 599 q 535 351 617 415 q 294 286 453 286 q 178 297 229 286 q 349 107 182 107 q 449 119 397 107 q 546 153 501 131 l 536 39 q 315 -14 443 -14 m 278 381 q 442 417 393 381 q 492 503 492 453 q 463 559 492 542 q 394 576 435 576 q 274 527 326 576 q 192 392 221 478 q 278 381 231 381 m 625 846 l 610 756 l 447 850 l 283 772 l 299 863 l 468 972 l 625 846 m 574 982 q 632 1039 632 999 q 619 1067 632 1057 q 583 1076 607 1076 q 499 1051 551 1076 l 488 1128 q 601 1151 544 1151 q 685 1126 653 1151 q 718 1058 718 1101 q 681 972 718 1006 q 578 924 644 939 l 574 982 z "},"ễ":{"ha":650,"x_min":28,"x_max":721,"o":"m 315 -14 q 101 69 175 -14 q 28 282 28 151 q 76 486 28 390 q 210 640 124 582 q 406 699 296 699 q 562 649 507 699 q 617 515 617 599 q 535 351 617 415 q 294 286 453 286 q 178 297 229 286 q 349 107 182 107 q 449 119 397 107 q 546 153 501 131 l 536 39 q 315 -14 443 -14 m 278 381 q 442 417 393 381 q 492 503 492 453 q 463 559 492 542 q 394 576 435 576 q 274 527 326 576 q 192 392 221 478 q 278 381 231 381 m 625 846 l 610 756 l 447 850 l 283 772 l 299 863 l 468 972 l 625 846 m 588 1013 q 545 1019 567 1013 q 488 1042 524 1026 q 408 1065 432 1065 q 377 1054 390 1065 q 361 1019 364 1043 l 265 1019 q 312 1124 278 1088 q 397 1161 346 1161 q 438 1154 418 1161 q 496 1132 458 1147 q 539 1115 517 1122 q 578 1107 561 1107 q 610 1119 597 1107 q 625 1154 622 1132 l 721 1154 q 675 1049 710 1085 q 588 1013 640 1013 z "},"ȅ":{"ha":650,"x_min":28,"x_max":617,"o":"m 315 -14 q 101 69 175 -14 q 28 282 28 151 q 76 486 28 390 q 210 640 124 582 q 406 699 296 699 q 562 649 507 699 q 617 515 617 599 q 535 351 617 415 q 294 286 453 286 q 178 297 229 286 q 349 107 182 107 q 449 119 397 107 q 546 153 501 131 l 536 39 q 315 -14 443 -14 m 278 381 q 442 417 393 381 q 492 503 492 453 q 463 559 492 542 q 394 576 435 576 q 274 527 326 576 q 192 392 221 478 q 278 381 231 381 m 294 807 l 192 1044 l 336 1044 l 393 807 l 294 807 m 492 807 l 397 1044 l 542 1044 l 589 807 l 492 807 z "},"ë":{"ha":650,"x_min":28,"x_max":660,"o":"m 315 -14 q 101 69 175 -14 q 28 282 28 151 q 76 486 28 390 q 210 640 124 582 q 406 699 296 699 q 562 649 507 699 q 617 515 617 599 q 535 351 617 415 q 294 286 453 286 q 178 297 229 286 q 349 107 182 107 q 449 119 397 107 q 546 153 501 131 l 536 39 q 315 -14 443 -14 m 278 381 q 442 417 393 381 q 492 503 492 453 q 463 559 492 542 q 394 576 435 576 q 274 527 326 576 q 192 392 221 478 q 278 381 231 381 m 275 936 l 396 936 l 372 821 l 251 821 l 275 936 m 539 936 l 660 936 l 636 821 l 515 821 l 539 936 z "},"ė":{"ha":650,"x_min":28,"x_max":617,"o":"m 315 -14 q 101 69 175 -14 q 28 282 28 151 q 76 486 28 390 q 210 640 124 582 q 406 699 296 699 q 562 649 507 699 q 617 515 617 599 q 535 351 617 415 q 294 286 453 286 q 178 297 229 286 q 349 107 182 107 q 449 119 397 107 q 546 153 501 131 l 536 39 q 315 -14 443 -14 m 278 381 q 442 417 393 381 q 492 503 492 453 q 463 559 492 542 q 394 576 435 576 q 274 527 326 576 q 192 392 221 478 q 278 381 231 381 m 404 954 l 536 954 l 511 826 l 379 826 l 404 954 z "},"ẹ":{"ha":650,"x_min":28,"x_max":617,"o":"m 315 -14 q 101 69 175 -14 q 28 282 28 151 q 76 486 28 390 q 210 640 124 582 q 406 699 296 699 q 562 649 507 699 q 617 515 617 599 q 535 351 617 415 q 294 286 453 286 q 178 297 229 286 q 349 107 182 107 q 449 119 397 107 q 546 153 501 131 l 536 39 q 315 -14 443 -14 m 278 381 q 442 417 393 381 q 492 503 492 453 q 463 559 492 542 q 394 576 435 576 q 274 527 326 576 q 192 392 221 478 q 278 381 231 381 m 249 -112 l 381 -112 l 356 -240 l 224 -240 l 249 -112 z "},"è":{"ha":650,"x_min":28,"x_max":617,"o":"m 315 -14 q 101 69 175 -14 q 28 282 28 151 q 76 486 28 390 q 210 640 124 582 q 406 699 296 699 q 562 649 507 699 q 617 515 617 599 q 535 351 617 415 q 294 286 453 286 q 178 297 229 286 q 349 107 182 107 q 449 119 397 107 q 546 153 501 131 l 536 39 q 315 -14 443 -14 m 278 381 q 442 417 393 381 q 492 503 492 453 q 463 559 492 542 q 394 576 435 576 q 274 527 326 576 q 192 392 221 478 q 278 381 231 381 m 328 896 l 353 1040 l 579 890 l 563 797 l 328 896 z "},"ẻ":{"ha":650,"x_min":28,"x_max":617,"o":"m 315 -14 q 101 69 175 -14 q 28 282 28 151 q 76 486 28 390 q 210 640 124 582 q 406 699 296 699 q 562 649 507 699 q 617 515 617 599 q 535 351 617 415 q 294 286 453 286 q 178 297 229 286 q 349 107 182 107 q 449 119 397 107 q 546 153 501 131 l 536 39 q 315 -14 443 -14 m 278 381 q 442 417 393 381 q 492 503 492 453 q 463 559 492 542 q 394 576 435 576 q 274 527 326 576 q 192 392 221 478 q 278 381 231 381 m 408 781 q 470 835 451 814 q 489 883 489 857 q 476 911 489 901 q 442 921 464 921 q 351 896 407 921 l 342 969 q 457 996 397 996 q 542 971 510 996 q 574 901 574 946 q 542 811 574 850 q 449 733 510 772 l 408 781 z "},"ȇ":{"ha":650,"x_min":28,"x_max":646,"o":"m 315 -14 q 101 69 175 -14 q 28 282 28 151 q 76 486 28 390 q 210 640 124 582 q 406 699 296 699 q 562 649 507 699 q 617 515 617 599 q 535 351 617 415 q 294 286 453 286 q 178 297 229 286 q 349 107 182 107 q 449 119 397 107 q 546 153 501 131 l 536 39 q 315 -14 443 -14 m 278 381 q 442 417 393 381 q 492 503 492 453 q 463 559 492 542 q 394 576 435 576 q 274 527 326 576 q 192 392 221 478 q 278 381 231 381 m 468 988 q 601 946 556 988 q 646 838 646 904 q 643 806 646 828 l 532 806 q 533 824 533 813 q 512 874 533 857 q 454 892 490 892 q 383 869 413 892 q 346 806 353 847 l 231 806 q 308 935 244 882 q 468 988 371 988 z "},"ē":{"ha":650,"x_min":28,"x_max":685,"o":"m 315 -14 q 101 69 175 -14 q 28 282 28 151 q 76 486 28 390 q 210 640 124 582 q 406 699 296 699 q 562 649 507 699 q 617 515 617 599 q 535 351 617 415 q 294 286 453 286 q 178 297 229 286 q 349 107 182 107 q 449 119 397 107 q 546 153 501 131 l 536 39 q 315 -14 443 -14 m 278 381 q 442 417 393 381 q 492 503 492 453 q 463 559 492 542 q 394 576 435 576 q 274 527 326 576 q 192 392 221 478 q 278 381 231 381 m 247 928 l 685 928 l 664 825 l 228 825 l 247 928 z "},"ḗ":{"ha":650,"x_min":28,"x_max":678,"o":"m 315 -14 q 101 69 175 -14 q 28 282 28 151 q 76 486 28 390 q 210 640 124 582 q 406 699 296 699 q 562 649 507 699 q 617 515 617 599 q 535 351 617 415 q 294 286 453 286 q 178 297 229 286 q 349 107 182 107 q 449 119 397 107 q 546 153 501 131 l 536 39 q 315 -14 443 -14 m 278 381 q 442 417 393 381 q 492 503 492 453 q 463 559 492 542 q 394 576 435 576 q 274 527 326 576 q 192 392 221 478 q 278 381 231 381 m 238 913 l 678 913 l 661 814 l 219 814 l 238 913 m 383 1085 l 632 1217 l 610 1071 l 371 990 l 383 1085 z "},"ḕ":{"ha":650,"x_min":28,"x_max":678,"o":"m 315 -14 q 101 69 175 -14 q 28 282 28 151 q 76 486 28 390 q 210 640 124 582 q 406 699 296 699 q 562 649 507 699 q 617 515 617 599 q 535 351 617 415 q 294 286 453 286 q 178 297 229 286 q 349 107 182 107 q 449 119 397 107 q 546 153 501 131 l 536 39 q 315 -14 443 -14 m 278 381 q 442 417 393 381 q 492 503 492 453 q 463 559 492 542 q 394 576 435 576 q 274 527 326 576 q 192 392 221 478 q 278 381 231 381 m 238 913 l 678 913 l 661 814 l 219 814 l 238 913 m 371 1071 l 396 1208 l 622 1076 l 606 990 l 371 1071 z "},"ę":{"ha":650,"x_min":28,"x_max":617,"o":"m 617 515 q 535 351 617 415 q 294 286 453 286 q 178 297 229 286 q 349 107 182 107 q 449 119 397 107 q 546 153 501 131 l 536 39 l 538 39 q 439 -42 475 -4 q 403 -124 403 -81 q 417 -163 403 -150 q 454 -176 431 -176 q 536 -154 492 -176 l 546 -225 q 431 -251 493 -251 q 347 -226 379 -251 q 314 -156 315 -201 q 335 -78 314 -117 q 393 -8 357 -40 q 315 -14 360 -14 q 101 69 175 -14 q 28 282 28 151 q 76 486 28 390 q 210 640 124 582 q 406 699 296 699 q 562 649 507 699 q 617 515 617 599 m 192 392 q 278 381 231 381 q 442 417 393 381 q 492 503 492 453 q 463 559 492 542 q 394 576 435 576 q 274 527 326 576 q 192 392 221 478 z "},"ẽ":{"ha":650,"x_min":28,"x_max":696,"o":"m 315 -14 q 101 69 175 -14 q 28 282 28 151 q 76 486 28 390 q 210 640 124 582 q 406 699 296 699 q 562 649 507 699 q 617 515 617 599 q 535 351 617 415 q 294 286 453 286 q 178 297 229 286 q 349 107 182 107 q 449 119 397 107 q 546 153 501 131 l 536 39 q 315 -14 443 -14 m 278 381 q 442 417 393 381 q 492 503 492 453 q 463 559 492 542 q 394 576 435 576 q 274 527 326 576 q 192 392 221 478 q 278 381 231 381 m 556 804 q 513 813 535 804 q 458 836 492 821 q 376 865 403 865 q 321 815 332 865 l 218 815 q 271 934 233 893 q 364 975 308 975 q 408 967 386 975 q 458 943 429 958 q 503 922 485 929 q 539 914 521 914 q 592 968 582 914 l 696 968 q 644 844 679 883 q 556 804 610 804 z "},"f":{"ha":436,"x_min":47,"x_max":518,"o":"m 149 574 l 51 574 l 85 685 l 168 685 l 199 856 q 262 992 214 942 q 407 1042 310 1042 q 480 1035 447 1042 q 518 1026 513 1028 l 482 908 q 418 919 444 919 q 372 908 388 919 q 347 867 357 896 q 325 772 338 838 l 310 685 l 463 685 l 442 574 l 290 574 l 189 0 l 47 0 l 149 574 z "},"g":{"ha":650,"x_min":-60,"x_max":682,"o":"m 207 -347 q 54 -321 114 -347 q -33 -254 -6 -294 q -60 -169 -60 -214 q -26 -69 -60 -119 q 76 13 7 -19 q 43 49 54 28 q 32 90 32 69 q 54 149 32 118 q 118 201 76 179 q 67 285 83 238 q 50 382 50 332 q 88 537 50 464 q 197 654 126 610 q 360 699 268 699 q 504 651 449 699 q 570 677 531 667 q 653 688 610 688 l 682 688 l 654 596 l 607 596 q 556 589 588 596 q 578 472 578 540 q 540 320 578 393 q 431 202 501 247 q 271 157 361 157 q 194 168 232 157 q 168 129 168 151 q 202 95 168 107 q 329 65 236 83 q 490 12 425 49 q 554 -108 554 -25 q 512 -226 554 -171 q 390 -314 469 -281 q 207 -347 311 -347 m 288 264 q 404 324 360 264 q 449 464 449 383 q 421 557 449 525 q 340 589 393 589 q 224 531 268 589 q 181 392 181 474 q 208 297 181 331 q 288 264 236 264 m 221 -242 q 324 -226 278 -242 q 394 -184 369 -210 q 419 -129 419 -158 q 374 -69 419 -87 q 247 -36 329 -50 q 179 -22 200 -28 q 99 -73 132 -39 q 65 -147 65 -107 q 106 -215 65 -189 q 221 -242 147 -242 z "},"ğ":{"ha":650,"x_min":-60,"x_max":682,"o":"m 207 -347 q 54 -321 114 -347 q -33 -254 -6 -294 q -60 -169 -60 -214 q -26 -69 -60 -119 q 76 13 7 -19 q 43 49 54 28 q 32 90 32 69 q 54 149 32 118 q 118 201 76 179 q 67 285 83 238 q 50 382 50 332 q 88 537 50 464 q 197 654 126 610 q 360 699 268 699 q 504 651 449 699 q 570 677 531 667 q 653 688 610 688 l 682 688 l 654 596 l 607 596 q 556 589 588 596 q 578 472 578 540 q 540 320 578 393 q 431 202 501 247 q 271 157 361 157 q 194 168 232 157 q 168 129 168 151 q 202 95 168 107 q 329 65 236 83 q 490 12 425 49 q 554 -108 554 -25 q 512 -226 554 -171 q 390 -314 469 -281 q 207 -347 311 -347 m 288 264 q 404 324 360 264 q 449 464 449 383 q 421 557 449 525 q 340 589 393 589 q 224 531 268 589 q 181 392 181 474 q 208 297 181 331 q 288 264 236 264 m 221 -242 q 324 -226 278 -242 q 394 -184 369 -210 q 419 -129 419 -158 q 374 -69 419 -87 q 247 -36 329 -50 q 179 -22 200 -28 q 99 -73 132 -39 q 65 -147 65 -107 q 106 -215 65 -189 q 221 -242 147 -242 m 382 806 q 251 846 297 806 q 206 950 206 886 q 210 988 206 969 l 319 988 q 315 964 315 978 q 336 917 315 933 q 392 901 357 901 q 461 924 432 901 q 497 988 490 946 l 615 988 q 540 856 600 906 q 382 806 479 806 z "},"ǧ":{"ha":650,"x_min":-60,"x_max":682,"o":"m 207 -347 q 54 -321 114 -347 q -33 -254 -6 -294 q -60 -169 -60 -214 q -26 -69 -60 -119 q 76 13 7 -19 q 43 49 54 28 q 32 90 32 69 q 54 149 32 118 q 118 201 76 179 q 67 285 83 238 q 50 382 50 332 q 88 537 50 464 q 197 654 126 610 q 360 699 268 699 q 504 651 449 699 q 570 677 531 667 q 653 688 610 688 l 682 688 l 654 596 l 607 596 q 556 589 588 596 q 578 472 578 540 q 540 320 578 393 q 431 202 501 247 q 271 157 361 157 q 194 168 232 157 q 168 129 168 151 q 202 95 168 107 q 329 65 236 83 q 490 12 425 49 q 554 -108 554 -25 q 512 -226 554 -171 q 390 -314 469 -281 q 207 -347 311 -347 m 288 264 q 404 324 360 264 q 449 464 449 383 q 421 557 449 525 q 340 589 393 589 q 224 531 268 589 q 181 392 181 474 q 208 297 181 331 q 288 264 236 264 m 221 -242 q 324 -226 278 -242 q 394 -184 369 -210 q 419 -129 419 -158 q 374 -69 419 -87 q 247 -36 329 -50 q 179 -22 200 -28 q 99 -73 132 -39 q 65 -147 65 -107 q 106 -215 65 -189 q 221 -242 147 -242 m 218 929 l 238 1022 l 393 910 l 585 1022 l 567 913 l 367 775 l 218 929 z "},"ĝ":{"ha":650,"x_min":-60,"x_max":682,"o":"m 207 -347 q 54 -321 114 -347 q -33 -254 -6 -294 q -60 -169 -60 -214 q -26 -69 -60 -119 q 76 13 7 -19 q 43 49 54 28 q 32 90 32 69 q 54 149 32 118 q 118 201 76 179 q 67 285 83 238 q 50 382 50 332 q 88 537 50 464 q 197 654 126 610 q 360 699 268 699 q 504 651 449 699 q 570 677 531 667 q 653 688 610 688 l 682 688 l 654 596 l 607 596 q 556 589 588 596 q 578 472 578 540 q 540 320 578 393 q 431 202 501 247 q 271 157 361 157 q 194 168 232 157 q 168 129 168 151 q 202 95 168 107 q 329 65 236 83 q 490 12 425 49 q 554 -108 554 -25 q 512 -226 554 -171 q 390 -314 469 -281 q 207 -347 311 -347 m 288 264 q 404 324 360 264 q 449 464 449 383 q 421 557 449 525 q 340 589 393 589 q 224 531 268 589 q 181 392 181 474 q 208 297 181 331 q 288 264 236 264 m 221 -242 q 324 -226 278 -242 q 394 -184 369 -210 q 419 -129 419 -158 q 374 -69 419 -87 q 247 -36 329 -50 q 179 -22 200 -28 q 99 -73 132 -39 q 65 -147 65 -107 q 106 -215 65 -189 q 221 -242 147 -242 m 238 890 l 417 1025 l 565 872 l 547 779 l 390 892 l 215 793 l 238 890 z "},"ģ":{"ha":650,"x_min":-60,"x_max":682,"o":"m 207 -347 q 54 -321 114 -347 q -33 -254 -6 -294 q -60 -169 -60 -214 q -26 -69 -60 -119 q 76 13 7 -19 q 43 49 54 28 q 32 90 32 69 q 54 149 32 118 q 118 201 76 179 q 67 285 83 238 q 50 382 50 332 q 88 537 50 464 q 197 654 126 610 q 360 699 268 699 q 504 651 449 699 q 570 677 531 667 q 653 688 610 688 l 682 688 l 654 596 l 607 596 q 556 589 588 596 q 578 472 578 540 q 540 320 578 393 q 431 202 501 247 q 271 157 361 157 q 194 168 232 157 q 168 129 168 151 q 202 95 168 107 q 329 65 236 83 q 490 12 425 49 q 554 -108 554 -25 q 512 -226 554 -171 q 390 -314 469 -281 q 207 -347 311 -347 m 288 264 q 404 324 360 264 q 449 464 449 383 q 421 557 449 525 q 340 589 393 589 q 224 531 268 589 q 181 392 181 474 q 208 297 181 331 q 288 264 236 264 m 221 -242 q 324 -226 278 -242 q 394 -184 369 -210 q 419 -129 419 -158 q 374 -69 419 -87 q 247 -36 329 -50 q 179 -22 200 -28 q 99 -73 132 -39 q 65 -147 65 -107 q 106 -215 65 -189 q 221 -242 147 -242 z "},"ġ":{"ha":650,"x_min":-60,"x_max":682,"o":"m 207 -347 q 54 -321 114 -347 q -33 -254 -6 -294 q -60 -169 -60 -214 q -26 -69 -60 -119 q 76 13 7 -19 q 43 49 54 28 q 32 90 32 69 q 54 149 32 118 q 118 201 76 179 q 67 285 83 238 q 50 382 50 332 q 88 537 50 464 q 197 654 126 610 q 360 699 268 699 q 504 651 449 699 q 570 677 531 667 q 653 688 610 688 l 682 688 l 654 596 l 607 596 q 556 589 588 596 q 578 472 578 540 q 540 320 578 393 q 431 202 501 247 q 271 157 361 157 q 194 168 232 157 q 168 129 168 151 q 202 95 168 107 q 329 65 236 83 q 490 12 425 49 q 554 -108 554 -25 q 512 -226 554 -171 q 390 -314 469 -281 q 207 -347 311 -347 m 288 264 q 404 324 360 264 q 449 464 449 383 q 421 557 449 525 q 340 589 393 589 q 224 531 268 589 q 181 392 181 474 q 208 297 181 331 q 288 264 236 264 m 221 -242 q 324 -226 278 -242 q 394 -184 369 -210 q 419 -129 419 -158 q 374 -69 419 -87 q 247 -36 329 -50 q 179 -22 200 -28 q 99 -73 132 -39 q 65 -147 65 -107 q 106 -215 65 -189 q 221 -242 147 -242 m 336 954 l 468 954 l 443 826 l 311 826 l 336 954 z "},"ḡ":{"ha":650,"x_min":-60,"x_max":682,"o":"m 207 -347 q 54 -321 114 -347 q -33 -254 -6 -294 q -60 -169 -60 -214 q -26 -69 -60 -119 q 76 13 7 -19 q 43 49 54 28 q 32 90 32 69 q 54 149 32 118 q 118 201 76 179 q 67 285 83 238 q 50 382 50 332 q 88 537 50 464 q 197 654 126 610 q 360 699 268 699 q 504 651 449 699 q 570 677 531 667 q 653 688 610 688 l 682 688 l 654 596 l 607 596 q 556 589 588 596 q 578 472 578 540 q 540 320 578 393 q 431 202 501 247 q 271 157 361 157 q 194 168 232 157 q 168 129 168 151 q 202 95 168 107 q 329 65 236 83 q 490 12 425 49 q 554 -108 554 -25 q 512 -226 554 -171 q 390 -314 469 -281 q 207 -347 311 -347 m 288 264 q 404 324 360 264 q 449 464 449 383 q 421 557 449 525 q 340 589 393 589 q 224 531 268 589 q 181 392 181 474 q 208 297 181 331 q 288 264 236 264 m 221 -242 q 324 -226 278 -242 q 394 -184 369 -210 q 419 -129 419 -158 q 374 -69 419 -87 q 247 -36 329 -50 q 179 -22 200 -28 q 99 -73 132 -39 q 65 -147 65 -107 q 106 -215 65 -189 q 221 -242 147 -242 m 179 928 l 617 928 l 596 825 l 160 825 l 179 928 z "},"h":{"ha":718,"x_min":13,"x_max":644,"o":"m 196 1042 l 339 1042 l 263 615 q 353 679 307 660 q 456 699 400 699 q 596 640 547 699 q 644 489 644 581 q 629 351 644 438 l 569 0 l 428 0 l 486 340 q 500 467 500 426 q 473 547 500 518 q 397 576 446 576 q 315 556 351 576 q 242 497 278 536 l 154 0 l 13 0 l 196 1042 z "},"ħ":{"ha":718,"x_min":-46,"x_max":644,"o":"m 456 699 q 596 640 547 699 q 644 489 644 581 q 629 351 644 438 l 569 0 l 428 0 l 486 340 q 500 467 500 426 q 473 547 500 518 q 397 576 446 576 q 315 556 351 576 q 242 497 278 536 l 154 0 l 13 0 l 157 822 l -46 822 l -28 919 l 175 919 l 196 1042 l 339 1042 l 317 919 l 368 919 l 350 822 l 300 822 l 263 615 q 353 679 307 660 q 456 699 400 699 z "},"ḫ":{"ha":718,"x_min":13,"x_max":644,"o":"m 196 1042 l 339 1042 l 263 615 q 353 679 307 660 q 456 699 400 699 q 596 640 547 699 q 644 489 644 581 q 629 351 644 438 l 569 0 l 428 0 l 486 340 q 500 467 500 426 q 473 547 500 518 q 397 576 446 576 q 315 556 351 576 q 242 497 278 536 l 154 0 l 13 0 l 196 1042 m 242 -308 q 111 -268 157 -308 q 65 -164 65 -228 q 69 -126 65 -146 l 179 -126 q 175 -150 175 -137 q 196 -197 175 -181 q 251 -212 217 -212 q 321 -190 292 -212 q 357 -126 350 -168 l 475 -126 q 399 -258 460 -208 q 242 -308 339 -308 z "},"ĥ":{"ha":718,"x_min":13,"x_max":644,"o":"m 196 1042 l 339 1042 l 263 615 q 353 679 307 660 q 456 699 400 699 q 596 640 547 699 q 644 489 644 581 q 629 351 644 438 l 569 0 l 428 0 l 486 340 q 500 467 500 426 q 473 547 500 518 q 397 576 446 576 q 315 556 351 576 q 242 497 278 536 l 154 0 l 13 0 l 196 1042 m 474 1203 l 458 1113 l 296 1207 l 132 1129 l 147 1219 l 317 1329 l 474 1203 z "},"ḥ":{"ha":718,"x_min":13,"x_max":644,"o":"m 196 1042 l 339 1042 l 263 615 q 353 679 307 660 q 456 699 400 699 q 596 640 547 699 q 644 489 644 581 q 629 351 644 438 l 569 0 l 428 0 l 486 340 q 500 467 500 426 q 473 547 500 518 q 397 576 446 576 q 315 556 351 576 q 242 497 278 536 l 154 0 l 13 0 l 196 1042 m 207 -112 l 339 -112 l 314 -240 l 182 -240 l 207 -112 z "},"i":{"ha":310,"x_min":13,"x_max":325,"o":"m 183 972 l 325 972 l 300 822 l 158 822 l 183 972 m 133 685 l 275 685 l 154 0 l 13 0 l 133 685 z "},"ı":{"ha":310,"x_min":13,"x_max":275,"o":"m 133 685 l 275 685 l 154 0 l 13 0 l 133 685 z "},"í":{"ha":310,"x_min":13,"x_max":388,"o":"m 133 685 l 275 685 l 154 0 l 13 0 l 133 685 m 125 897 l 388 1044 l 364 883 l 106 796 l 125 897 z "},"ĭ":{"ha":310,"x_min":13,"x_max":469,"o":"m 133 685 l 275 685 l 154 0 l 13 0 l 133 685 m 236 806 q 106 846 151 806 q 60 950 60 886 q 64 988 60 969 l 174 988 q 169 964 169 978 q 190 917 169 933 q 246 901 211 901 q 315 924 286 901 q 351 988 344 946 l 469 988 q 394 856 454 906 q 236 806 333 806 z "},"î":{"ha":310,"x_min":13,"x_max":419,"o":"m 133 685 l 275 685 l 154 0 l 13 0 l 133 685 m 92 890 l 271 1025 l 419 872 l 401 779 l 244 892 l 69 793 l 92 890 z "},"ȉ":{"ha":310,"x_min":-22,"x_max":375,"o":"m 133 685 l 275 685 l 154 0 l 13 0 l 133 685 m 81 807 l -22 1044 l 122 1044 l 179 807 l 81 807 m 278 807 l 183 1044 l 328 1044 l 375 807 l 278 807 z "},"ï":{"ha":310,"x_min":13,"x_max":446,"o":"m 133 685 l 275 685 l 154 0 l 13 0 l 133 685 m 61 936 l 182 936 l 158 821 l 38 821 l 61 936 m 325 936 l 446 936 l 422 821 l 301 821 l 325 936 z "},"ḯ":{"ha":310,"x_min":13,"x_max":438,"o":"m 133 685 l 275 685 l 154 0 l 13 0 l 133 685 m 56 919 l 176 919 l 156 811 l 35 811 l 56 919 m 317 919 l 438 919 l 417 811 l 296 811 l 317 919 m 160 1083 l 408 1215 l 386 1069 l 147 989 l 160 1083 z "},"ị":{"ha":310,"x_min":-25,"x_max":325,"o":"m 183 972 l 325 972 l 300 822 l 158 822 l 183 972 m 133 685 l 275 685 l 154 0 l 13 0 l 133 685 m 0 -112 l 132 -112 l 107 -240 l -25 -240 l 0 -112 z "},"ì":{"ha":310,"x_min":13,"x_max":365,"o":"m 133 685 l 275 685 l 154 0 l 13 0 l 133 685 m 114 896 l 139 1040 l 365 890 l 349 797 l 114 896 z "},"ỉ":{"ha":310,"x_min":13,"x_max":360,"o":"m 133 685 l 275 685 l 154 0 l 13 0 l 133 685 m 194 781 q 256 835 238 814 q 275 883 275 857 q 263 911 275 901 q 228 921 250 921 q 138 896 193 921 l 128 969 q 243 996 183 996 q 328 971 296 996 q 360 901 360 946 q 328 811 360 850 q 235 733 296 772 l 194 781 z "},"ȋ":{"ha":310,"x_min":13,"x_max":432,"o":"m 133 685 l 275 685 l 154 0 l 13 0 l 133 685 m 254 988 q 387 946 342 988 q 432 838 432 904 q 429 806 432 828 l 318 806 q 319 824 319 813 q 298 874 319 857 q 240 892 276 892 q 169 869 199 892 q 132 806 139 847 l 17 806 q 94 935 31 882 q 254 988 157 988 z "},"ĳ":{"ha":621,"x_min":13,"x_max":636,"o":"m 183 972 l 325 972 l 300 822 l 158 822 l 183 972 m 133 685 l 275 685 l 154 0 l 13 0 l 133 685 m 494 972 l 636 972 l 610 822 l 468 822 l 494 972 m 200 -225 q 256 -212 238 -222 q 285 -177 274 -203 q 306 -96 296 -151 l 443 685 l 585 685 l 438 -150 q 372 -281 422 -236 q 244 -332 321 -325 l 194 -336 l 200 -225 z "},"ī":{"ha":310,"x_min":13,"x_max":471,"o":"m 133 685 l 275 685 l 154 0 l 13 0 l 133 685 m 33 928 l 471 928 l 450 825 l 14 825 l 33 928 z "},"į":{"ha":310,"x_min":-68,"x_max":322,"o":"m 133 685 l 275 685 l 154 0 l 13 0 l 133 685 m 190 954 l 322 954 l 297 826 l 165 826 l 190 954 m 156 0 q 57 -81 93 -43 q 21 -162 21 -119 q 34 -202 21 -189 q 72 -215 47 -215 q 154 -193 110 -215 l 164 -264 q 49 -290 111 -290 q -35 -265 -3 -290 q -68 -194 -67 -240 q -25 -86 -68 -139 q 78 0 18 -33 l 156 0 z "},"ĩ":{"ha":310,"x_min":4,"x_max":482,"o":"m 133 685 l 275 685 l 154 0 l 13 0 l 133 685 m 342 804 q 299 813 321 804 q 244 836 278 821 q 163 865 189 865 q 107 815 118 865 l 4 815 q 57 934 19 893 q 150 975 94 975 q 194 967 172 975 q 244 943 215 958 q 289 922 271 929 q 325 914 307 914 q 378 968 368 914 l 482 968 q 431 844 465 883 q 342 804 396 804 z "},"j":{"ha":311,"x_min":-115,"x_max":326,"o":"m 185 972 l 326 972 l 300 822 l 158 822 l 185 972 m -110 -225 q -54 -212 -72 -222 q -25 -177 -36 -203 q -4 -96 -14 -151 l 133 685 l 275 685 l 128 -150 q 62 -281 113 -236 q -65 -332 11 -325 l -115 -336 l -110 -225 z "},"ȷ":{"ha":311,"x_min":-115,"x_max":275,"o":"m -110 -225 q -54 -212 -72 -222 q -25 -178 -36 -203 q -4 -96 -14 -153 l 133 685 l 275 685 l 128 -150 q 62 -281 113 -236 q -65 -332 11 -325 l -115 -336 l -110 -225 z "},"ĵ":{"ha":311,"x_min":-115,"x_max":419,"o":"m -110 -225 q -54 -212 -72 -222 q -25 -178 -36 -203 q -4 -96 -14 -153 l 133 685 l 275 685 l 128 -150 q 62 -281 113 -236 q -65 -332 11 -325 l -115 -336 l -110 -225 m 92 890 l 271 1025 l 419 872 l 401 779 l 244 892 l 69 793 l 92 890 z "},"k":{"ha":618,"x_min":13,"x_max":653,"o":"m 196 1042 l 338 1042 l 222 386 l 489 685 l 653 685 l 353 365 l 533 0 l 371 0 l 213 333 l 154 0 l 13 0 l 196 1042 z "},"ķ":{"ha":618,"x_min":13,"x_max":653,"o":"m 196 1042 l 338 1042 l 222 386 l 489 685 l 653 685 l 353 365 l 533 0 l 371 0 l 213 333 l 154 0 l 13 0 l 196 1042 m 142 -371 l 206 -251 l 154 -251 l 176 -126 l 314 -126 l 292 -251 l 196 -371 l 142 -371 z "},"ĸ":{"ha":656,"x_min":13,"x_max":697,"o":"m 132 685 l 275 685 l 222 390 l 524 685 l 697 685 l 350 358 l 574 0 l 413 0 l 214 339 l 154 0 l 13 0 l 132 685 z "},"l":{"ha":339,"x_min":33,"x_max":335,"o":"m 169 -14 q 67 21 100 -14 q 33 111 33 56 q 40 171 33 131 q 49 225 46 211 l 193 1042 l 335 1042 l 189 211 q 182 151 182 167 q 198 110 182 119 q 256 100 214 100 l 219 -14 l 169 -14 z "},"ĺ":{"ha":339,"x_min":33,"x_max":429,"o":"m 169 -14 q 67 21 100 -14 q 33 111 33 56 q 40 171 33 131 q 49 225 46 211 l 193 1042 l 335 1042 l 189 211 q 182 151 182 167 q 198 110 182 119 q 256 100 214 100 l 219 -14 l 169 -14 m 181 1222 l 429 1354 l 407 1208 l 168 1128 l 181 1222 z "},"ľ":{"ha":372,"x_min":33,"x_max":518,"o":"m 169 -14 q 67 21 100 -14 q 33 111 33 56 q 40 171 33 131 q 49 225 46 211 l 193 1042 l 335 1042 l 189 211 q 182 151 182 167 q 198 110 182 119 q 256 100 214 100 l 219 -14 l 169 -14 m 388 1042 l 518 1042 l 436 806 l 344 806 l 388 1042 z "},"ļ":{"ha":339,"x_min":33,"x_max":335,"o":"m 169 -14 q 67 21 100 -14 q 33 111 33 56 q 40 171 33 131 q 49 225 46 211 l 193 1042 l 335 1042 l 189 211 q 182 151 182 167 q 198 110 182 119 q 256 100 214 100 l 219 -14 l 169 -14 m 39 -371 l 103 -251 l 51 -251 l 74 -126 l 211 -126 l 189 -251 l 93 -371 l 39 -371 z "},"ŀ":{"ha":414,"x_min":33,"x_max":465,"o":"m 169 -14 q 67 21 100 -14 q 33 111 33 56 q 40 171 33 131 q 49 225 46 211 l 193 1042 l 335 1042 l 189 211 q 182 151 182 167 q 198 110 182 119 q 256 100 214 100 l 219 -14 l 169 -14 m 339 646 l 465 646 l 440 507 l 314 507 l 339 646 z "},"ḷ":{"ha":339,"x_min":33,"x_max":335,"o":"m 169 -14 q 67 21 100 -14 q 33 111 33 56 q 40 171 33 131 q 49 225 46 211 l 193 1042 l 335 1042 l 189 211 q 182 151 182 167 q 198 110 182 119 q 256 100 214 100 l 219 -14 l 169 -14 m 76 -112 l 208 -112 l 183 -240 l 51 -240 l 76 -112 z "},"ǉ":{"ha":650,"x_min":33,"x_max":665,"o":"m 169 -14 q 67 21 100 -14 q 33 111 33 56 q 40 171 33 131 q 49 225 46 211 l 193 1042 l 335 1042 l 189 211 q 182 151 182 167 q 198 110 182 119 q 256 100 214 100 l 219 -14 l 169 -14 m 524 972 l 665 972 l 639 822 l 497 822 l 524 972 m 229 -225 q 285 -212 267 -222 q 314 -177 303 -203 q 335 -96 325 -151 l 472 685 l 614 685 l 467 -150 q 401 -281 451 -236 q 274 -332 350 -325 l 224 -336 l 229 -225 z "},"ḻ":{"ha":339,"x_min":-97,"x_max":360,"o":"m 169 -14 q 67 21 100 -14 q 33 111 33 56 q 40 171 33 131 q 49 225 46 211 l 193 1042 l 335 1042 l 189 211 q 182 151 182 167 q 198 110 182 119 q 256 100 214 100 l 219 -14 l 169 -14 m -78 -126 l 360 -126 l 339 -229 l -97 -229 l -78 -126 z "},"ł":{"ha":339,"x_min":-1,"x_max":390,"o":"m 189 211 q 182 151 182 167 q 198 110 182 119 q 256 100 214 100 l 219 -14 l 169 -14 q 67 21 100 -14 q 33 111 33 56 q 40 171 33 131 q 49 225 46 211 l 100 519 l -1 481 l 18 585 l 119 622 l 193 1042 l 335 1042 l 271 681 l 390 725 l 372 621 l 253 576 l 189 211 z "},"m":{"ha":1129,"x_min":13,"x_max":1058,"o":"m 133 685 l 247 685 l 247 619 q 336 680 290 661 q 433 699 382 699 q 614 572 572 699 q 709 664 647 629 q 854 699 771 699 q 1007 645 956 699 q 1058 492 1058 592 q 1042 358 1058 465 q 981 0 1025 251 l 839 0 q 899 346 882 246 q 915 465 915 446 q 890 551 915 525 q 811 576 864 576 q 690 526 729 576 q 639 406 651 476 l 567 0 l 426 0 q 485 340 468 238 q 501 464 501 443 q 473 551 501 526 q 394 576 444 576 q 243 499 299 576 l 154 0 l 13 0 l 133 685 z "},"ṃ":{"ha":1129,"x_min":13,"x_max":1058,"o":"m 133 685 l 247 685 l 247 619 q 336 680 290 661 q 433 699 382 699 q 614 572 572 699 q 709 664 647 629 q 854 699 771 699 q 1007 645 956 699 q 1058 492 1058 592 q 1042 358 1058 465 q 981 0 1025 251 l 839 0 q 899 346 882 246 q 915 465 915 446 q 890 551 915 525 q 811 576 864 576 q 690 526 729 576 q 639 406 651 476 l 567 0 l 426 0 q 485 340 468 238 q 501 464 501 443 q 473 551 501 526 q 394 576 444 576 q 243 499 299 576 l 154 0 l 13 0 l 133 685 m 413 -112 l 544 -112 l 519 -240 l 388 -240 l 413 -112 z "},"n":{"ha":725,"x_min":13,"x_max":653,"o":"m 133 685 l 254 685 l 254 624 q 347 681 300 664 q 447 699 393 699 q 603 640 553 699 q 653 475 653 582 q 640 365 653 449 q 576 0 626 282 l 435 0 q 492 338 476 240 q 508 456 508 436 q 482 547 508 518 q 397 576 456 576 q 242 497 300 576 l 154 0 l 13 0 l 133 685 z "},"ń":{"ha":725,"x_min":13,"x_max":653,"o":"m 133 685 l 254 685 l 254 624 q 347 681 300 664 q 447 699 393 699 q 603 640 553 699 q 653 475 653 582 q 640 365 653 449 q 576 0 626 282 l 435 0 q 492 338 476 240 q 508 456 508 436 q 482 547 508 518 q 397 576 456 576 q 242 497 300 576 l 154 0 l 13 0 l 133 685 m 343 893 l 606 1040 l 582 879 l 324 792 l 343 893 z "},"ŉ":{"ha":833,"x_min":13,"x_max":653,"o":"m 50 728 l 114 847 l 63 847 l 85 972 l 222 972 l 200 847 l 104 728 l 50 728 m 133 685 l 254 685 l 254 624 q 347 681 300 664 q 447 699 393 699 q 603 640 553 699 q 653 475 653 582 q 640 365 653 449 q 576 0 626 282 l 435 0 q 492 338 476 240 q 508 456 508 436 q 482 547 508 518 q 397 576 456 576 q 242 497 300 576 l 154 0 l 13 0 l 133 685 z "},"ň":{"ha":725,"x_min":13,"x_max":657,"o":"m 133 685 l 254 685 l 254 624 q 347 681 300 664 q 447 699 393 699 q 603 640 553 699 q 653 475 653 582 q 640 365 653 449 q 576 0 626 282 l 435 0 q 492 338 476 240 q 508 456 508 436 q 482 547 508 518 q 397 576 456 576 q 242 497 300 576 l 154 0 l 13 0 l 133 685 m 290 925 l 310 1018 l 465 906 l 657 1018 l 639 908 l 439 771 l 290 925 z "},"ņ":{"ha":725,"x_min":13,"x_max":653,"o":"m 133 685 l 254 685 l 254 624 q 347 681 300 664 q 447 699 393 699 q 603 640 553 699 q 653 475 653 582 q 640 365 653 449 q 576 0 626 282 l 435 0 q 492 338 476 240 q 508 456 508 436 q 482 547 508 518 q 397 576 456 576 q 242 497 300 576 l 154 0 l 13 0 l 133 685 m 174 -371 l 238 -251 l 186 -251 l 208 -126 l 346 -126 l 324 -251 l 228 -371 l 174 -371 z "},"ṅ":{"ha":725,"x_min":13,"x_max":653,"o":"m 133 685 l 254 685 l 254 624 q 347 681 300 664 q 447 699 393 699 q 603 640 553 699 q 653 475 653 582 q 640 365 653 449 q 576 0 626 282 l 435 0 q 492 338 476 240 q 508 456 508 436 q 482 547 508 518 q 397 576 456 576 q 242 497 300 576 l 154 0 l 13 0 l 133 685 m 408 950 l 540 950 l 515 822 l 383 822 l 408 950 z "},"ṇ":{"ha":725,"x_min":13,"x_max":653,"o":"m 133 685 l 254 685 l 254 624 q 347 681 300 664 q 447 699 393 699 q 603 640 553 699 q 653 475 653 582 q 640 365 653 449 q 576 0 626 282 l 435 0 q 492 338 476 240 q 508 456 508 436 q 482 547 508 518 q 397 576 456 576 q 242 497 300 576 l 154 0 l 13 0 l 133 685 m 211 -112 l 343 -112 l 318 -240 l 186 -240 l 211 -112 z "},"ŋ":{"ha":792,"x_min":43,"x_max":688,"o":"m 615 21 q 515 -181 592 -112 q 322 -249 439 -249 q 186 -225 250 -249 l 225 -107 q 324 -128 281 -128 q 422 -91 383 -128 q 474 17 461 -54 l 536 375 q 544 450 544 417 q 518 546 544 515 q 433 576 492 576 q 343 557 385 576 q 272 500 301 538 l 185 0 l 43 0 l 164 685 l 283 685 l 282 621 q 488 699 376 699 q 638 640 589 699 q 688 475 688 581 q 678 379 688 438 l 615 21 z "},"ǌ":{"ha":1036,"x_min":13,"x_max":1051,"o":"m 133 685 l 254 685 l 254 624 q 347 681 300 664 q 447 699 393 699 q 603 640 553 699 q 653 475 653 582 q 640 365 653 449 q 576 0 626 282 l 435 0 q 492 338 476 240 q 508 456 508 436 q 482 547 508 518 q 397 576 456 576 q 242 497 300 576 l 154 0 l 13 0 l 133 685 m 910 972 l 1051 972 l 1025 822 l 883 822 l 910 972 m 615 -225 q 671 -212 653 -222 q 700 -177 689 -203 q 721 -96 711 -151 l 858 685 l 1000 685 l 853 -150 q 787 -281 838 -236 q 660 -332 736 -325 l 610 -336 l 615 -225 z "},"ṉ":{"ha":725,"x_min":13,"x_max":653,"o":"m 133 685 l 254 685 l 254 624 q 347 681 300 664 q 447 699 393 699 q 603 640 553 699 q 653 475 653 582 q 640 365 653 449 q 576 0 626 282 l 435 0 q 492 338 476 240 q 508 456 508 436 q 482 547 508 518 q 397 576 456 576 q 242 497 300 576 l 154 0 l 13 0 l 133 685 m 57 -126 l 494 -126 l 474 -229 l 38 -229 l 57 -126 z "},"ñ":{"ha":725,"x_min":13,"x_max":700,"o":"m 133 685 l 254 685 l 254 624 q 347 681 300 664 q 447 699 393 699 q 603 640 553 699 q 653 475 653 582 q 640 365 653 449 q 576 0 626 282 l 435 0 q 492 338 476 240 q 508 456 508 436 q 482 547 508 518 q 397 576 456 576 q 242 497 300 576 l 154 0 l 13 0 l 133 685 m 560 800 q 517 808 539 800 q 463 832 496 817 q 381 861 407 861 q 325 811 336 861 l 222 811 q 275 930 238 889 q 368 971 313 971 q 412 963 390 971 q 463 939 433 954 q 507 917 489 925 q 543 910 525 910 q 596 964 586 910 l 700 964 q 649 840 683 879 q 560 800 614 800 z "},"o":{"ha":731,"x_min":28,"x_max":679,"o":"m 294 -14 q 96 67 164 -14 q 28 278 28 149 q 77 485 28 388 q 215 640 126 582 q 411 699 303 699 q 610 617 542 699 q 679 406 679 535 q 629 199 679 296 q 492 44 579 103 q 294 -14 404 -14 m 314 107 q 429 146 379 107 q 506 251 479 185 q 533 396 533 317 q 497 531 533 485 q 392 576 461 576 q 278 538 328 576 q 200 434 228 500 q 172 289 172 368 q 208 153 172 200 q 314 107 243 107 z "},"ó":{"ha":731,"x_min":28,"x_max":679,"o":"m 294 -14 q 96 67 164 -14 q 28 278 28 149 q 77 485 28 388 q 215 640 126 582 q 411 699 303 699 q 610 617 542 699 q 679 406 679 535 q 629 199 679 296 q 492 44 579 103 q 294 -14 404 -14 m 314 107 q 429 146 379 107 q 506 251 479 185 q 533 396 533 317 q 497 531 533 485 q 392 576 461 576 q 278 538 328 576 q 200 434 228 500 q 172 289 172 368 q 208 153 172 200 q 314 107 243 107 m 339 897 l 601 1044 l 578 883 l 319 796 l 339 897 z "},"ŏ":{"ha":731,"x_min":28,"x_max":683,"o":"m 294 -14 q 96 67 164 -14 q 28 278 28 149 q 77 485 28 388 q 215 640 126 582 q 411 699 303 699 q 610 617 542 699 q 679 406 679 535 q 629 199 679 296 q 492 44 579 103 q 294 -14 404 -14 m 314 107 q 429 146 379 107 q 506 251 479 185 q 533 396 533 317 q 497 531 533 485 q 392 576 461 576 q 278 538 328 576 q 200 434 228 500 q 172 289 172 368 q 208 153 172 200 q 314 107 243 107 m 450 806 q 319 846 365 806 q 274 950 274 886 q 278 988 274 969 l 388 988 q 383 964 383 978 q 404 917 383 933 q 460 901 425 901 q 529 924 500 901 q 565 988 558 946 l 683 988 q 608 856 668 906 q 450 806 547 806 z "},"ô":{"ha":731,"x_min":28,"x_max":679,"o":"m 294 -14 q 96 67 164 -14 q 28 278 28 149 q 77 485 28 388 q 215 640 126 582 q 411 699 303 699 q 610 617 542 699 q 679 406 679 535 q 629 199 679 296 q 492 44 579 103 q 294 -14 404 -14 m 314 107 q 429 146 379 107 q 506 251 479 185 q 533 396 533 317 q 497 531 533 485 q 392 576 461 576 q 278 538 328 576 q 200 434 228 500 q 172 289 172 368 q 208 153 172 200 q 314 107 243 107 m 306 890 l 485 1025 l 633 872 l 615 779 l 458 892 l 283 793 l 306 890 z "},"ố":{"ha":731,"x_min":28,"x_max":806,"o":"m 294 -14 q 96 67 164 -14 q 28 278 28 149 q 77 485 28 388 q 215 640 126 582 q 411 699 303 699 q 610 617 542 699 q 679 406 679 535 q 629 199 679 296 q 492 44 579 103 q 294 -14 404 -14 m 314 107 q 429 146 379 107 q 506 251 479 185 q 533 396 533 317 q 497 531 533 485 q 392 576 461 576 q 278 538 328 576 q 200 434 228 500 q 172 289 172 368 q 208 153 172 200 q 314 107 243 107 m 663 1122 l 806 1122 l 649 965 l 553 965 l 663 1122 m 626 850 l 611 760 l 449 854 l 285 776 l 300 867 l 469 976 l 626 850 z "},"ộ":{"ha":731,"x_min":28,"x_max":679,"o":"m 294 -14 q 96 67 164 -14 q 28 278 28 149 q 77 485 28 388 q 215 640 126 582 q 411 699 303 699 q 610 617 542 699 q 679 406 679 535 q 629 199 679 296 q 492 44 579 103 q 294 -14 404 -14 m 314 107 q 429 146 379 107 q 506 251 479 185 q 533 396 533 317 q 497 531 533 485 q 392 576 461 576 q 278 538 328 576 q 200 434 228 500 q 172 289 172 368 q 208 153 172 200 q 314 107 243 107 m 306 890 l 485 1025 l 633 872 l 615 779 l 458 892 l 283 793 l 306 890 m 207 -112 l 339 -112 l 314 -240 l 182 -240 l 207 -112 z "},"ồ":{"ha":731,"x_min":28,"x_max":679,"o":"m 294 -14 q 96 67 164 -14 q 28 278 28 149 q 77 485 28 388 q 215 640 126 582 q 411 699 303 699 q 610 617 542 699 q 679 406 679 535 q 629 199 679 296 q 492 44 579 103 q 294 -14 404 -14 m 314 107 q 429 146 379 107 q 506 251 479 185 q 533 396 533 317 q 497 531 533 485 q 392 576 461 576 q 278 538 328 576 q 200 434 228 500 q 172 289 172 368 q 208 153 172 200 q 314 107 243 107 m 554 965 l 465 1132 l 603 1132 l 649 965 l 554 965 m 626 850 l 611 760 l 449 854 l 285 776 l 300 867 l 469 976 l 626 850 z "},"ổ":{"ha":731,"x_min":28,"x_max":718,"o":"m 294 -14 q 96 67 164 -14 q 28 278 28 149 q 77 485 28 388 q 215 640 126 582 q 411 699 303 699 q 610 617 542 699 q 679 406 679 535 q 629 199 679 296 q 492 44 579 103 q 294 -14 404 -14 m 314 107 q 429 146 379 107 q 506 251 479 185 q 533 396 533 317 q 497 531 533 485 q 392 576 461 576 q 278 538 328 576 q 200 434 228 500 q 172 289 172 368 q 208 153 172 200 q 314 107 243 107 m 625 846 l 610 756 l 447 850 l 283 772 l 299 863 l 468 972 l 625 846 m 574 982 q 632 1039 632 999 q 619 1067 632 1057 q 583 1076 607 1076 q 499 1051 551 1076 l 488 1128 q 601 1151 544 1151 q 685 1126 653 1151 q 718 1058 718 1101 q 681 972 718 1006 q 578 924 644 939 l 574 982 z "},"ỗ":{"ha":731,"x_min":28,"x_max":721,"o":"m 294 -14 q 96 67 164 -14 q 28 278 28 149 q 77 485 28 388 q 215 640 126 582 q 411 699 303 699 q 610 617 542 699 q 679 406 679 535 q 629 199 679 296 q 492 44 579 103 q 294 -14 404 -14 m 314 107 q 429 146 379 107 q 506 251 479 185 q 533 396 533 317 q 497 531 533 485 q 392 576 461 576 q 278 538 328 576 q 200 434 228 500 q 172 289 172 368 q 208 153 172 200 q 314 107 243 107 m 625 846 l 610 756 l 447 850 l 283 772 l 299 863 l 468 972 l 625 846 m 588 1013 q 545 1019 567 1013 q 488 1042 524 1026 q 408 1065 432 1065 q 377 1054 390 1065 q 361 1019 364 1043 l 265 1019 q 312 1124 278 1088 q 397 1161 346 1161 q 438 1154 418 1161 q 496 1132 458 1147 q 539 1115 517 1122 q 578 1107 561 1107 q 610 1119 597 1107 q 625 1154 622 1132 l 721 1154 q 675 1049 710 1085 q 588 1013 640 1013 z "},"ȍ":{"ha":731,"x_min":28,"x_max":679,"o":"m 294 -14 q 96 67 164 -14 q 28 278 28 149 q 77 485 28 388 q 215 640 126 582 q 411 699 303 699 q 610 617 542 699 q 679 406 679 535 q 629 199 679 296 q 492 44 579 103 q 294 -14 404 -14 m 314 107 q 429 146 379 107 q 506 251 479 185 q 533 396 533 317 q 497 531 533 485 q 392 576 461 576 q 278 538 328 576 q 200 434 228 500 q 172 289 172 368 q 208 153 172 200 q 314 107 243 107 m 294 807 l 192 1044 l 336 1044 l 393 807 l 294 807 m 492 807 l 397 1044 l 542 1044 l 589 807 l 492 807 z "},"ö":{"ha":731,"x_min":28,"x_max":679,"o":"m 294 -14 q 96 67 164 -14 q 28 278 28 149 q 77 485 28 388 q 215 640 126 582 q 411 699 303 699 q 610 617 542 699 q 679 406 679 535 q 629 199 679 296 q 492 44 579 103 q 294 -14 404 -14 m 314 107 q 429 146 379 107 q 506 251 479 185 q 533 396 533 317 q 497 531 533 485 q 392 576 461 576 q 278 538 328 576 q 200 434 228 500 q 172 289 172 368 q 208 153 172 200 q 314 107 243 107 m 275 936 l 396 936 l 372 821 l 251 821 l 275 936 m 539 936 l 660 936 l 636 821 l 515 821 l 539 936 z "},"ȫ":{"ha":731,"x_min":28,"x_max":717,"o":"m 294 -14 q 96 67 164 -14 q 28 278 28 149 q 77 485 28 388 q 215 640 126 582 q 411 699 303 699 q 610 617 542 699 q 679 406 679 535 q 629 199 679 296 q 492 44 579 103 q 294 -14 404 -14 m 314 107 q 429 146 379 107 q 506 251 479 185 q 533 396 533 317 q 497 531 533 485 q 392 576 461 576 q 278 538 328 576 q 200 434 228 500 q 172 289 172 368 q 208 153 172 200 q 314 107 243 107 m 269 919 l 390 919 l 369 811 l 249 811 l 269 919 m 531 919 l 651 919 l 631 811 l 510 811 l 531 919 m 276 1131 l 717 1131 l 700 1032 l 258 1032 l 276 1131 z "},"ȱ":{"ha":731,"x_min":28,"x_max":719,"o":"m 294 -14 q 96 67 164 -14 q 28 278 28 149 q 77 485 28 388 q 215 640 126 582 q 411 699 303 699 q 610 617 542 699 q 679 406 679 535 q 629 199 679 296 q 492 44 579 103 q 294 -14 404 -14 m 314 107 q 429 146 379 107 q 506 251 479 185 q 533 396 533 317 q 497 531 533 485 q 392 576 461 576 q 278 538 328 576 q 200 434 228 500 q 172 289 172 368 q 208 153 172 200 q 314 107 243 107 m 396 940 l 531 940 l 507 813 l 372 813 l 396 940 m 279 1150 l 719 1150 l 703 1051 l 261 1051 l 279 1150 z "},"ọ":{"ha":731,"x_min":28,"x_max":679,"o":"m 294 -14 q 96 67 164 -14 q 28 278 28 149 q 77 485 28 388 q 215 640 126 582 q 411 699 303 699 q 610 617 542 699 q 679 406 679 535 q 629 199 679 296 q 492 44 579 103 q 294 -14 404 -14 m 314 107 q 429 146 379 107 q 506 251 479 185 q 533 396 533 317 q 497 531 533 485 q 392 576 461 576 q 278 538 328 576 q 200 434 228 500 q 172 289 172 368 q 208 153 172 200 q 314 107 243 107 m 207 -112 l 339 -112 l 314 -240 l 182 -240 l 207 -112 z "},"ò":{"ha":731,"x_min":28,"x_max":679,"o":"m 294 -14 q 96 67 164 -14 q 28 278 28 149 q 77 485 28 388 q 215 640 126 582 q 411 699 303 699 q 610 617 542 699 q 679 406 679 535 q 629 199 679 296 q 492 44 579 103 q 294 -14 404 -14 m 314 107 q 429 146 379 107 q 506 251 479 185 q 533 396 533 317 q 497 531 533 485 q 392 576 461 576 q 278 538 328 576 q 200 434 228 500 q 172 289 172 368 q 208 153 172 200 q 314 107 243 107 m 328 896 l 353 1040 l 579 890 l 563 797 l 328 896 z "},"ỏ":{"ha":731,"x_min":28,"x_max":679,"o":"m 294 -14 q 96 67 164 -14 q 28 278 28 149 q 77 485 28 388 q 215 640 126 582 q 411 699 303 699 q 610 617 542 699 q 679 406 679 535 q 629 199 679 296 q 492 44 579 103 q 294 -14 404 -14 m 314 107 q 429 146 379 107 q 506 251 479 185 q 533 396 533 317 q 497 531 533 485 q 392 576 461 576 q 278 538 328 576 q 200 434 228 500 q 172 289 172 368 q 208 153 172 200 q 314 107 243 107 m 408 781 q 470 835 451 814 q 489 883 489 857 q 476 911 489 901 q 442 921 464 921 q 351 896 407 921 l 342 969 q 457 996 397 996 q 542 971 510 996 q 574 901 574 946 q 542 811 574 850 q 449 733 510 772 l 408 781 z "},"ơ":{"ha":731,"x_min":28,"x_max":731,"o":"m 731 788 q 687 691 719 733 q 606 622 654 649 q 660 526 642 582 q 679 406 679 471 q 629 199 679 296 q 492 44 579 103 q 294 -14 404 -14 q 96 67 164 -14 q 28 278 28 149 q 77 485 28 388 q 215 640 126 582 q 411 699 303 699 q 500 686 461 699 q 567 717 542 693 q 601 788 592 740 l 731 788 m 314 107 q 429 146 379 107 q 506 251 479 185 q 533 396 533 317 q 497 531 533 485 q 392 576 461 576 q 278 538 328 576 q 200 434 228 500 q 172 289 172 368 q 208 153 172 200 q 314 107 243 107 z "},"ớ":{"ha":731,"x_min":28,"x_max":731,"o":"m 731 788 q 687 691 719 733 q 606 622 654 649 q 660 526 642 582 q 679 406 679 471 q 629 199 679 296 q 492 44 579 103 q 294 -14 404 -14 q 96 67 164 -14 q 28 278 28 149 q 77 485 28 388 q 215 640 126 582 q 411 699 303 699 q 500 686 461 699 q 567 717 542 693 q 601 788 592 740 l 731 788 m 314 107 q 429 146 379 107 q 506 251 479 185 q 533 396 533 317 q 497 531 533 485 q 392 576 461 576 q 278 538 328 576 q 200 434 228 500 q 172 289 172 368 q 208 153 172 200 q 314 107 243 107 m 339 897 l 601 1044 l 578 883 l 319 796 l 339 897 z "},"ợ":{"ha":731,"x_min":28,"x_max":731,"o":"m 731 788 q 687 691 719 733 q 606 622 654 649 q 660 526 642 582 q 679 406 679 471 q 629 199 679 296 q 492 44 579 103 q 294 -14 404 -14 q 96 67 164 -14 q 28 278 28 149 q 77 485 28 388 q 215 640 126 582 q 411 699 303 699 q 500 686 461 699 q 567 717 542 693 q 601 788 592 740 l 731 788 m 314 107 q 429 146 379 107 q 506 251 479 185 q 533 396 533 317 q 497 531 533 485 q 392 576 461 576 q 278 538 328 576 q 200 434 228 500 q 172 289 172 368 q 208 153 172 200 q 314 107 243 107 m 207 -112 l 339 -112 l 314 -240 l 182 -240 l 207 -112 z "},"ờ":{"ha":731,"x_min":28,"x_max":731,"o":"m 731 788 q 687 691 719 733 q 606 622 654 649 q 660 526 642 582 q 679 406 679 471 q 629 199 679 296 q 492 44 579 103 q 294 -14 404 -14 q 96 67 164 -14 q 28 278 28 149 q 77 485 28 388 q 215 640 126 582 q 411 699 303 699 q 500 686 461 699 q 567 717 542 693 q 601 788 592 740 l 731 788 m 314 107 q 429 146 379 107 q 506 251 479 185 q 533 396 533 317 q 497 531 533 485 q 392 576 461 576 q 278 538 328 576 q 200 434 228 500 q 172 289 172 368 q 208 153 172 200 q 314 107 243 107 m 328 896 l 353 1040 l 579 890 l 563 797 l 328 896 z "},"ở":{"ha":731,"x_min":28,"x_max":731,"o":"m 731 788 q 687 691 719 733 q 606 622 654 649 q 660 526 642 582 q 679 406 679 471 q 629 199 679 296 q 492 44 579 103 q 294 -14 404 -14 q 96 67 164 -14 q 28 278 28 149 q 77 485 28 388 q 215 640 126 582 q 411 699 303 699 q 500 686 461 699 q 567 717 542 693 q 601 788 592 740 l 731 788 m 314 107 q 429 146 379 107 q 506 251 479 185 q 533 396 533 317 q 497 531 533 485 q 392 576 461 576 q 278 538 328 576 q 200 434 228 500 q 172 289 172 368 q 208 153 172 200 q 314 107 243 107 m 408 781 q 470 835 451 814 q 489 883 489 857 q 476 911 489 901 q 442 921 464 921 q 351 896 407 921 l 342 969 q 457 996 397 996 q 542 971 510 996 q 574 901 574 946 q 542 811 574 850 q 449 733 510 772 l 408 781 z "},"ỡ":{"ha":731,"x_min":28,"x_max":731,"o":"m 731 788 q 687 691 719 733 q 606 622 654 649 q 660 526 642 582 q 679 406 679 471 q 629 199 679 296 q 492 44 579 103 q 294 -14 404 -14 q 96 67 164 -14 q 28 278 28 149 q 77 485 28 388 q 215 640 126 582 q 411 699 303 699 q 500 686 461 699 q 567 717 542 693 q 601 788 592 740 l 731 788 m 314 107 q 429 146 379 107 q 506 251 479 185 q 533 396 533 317 q 497 531 533 485 q 392 576 461 576 q 278 538 328 576 q 200 434 228 500 q 172 289 172 368 q 208 153 172 200 q 314 107 243 107 m 556 804 q 513 813 535 804 q 458 836 492 821 q 376 865 403 865 q 321 815 332 865 l 218 815 q 271 934 233 893 q 364 975 308 975 q 408 967 386 975 q 458 943 429 958 q 503 922 485 929 q 539 914 521 914 q 592 968 582 914 l 696 968 q 644 844 679 883 q 556 804 610 804 z "},"ő":{"ha":731,"x_min":28,"x_max":789,"o":"m 294 -14 q 96 67 164 -14 q 28 278 28 149 q 77 485 28 388 q 215 640 126 582 q 411 699 303 699 q 610 617 542 699 q 679 406 679 535 q 629 199 679 296 q 492 44 579 103 q 294 -14 404 -14 m 314 107 q 429 146 379 107 q 506 251 479 185 q 533 396 533 317 q 497 531 533 485 q 392 576 461 576 q 278 538 328 576 q 200 434 228 500 q 172 289 172 368 q 208 153 172 200 q 314 107 243 107 m 439 1044 l 583 1044 l 389 807 l 292 807 l 439 1044 m 644 1044 l 789 1044 l 588 807 l 489 807 l 644 1044 z "},"ȏ":{"ha":731,"x_min":28,"x_max":679,"o":"m 294 -14 q 96 67 164 -14 q 28 278 28 149 q 77 485 28 388 q 215 640 126 582 q 411 699 303 699 q 610 617 542 699 q 679 406 679 535 q 629 199 679 296 q 492 44 579 103 q 294 -14 404 -14 m 314 107 q 429 146 379 107 q 506 251 479 185 q 533 396 533 317 q 497 531 533 485 q 392 576 461 576 q 278 538 328 576 q 200 434 228 500 q 172 289 172 368 q 208 153 172 200 q 314 107 243 107 m 468 988 q 601 946 556 988 q 646 838 646 904 q 643 806 646 828 l 532 806 q 533 824 533 813 q 512 874 533 857 q 454 892 490 892 q 383 869 413 892 q 346 806 353 847 l 231 806 q 308 935 244 882 q 468 988 371 988 z "},"ō":{"ha":731,"x_min":28,"x_max":685,"o":"m 294 -14 q 96 67 164 -14 q 28 278 28 149 q 77 485 28 388 q 215 640 126 582 q 411 699 303 699 q 610 617 542 699 q 679 406 679 535 q 629 199 679 296 q 492 44 579 103 q 294 -14 404 -14 m 314 107 q 429 146 379 107 q 506 251 479 185 q 533 396 533 317 q 497 531 533 485 q 392 576 461 576 q 278 538 328 576 q 200 434 228 500 q 172 289 172 368 q 208 153 172 200 q 314 107 243 107 m 247 928 l 685 928 l 664 825 l 228 825 l 247 928 z "},"ṓ":{"ha":731,"x_min":28,"x_max":679,"o":"m 294 -14 q 96 67 164 -14 q 28 278 28 149 q 77 485 28 388 q 215 640 126 582 q 411 699 303 699 q 610 617 542 699 q 679 406 679 535 q 629 199 679 296 q 492 44 579 103 q 294 -14 404 -14 m 314 107 q 429 146 379 107 q 506 251 479 185 q 533 396 533 317 q 497 531 533 485 q 392 576 461 576 q 278 538 328 576 q 200 434 228 500 q 172 289 172 368 q 208 153 172 200 q 314 107 243 107 m 238 913 l 678 913 l 661 814 l 219 814 l 238 913 m 383 1085 l 632 1217 l 610 1071 l 371 990 l 383 1085 z "},"ṑ":{"ha":731,"x_min":28,"x_max":679,"o":"m 294 -14 q 96 67 164 -14 q 28 278 28 149 q 77 485 28 388 q 215 640 126 582 q 411 699 303 699 q 610 617 542 699 q 679 406 679 535 q 629 199 679 296 q 492 44 579 103 q 294 -14 404 -14 m 314 107 q 429 146 379 107 q 506 251 479 185 q 533 396 533 317 q 497 531 533 485 q 392 576 461 576 q 278 538 328 576 q 200 434 228 500 q 172 289 172 368 q 208 153 172 200 q 314 107 243 107 m 238 913 l 678 913 l 661 814 l 219 814 l 238 913 m 371 1071 l 396 1208 l 622 1076 l 606 990 l 371 1071 z "},"ǫ":{"ha":731,"x_min":28,"x_max":679,"o":"m 376 -4 q 283 -84 317 -47 q 249 -162 249 -121 q 263 -202 249 -189 q 300 -215 276 -215 q 382 -193 338 -215 l 392 -264 q 276 -290 339 -290 q 193 -265 225 -290 q 160 -194 161 -240 q 195 -96 160 -144 q 283 -14 231 -47 q 93 71 158 -10 q 28 278 28 151 q 77 485 28 388 q 215 640 126 582 q 411 699 303 699 q 610 617 542 699 q 679 406 679 535 q 641 223 679 310 q 534 76 603 136 q 376 -4 465 15 m 172 289 q 208 153 172 200 q 314 107 243 107 q 429 146 379 107 q 506 251 479 185 q 533 396 533 317 q 497 531 533 485 q 392 576 461 576 q 278 538 328 576 q 200 434 228 500 q 172 289 172 368 z "},"ø":{"ha":731,"x_min":-3,"x_max":711,"o":"m 615 610 q 679 406 679 532 q 629 199 679 296 q 492 44 579 103 q 294 -14 404 -14 q 165 14 221 -14 l 113 -56 l -3 -56 l 93 71 q 28 278 28 149 q 77 485 28 388 q 215 640 126 582 q 411 699 303 699 q 544 668 488 699 l 596 736 l 711 736 l 615 610 m 172 289 q 186 194 172 232 l 463 560 q 392 576 433 576 q 278 538 328 576 q 200 434 228 500 q 172 289 172 368 m 533 396 q 521 485 533 447 l 246 122 q 314 107 276 107 q 429 146 379 107 q 506 251 479 185 q 533 396 533 317 z "},"ǿ":{"ha":731,"x_min":-3,"x_max":711,"o":"m 615 610 q 679 406 679 532 q 629 199 679 296 q 492 44 579 103 q 294 -14 404 -14 q 165 14 221 -14 l 113 -56 l -3 -56 l 93 71 q 28 278 28 149 q 77 485 28 388 q 215 640 126 582 q 411 699 303 699 q 544 668 488 699 l 596 736 l 711 736 l 615 610 m 172 289 q 186 194 172 232 l 463 560 q 392 576 433 576 q 278 538 328 576 q 200 434 228 500 q 172 289 172 368 m 533 396 q 521 485 533 447 l 246 122 q 314 107 276 107 q 429 146 379 107 q 506 251 479 185 q 533 396 533 317 m 339 897 l 601 1044 l 578 883 l 319 796 l 339 897 z "},"õ":{"ha":731,"x_min":28,"x_max":696,"o":"m 294 -14 q 96 67 164 -14 q 28 278 28 149 q 77 485 28 388 q 215 640 126 582 q 411 699 303 699 q 610 617 542 699 q 679 406 679 535 q 629 199 679 296 q 492 44 579 103 q 294 -14 404 -14 m 314 107 q 429 146 379 107 q 506 251 479 185 q 533 396 533 317 q 497 531 533 485 q 392 576 461 576 q 278 538 328 576 q 200 434 228 500 q 172 289 172 368 q 208 153 172 200 q 314 107 243 107 m 556 804 q 513 813 535 804 q 458 836 492 821 q 376 865 403 865 q 321 815 332 865 l 218 815 q 271 934 233 893 q 364 975 308 975 q 408 967 386 975 q 458 943 429 958 q 503 922 485 929 q 539 914 521 914 q 592 968 582 914 l 696 968 q 644 844 679 883 q 556 804 610 804 z "},"ṍ":{"ha":731,"x_min":28,"x_max":679,"o":"m 294 -14 q 96 67 164 -14 q 28 278 28 149 q 77 485 28 388 q 215 640 126 582 q 411 699 303 699 q 610 617 542 699 q 679 406 679 535 q 629 199 679 296 q 492 44 579 103 q 294 -14 404 -14 m 314 107 q 429 146 379 107 q 506 251 479 185 q 533 396 533 317 q 497 531 533 485 q 392 576 461 576 q 278 538 328 576 q 200 434 228 500 q 172 289 172 368 q 208 153 172 200 q 314 107 243 107 m 546 803 q 503 810 525 803 q 446 832 482 817 q 367 856 390 856 q 335 844 349 856 q 319 810 322 833 l 224 810 q 270 915 236 878 q 356 951 304 951 q 397 944 376 951 q 454 922 417 938 q 497 905 475 913 q 536 897 519 897 q 568 910 556 897 q 583 944 581 922 l 679 944 q 633 839 668 875 q 546 803 599 803 m 376 1104 l 625 1236 l 603 1090 l 364 1010 l 376 1104 z "},"ṏ":{"ha":731,"x_min":28,"x_max":693,"o":"m 294 -14 q 96 67 164 -14 q 28 278 28 149 q 77 485 28 388 q 215 640 126 582 q 411 699 303 699 q 610 617 542 699 q 679 406 679 535 q 629 199 679 296 q 492 44 579 103 q 294 -14 404 -14 m 314 107 q 429 146 379 107 q 506 251 479 185 q 533 396 533 317 q 497 531 533 485 q 392 576 461 576 q 278 538 328 576 q 200 434 228 500 q 172 289 172 368 q 208 153 172 200 q 314 107 243 107 m 546 803 q 503 810 525 803 q 446 832 482 817 q 367 856 390 856 q 335 844 349 856 q 319 810 322 833 l 224 810 q 270 915 236 878 q 356 951 304 951 q 397 944 376 951 q 454 922 417 938 q 497 905 475 913 q 536 897 519 897 q 568 910 556 897 q 583 944 581 922 l 679 944 q 633 839 668 875 q 546 803 599 803 m 311 1158 l 432 1158 l 411 1050 l 290 1050 l 311 1158 m 572 1158 l 693 1158 l 672 1050 l 551 1050 l 572 1158 z "},"ȭ":{"ha":731,"x_min":28,"x_max":719,"o":"m 294 -14 q 96 67 164 -14 q 28 278 28 149 q 77 485 28 388 q 215 640 126 582 q 411 699 303 699 q 610 617 542 699 q 679 406 679 535 q 629 199 679 296 q 492 44 579 103 q 294 -14 404 -14 m 314 107 q 429 146 379 107 q 506 251 479 185 q 533 396 533 317 q 497 531 533 485 q 392 576 461 576 q 278 538 328 576 q 200 434 228 500 q 172 289 172 368 q 208 153 172 200 q 314 107 243 107 m 546 803 q 503 810 525 803 q 446 832 482 817 q 367 856 390 856 q 335 844 349 856 q 319 810 322 833 l 224 810 q 270 915 236 878 q 356 951 304 951 q 397 944 376 951 q 454 922 417 938 q 497 905 475 913 q 536 897 519 897 q 568 910 556 897 q 583 944 581 922 l 679 944 q 633 839 668 875 q 546 803 599 803 m 279 1151 l 719 1151 l 703 1053 l 261 1053 l 279 1151 z "},"œ":{"ha":1161,"x_min":28,"x_max":1126,"o":"m 292 -14 q 97 69 167 -14 q 28 279 28 151 q 76 488 28 392 q 213 642 125 585 q 414 699 301 699 q 553 665 493 699 q 639 567 614 631 q 753 665 686 631 q 893 699 821 699 q 1063 635 999 699 q 1126 463 1126 572 q 1120 397 1126 421 q 1107 355 1114 372 q 1097 331 1100 338 l 675 331 q 672 282 672 294 q 718 141 672 182 q 829 100 764 100 q 933 115 876 100 q 1036 153 990 131 l 1025 33 q 810 -14 925 -14 q 649 21 710 -14 q 563 122 589 56 q 444 22 515 57 q 292 -14 372 -14 m 315 107 q 432 147 382 107 q 509 254 482 188 q 536 399 536 321 q 501 528 536 479 q 397 576 465 576 q 233 494 294 576 q 172 283 172 413 q 209 153 172 200 q 315 107 246 107 m 979 426 q 982 463 982 449 q 956 546 982 515 q 874 576 929 576 q 765 538 811 576 q 696 426 719 499 l 979 426 z "},"p":{"ha":743,"x_min":-47,"x_max":690,"o":"m 133 685 l 251 685 l 250 600 q 345 674 297 649 q 454 699 393 699 q 628 618 567 699 q 690 408 690 538 q 647 198 690 294 q 524 44 603 101 q 346 -14 446 -14 q 168 83 224 -14 l 94 -336 l -47 -336 l 133 685 m 338 107 q 443 147 396 107 q 517 253 490 186 q 543 397 543 319 q 510 528 543 479 q 414 576 478 576 q 307 540 356 576 q 229 437 258 503 q 200 285 200 371 q 236 151 200 194 q 338 107 272 107 z "},"þ":{"ha":743,"x_min":-47,"x_max":690,"o":"m 196 1042 l 338 1042 l 263 624 q 458 699 349 699 q 630 618 569 699 q 690 408 690 538 q 647 198 690 294 q 524 44 603 101 q 346 -14 446 -14 q 168 83 224 -14 l 94 -336 l -47 -336 l 196 1042 m 338 107 q 443 147 396 107 q 517 253 490 186 q 543 397 543 319 q 510 528 543 479 q 414 576 478 576 q 307 540 356 576 q 229 437 258 503 q 200 285 200 371 q 236 151 200 194 q 338 107 272 107 z "},"q":{"ha":742,"x_min":28,"x_max":707,"o":"m 457 75 q 366 9 417 32 q 267 -14 315 -14 q 89 65 150 -14 q 28 269 28 143 q 74 479 28 381 q 201 638 119 578 q 388 699 283 699 q 491 673 451 699 q 561 594 531 647 l 593 685 l 707 685 l 526 -336 l 385 -336 l 457 75 m 311 107 q 416 143 368 107 q 492 245 464 179 q 519 396 519 311 q 485 531 519 486 q 386 576 450 576 q 277 537 325 576 q 202 431 229 497 q 175 289 175 365 q 208 156 175 206 q 311 107 242 107 z "},"r":{"ha":442,"x_min":13,"x_max":488,"o":"m 133 685 l 261 685 l 250 586 q 458 706 354 706 l 488 706 l 435 560 l 382 560 q 303 535 343 560 q 242 478 263 510 l 157 0 l 13 0 l 133 685 z "},"ŕ":{"ha":442,"x_min":13,"x_max":488,"o":"m 133 685 l 261 685 l 250 586 q 458 706 354 706 l 488 706 l 435 560 l 382 560 q 303 535 343 560 q 242 478 263 510 l 157 0 l 13 0 l 133 685 m 225 897 l 488 1044 l 464 883 l 206 796 l 225 897 z "},"ř":{"ha":442,"x_min":13,"x_max":539,"o":"m 133 685 l 261 685 l 250 586 q 458 706 354 706 l 488 706 l 435 560 l 382 560 q 303 535 343 560 q 242 478 263 510 l 157 0 l 13 0 l 133 685 m 172 929 l 192 1022 l 347 910 l 539 1022 l 521 913 l 321 775 l 172 929 z "},"ŗ":{"ha":442,"x_min":-36,"x_max":488,"o":"m 133 685 l 261 685 l 250 586 q 458 706 354 706 l 488 706 l 435 560 l 382 560 q 303 535 343 560 q 242 478 263 510 l 157 0 l 13 0 l 133 685 m -36 -371 l 28 -251 l -24 -251 l -1 -126 l 136 -126 l 114 -251 l 18 -371 l -36 -371 z "},"ȑ":{"ha":442,"x_min":13,"x_max":488,"o":"m 133 685 l 261 685 l 250 586 q 458 706 354 706 l 488 706 l 435 560 l 382 560 q 303 535 343 560 q 242 478 263 510 l 157 0 l 13 0 l 133 685 m 181 807 l 78 1044 l 222 1044 l 279 807 l 181 807 m 378 807 l 283 1044 l 428 1044 l 475 807 l 378 807 z "},"ṛ":{"ha":442,"x_min":-24,"x_max":488,"o":"m 133 685 l 261 685 l 250 586 q 458 706 354 706 l 488 706 l 435 560 l 382 560 q 303 535 343 560 q 242 478 263 510 l 157 0 l 13 0 l 133 685 m 1 -112 l 133 -112 l 108 -240 l -24 -240 l 1 -112 z "},"ȓ":{"ha":442,"x_min":13,"x_max":532,"o":"m 133 685 l 261 685 l 250 586 q 458 706 354 706 l 488 706 l 435 560 l 382 560 q 303 535 343 560 q 242 478 263 510 l 157 0 l 13 0 l 133 685 m 354 988 q 487 946 442 988 q 532 838 532 904 q 529 806 532 828 l 418 806 q 419 824 419 813 q 398 874 419 857 q 340 892 376 892 q 269 869 299 892 q 232 806 239 847 l 117 806 q 194 935 131 882 q 354 988 257 988 z "},"ṟ":{"ha":442,"x_min":-172,"x_max":488,"o":"m 133 685 l 261 685 l 250 586 q 458 706 354 706 l 488 706 l 435 560 l 382 560 q 303 535 343 560 q 242 478 263 510 l 157 0 l 13 0 l 133 685 m -153 -126 l 285 -126 l 264 -229 l -172 -229 l -153 -126 z "},"s":{"ha":553,"x_min":-15,"x_max":524,"o":"m 199 -14 q -15 43 76 -14 l 21 172 q 210 103 111 103 q 299 128 269 103 q 329 194 329 153 q 303 256 329 236 q 226 293 278 276 q 142 328 175 310 q 88 378 108 346 q 67 464 67 411 q 96 578 67 525 q 188 665 125 632 q 342 699 250 699 q 524 651 449 699 l 489 529 q 329 592 421 592 q 239 567 274 592 q 204 497 204 543 q 218 453 204 469 q 256 425 232 436 q 332 396 281 414 q 438 333 399 372 q 476 219 476 294 q 451 111 476 164 q 363 22 425 58 q 199 -14 300 -14 z "},"ś":{"ha":553,"x_min":-15,"x_max":524,"o":"m 199 -14 q -15 43 76 -14 l 21 172 q 210 103 111 103 q 299 128 269 103 q 329 194 329 153 q 303 256 329 236 q 226 293 278 276 q 142 328 175 310 q 88 378 108 346 q 67 464 67 411 q 96 578 67 525 q 188 665 125 632 q 342 699 250 699 q 524 651 449 699 l 489 529 q 329 592 421 592 q 239 567 274 592 q 204 497 204 543 q 218 453 204 469 q 256 425 232 436 q 332 396 281 414 q 438 333 399 372 q 476 219 476 294 q 451 111 476 164 q 363 22 425 58 q 199 -14 300 -14 m 257 893 l 519 1040 l 496 879 l 238 792 l 257 893 z "},"ṥ":{"ha":553,"x_min":-15,"x_max":524,"o":"m 199 -14 q -15 43 76 -14 l 21 172 q 210 103 111 103 q 299 128 269 103 q 329 194 329 153 q 303 256 329 236 q 226 293 278 276 q 142 328 175 310 q 88 378 108 346 q 67 464 67 411 q 96 578 67 525 q 188 665 125 632 q 342 699 250 699 q 524 651 449 699 l 489 529 q 329 592 421 592 q 239 567 274 592 q 204 497 204 543 q 218 453 204 469 q 256 425 232 436 q 332 396 281 414 q 438 333 399 372 q 476 219 476 294 q 451 111 476 164 q 363 22 425 58 q 199 -14 300 -14 m 253 861 l 501 993 l 479 847 l 240 767 l 253 861 m 363 1189 l 497 1189 l 474 1061 l 339 1061 l 363 1189 z "},"š":{"ha":553,"x_min":-15,"x_max":571,"o":"m 199 -14 q -15 43 76 -14 l 21 172 q 210 103 111 103 q 299 128 269 103 q 329 194 329 153 q 303 256 329 236 q 226 293 278 276 q 142 328 175 310 q 88 378 108 346 q 67 464 67 411 q 96 578 67 525 q 188 665 125 632 q 342 699 250 699 q 524 651 449 699 l 489 529 q 329 592 421 592 q 239 567 274 592 q 204 497 204 543 q 218 453 204 469 q 256 425 232 436 q 332 396 281 414 q 438 333 399 372 q 476 219 476 294 q 451 111 476 164 q 363 22 425 58 q 199 -14 300 -14 m 204 925 l 224 1018 l 379 906 l 571 1018 l 553 908 l 353 771 l 204 925 z "},"ṧ":{"ha":553,"x_min":-15,"x_max":533,"o":"m 199 -14 q -15 43 76 -14 l 21 172 q 210 103 111 103 q 299 128 269 103 q 329 194 329 153 q 303 256 329 236 q 226 293 278 276 q 142 328 175 310 q 88 378 108 346 q 67 464 67 411 q 96 578 67 525 q 188 665 125 632 q 342 699 250 699 q 524 651 449 699 l 489 529 q 329 592 421 592 q 239 567 274 592 q 204 497 204 543 q 218 453 204 469 q 256 425 232 436 q 332 396 281 414 q 438 333 399 372 q 476 219 476 294 q 451 111 476 164 q 363 22 425 58 q 199 -14 300 -14 m 189 876 l 204 968 l 365 871 l 533 963 l 518 864 l 344 751 l 189 876 m 349 1143 l 483 1143 l 460 1015 l 325 1015 l 349 1143 z "},"ş":{"ha":553,"x_min":-15,"x_max":524,"o":"m 329 592 q 239 567 274 592 q 204 497 204 543 q 218 453 204 469 q 256 425 232 436 q 332 396 281 414 q 438 333 399 372 q 476 219 476 294 q 420 67 476 136 q 239 -12 364 -3 l 207 -75 l 217 -75 q 294 -100 267 -75 q 322 -169 322 -125 q 272 -278 322 -236 q 146 -319 222 -319 q 40 -293 85 -319 l 76 -221 q 161 -244 115 -244 q 217 -228 196 -244 q 238 -186 238 -211 q 175 -140 238 -140 q 108 -151 142 -140 l 167 -12 q -15 43 64 -6 l 21 172 q 210 103 111 103 q 299 128 269 103 q 329 194 329 153 q 303 256 329 236 q 226 293 278 276 q 142 328 175 310 q 88 378 108 346 q 67 464 67 411 q 96 578 67 525 q 188 665 125 632 q 342 699 250 699 q 524 651 449 699 l 489 529 q 329 592 421 592 z "},"ŝ":{"ha":553,"x_min":-15,"x_max":551,"o":"m 199 -14 q -15 43 76 -14 l 21 172 q 210 103 111 103 q 299 128 269 103 q 329 194 329 153 q 303 256 329 236 q 226 293 278 276 q 142 328 175 310 q 88 378 108 346 q 67 464 67 411 q 96 578 67 525 q 188 665 125 632 q 342 699 250 699 q 524 651 449 699 l 489 529 q 329 592 421 592 q 239 567 274 592 q 204 497 204 543 q 218 453 204 469 q 256 425 232 436 q 332 396 281 414 q 438 333 399 372 q 476 219 476 294 q 451 111 476 164 q 363 22 425 58 q 199 -14 300 -14 m 224 886 l 403 1021 l 551 868 l 533 775 l 376 888 l 201 789 l 224 886 z "},"ș":{"ha":553,"x_min":-15,"x_max":524,"o":"m 199 -14 q -15 43 76 -14 l 21 172 q 210 103 111 103 q 299 128 269 103 q 329 194 329 153 q 303 256 329 236 q 226 293 278 276 q 142 328 175 310 q 88 378 108 346 q 67 464 67 411 q 96 578 67 525 q 188 665 125 632 q 342 699 250 699 q 524 651 449 699 l 489 529 q 329 592 421 592 q 239 567 274 592 q 204 497 204 543 q 218 453 204 469 q 256 425 232 436 q 332 396 281 414 q 438 333 399 372 q 476 219 476 294 q 451 111 476 164 q 363 22 425 58 q 199 -14 300 -14 m 83 -371 l 147 -251 l 96 -251 l 118 -126 l 256 -126 l 233 -251 l 138 -371 l 83 -371 z "},"ṡ":{"ha":553,"x_min":-15,"x_max":524,"o":"m 199 -14 q -15 43 76 -14 l 21 172 q 210 103 111 103 q 299 128 269 103 q 329 194 329 153 q 303 256 329 236 q 226 293 278 276 q 142 328 175 310 q 88 378 108 346 q 67 464 67 411 q 96 578 67 525 q 188 665 125 632 q 342 699 250 699 q 524 651 449 699 l 489 529 q 329 592 421 592 q 239 567 274 592 q 204 497 204 543 q 218 453 204 469 q 256 425 232 436 q 332 396 281 414 q 438 333 399 372 q 476 219 476 294 q 451 111 476 164 q 363 22 425 58 q 199 -14 300 -14 m 322 950 l 454 950 l 429 822 l 297 822 l 322 950 z "},"ṣ":{"ha":553,"x_min":-15,"x_max":524,"o":"m 199 -14 q -15 43 76 -14 l 21 172 q 210 103 111 103 q 299 128 269 103 q 329 194 329 153 q 303 256 329 236 q 226 293 278 276 q 142 328 175 310 q 88 378 108 346 q 67 464 67 411 q 96 578 67 525 q 188 665 125 632 q 342 699 250 699 q 524 651 449 699 l 489 529 q 329 592 421 592 q 239 567 274 592 q 204 497 204 543 q 218 453 204 469 q 256 425 232 436 q 332 396 281 414 q 438 333 399 372 q 476 219 476 294 q 451 111 476 164 q 363 22 425 58 q 199 -14 300 -14 m 121 -112 l 253 -112 l 228 -240 l 96 -240 l 121 -112 z "},"ṩ":{"ha":553,"x_min":-15,"x_max":524,"o":"m 199 -14 q -15 43 76 -14 l 21 172 q 210 103 111 103 q 299 128 269 103 q 329 194 329 153 q 303 256 329 236 q 226 293 278 276 q 142 328 175 310 q 88 378 108 346 q 67 464 67 411 q 96 578 67 525 q 188 665 125 632 q 342 699 250 699 q 524 651 449 699 l 489 529 q 329 592 421 592 q 239 567 274 592 q 204 497 204 543 q 218 453 204 469 q 256 425 232 436 q 332 396 281 414 q 438 333 399 372 q 476 219 476 294 q 451 111 476 164 q 363 22 425 58 q 199 -14 300 -14 m 322 950 l 454 950 l 429 822 l 297 822 l 322 950 m 121 -112 l 253 -112 l 228 -240 l 96 -240 l 121 -112 z "},"ß":{"ha":804,"x_min":36,"x_max":768,"o":"m 408 -19 q 260 -3 335 -19 l 279 119 q 424 101 356 101 q 547 135 497 101 q 596 231 596 169 q 572 303 596 275 q 497 369 547 332 q 423 434 447 406 q 399 507 399 463 q 432 595 399 551 q 535 701 465 639 q 604 776 583 744 q 625 850 625 807 q 594 916 625 892 q 508 940 564 940 q 376 892 426 940 q 311 757 326 844 l 178 0 l 36 0 l 138 574 l 40 574 l 72 685 l 157 685 l 169 754 q 293 983 196 904 q 533 1061 390 1061 q 705 1012 642 1061 q 768 881 768 963 q 742 768 768 814 q 657 668 715 722 l 631 643 q 565 576 583 599 q 547 529 547 554 q 565 483 547 503 q 622 432 582 464 q 710 349 679 389 q 740 244 740 308 q 695 106 740 165 q 574 13 650 46 q 408 -19 497 -19 z "},"ə":{"ha":650,"x_min":33,"x_max":622,"o":"m 335 699 q 549 616 475 699 q 622 403 622 533 q 574 199 622 294 q 440 44 526 103 q 244 -14 354 -14 q 88 36 143 -14 q 33 169 33 86 q 115 334 33 269 q 356 399 197 399 q 472 388 421 399 q 301 578 468 578 q 201 566 253 578 q 104 532 149 554 l 114 646 q 335 699 207 699 m 372 304 q 208 268 258 304 q 158 182 158 232 q 187 126 158 143 q 256 108 215 108 q 376 158 324 108 q 458 293 429 207 q 372 304 419 304 z "},"t":{"ha":438,"x_min":50,"x_max":460,"o":"m 213 -14 q 106 24 140 -14 q 71 119 71 61 q 147 574 71 142 l 50 574 l 82 685 l 167 685 l 197 849 l 340 863 l 308 685 l 460 685 l 439 574 l 289 574 q 234 258 250 350 q 218 151 218 165 q 238 109 218 118 q 315 100 257 100 l 354 100 l 322 -14 l 213 -14 z "},"ŧ":{"ha":451,"x_min":21,"x_max":475,"o":"m 304 574 q 278 425 285 460 l 426 425 l 408 328 l 261 328 q 233 151 233 164 q 253 109 233 118 q 331 100 272 100 l 369 100 l 338 -14 l 228 -14 q 121 24 156 -14 q 86 119 86 61 q 119 328 86 133 l 21 328 l 40 425 l 136 425 l 163 574 l 65 574 l 97 685 l 182 685 l 213 849 l 356 863 l 324 685 l 475 685 l 454 574 l 304 574 z "},"ť":{"ha":438,"x_min":50,"x_max":561,"o":"m 213 -14 q 106 24 140 -14 q 71 119 71 61 q 147 574 71 142 l 50 574 l 82 685 l 167 685 l 197 849 l 340 863 l 308 685 l 460 685 l 439 574 l 289 574 q 234 258 250 350 q 218 151 218 165 q 238 109 218 118 q 315 100 257 100 l 354 100 l 322 -14 l 213 -14 m 431 990 l 561 990 l 479 754 l 388 754 l 431 990 z "},"ţ":{"ha":438,"x_min":50,"x_max":460,"o":"m 289 574 q 234 258 250 350 q 218 151 218 165 q 238 109 218 118 q 315 100 257 100 l 354 100 l 322 -14 l 253 -14 l 222 -75 l 232 -75 q 310 -100 282 -75 q 338 -169 338 -125 q 288 -278 338 -236 q 161 -319 238 -319 q 56 -293 100 -319 l 92 -221 q 176 -244 131 -244 q 232 -228 211 -244 q 253 -186 253 -211 q 190 -140 253 -140 q 124 -151 157 -140 l 182 -12 q 98 32 125 -4 q 71 119 71 68 q 147 574 71 142 l 50 574 l 82 685 l 167 685 l 197 849 l 340 863 l 308 685 l 460 685 l 439 574 l 289 574 z "},"ț":{"ha":438,"x_min":50,"x_max":460,"o":"m 213 -14 q 106 24 140 -14 q 71 119 71 61 q 147 574 71 142 l 50 574 l 82 685 l 167 685 l 197 849 l 340 863 l 308 685 l 460 685 l 439 574 l 289 574 q 234 258 250 350 q 218 151 218 165 q 238 109 218 118 q 315 100 257 100 l 354 100 l 322 -14 l 213 -14 m 99 -371 l 163 -251 l 111 -251 l 133 -126 l 271 -126 l 249 -251 l 153 -371 l 99 -371 z "},"ẗ":{"ha":438,"x_min":50,"x_max":510,"o":"m 213 -14 q 106 24 140 -14 q 71 119 71 61 q 147 574 71 142 l 50 574 l 82 685 l 167 685 l 197 849 l 340 863 l 308 685 l 460 685 l 439 574 l 289 574 q 234 258 250 350 q 218 151 218 165 q 238 109 218 118 q 315 100 257 100 l 354 100 l 322 -14 l 213 -14 m 125 1101 l 246 1101 l 222 986 l 101 986 l 125 1101 m 389 1101 l 510 1101 l 486 986 l 365 986 l 389 1101 z "},"ṭ":{"ha":438,"x_min":50,"x_max":460,"o":"m 213 -14 q 106 24 140 -14 q 71 119 71 61 q 147 574 71 142 l 50 574 l 82 685 l 167 685 l 197 849 l 340 863 l 308 685 l 460 685 l 439 574 l 289 574 q 234 258 250 350 q 218 151 218 165 q 238 109 218 118 q 315 100 257 100 l 354 100 l 322 -14 l 213 -14 m 136 -112 l 268 -112 l 243 -240 l 111 -240 l 136 -112 z "},"ṯ":{"ha":438,"x_min":-37,"x_max":460,"o":"m 213 -14 q 106 24 140 -14 q 71 119 71 61 q 147 574 71 142 l 50 574 l 82 685 l 167 685 l 197 849 l 340 863 l 308 685 l 460 685 l 439 574 l 289 574 q 234 258 250 350 q 218 151 218 165 q 238 109 218 118 q 315 100 257 100 l 354 100 l 322 -14 l 213 -14 m -18 -126 l 419 -126 l 399 -229 l -37 -229 l -18 -126 z "},"u":{"ha":708,"x_min":47,"x_max":672,"o":"m 249 -14 q 99 42 150 -14 q 47 199 47 97 q 58 292 47 231 l 125 685 l 267 685 l 203 310 q 194 232 194 261 q 300 108 194 108 q 442 179 385 108 l 531 685 l 672 685 l 551 0 l 421 0 l 426 67 q 249 -14 346 -14 z "},"ú":{"ha":708,"x_min":47,"x_max":672,"o":"m 249 -14 q 99 42 150 -14 q 47 199 47 97 q 58 292 47 231 l 125 685 l 267 685 l 203 310 q 194 232 194 261 q 300 108 194 108 q 442 179 385 108 l 531 685 l 672 685 l 551 0 l 421 0 l 426 67 q 249 -14 346 -14 m 319 897 l 582 1044 l 558 883 l 300 796 l 319 897 z "},"ŭ":{"ha":708,"x_min":47,"x_max":672,"o":"m 249 -14 q 99 42 150 -14 q 47 199 47 97 q 58 292 47 231 l 125 685 l 267 685 l 203 310 q 194 232 194 261 q 300 108 194 108 q 442 179 385 108 l 531 685 l 672 685 l 551 0 l 421 0 l 426 67 q 249 -14 346 -14 m 431 806 q 300 846 346 806 q 254 950 254 886 q 258 988 254 969 l 368 988 q 364 964 364 978 q 385 917 364 933 q 440 901 406 901 q 510 924 481 901 q 546 988 539 946 l 664 988 q 588 856 649 906 q 431 806 528 806 z "},"û":{"ha":708,"x_min":47,"x_max":672,"o":"m 249 -14 q 99 42 150 -14 q 47 199 47 97 q 58 292 47 231 l 125 685 l 267 685 l 203 310 q 194 232 194 261 q 300 108 194 108 q 442 179 385 108 l 531 685 l 672 685 l 551 0 l 421 0 l 426 67 q 249 -14 346 -14 m 286 890 l 465 1025 l 614 872 l 596 779 l 439 892 l 264 793 l 286 890 z "},"ȕ":{"ha":708,"x_min":47,"x_max":672,"o":"m 249 -14 q 99 42 150 -14 q 47 199 47 97 q 58 292 47 231 l 125 685 l 267 685 l 203 310 q 194 232 194 261 q 300 108 194 108 q 442 179 385 108 l 531 685 l 672 685 l 551 0 l 421 0 l 426 67 q 249 -14 346 -14 m 275 807 l 172 1044 l 317 1044 l 374 807 l 275 807 m 472 807 l 378 1044 l 522 1044 l 569 807 l 472 807 z "},"ü":{"ha":708,"x_min":47,"x_max":672,"o":"m 249 -14 q 99 42 150 -14 q 47 199 47 97 q 58 292 47 231 l 125 685 l 267 685 l 203 310 q 194 232 194 261 q 300 108 194 108 q 442 179 385 108 l 531 685 l 672 685 l 551 0 l 421 0 l 426 67 q 249 -14 346 -14 m 256 936 l 376 936 l 353 821 l 232 821 l 256 936 m 519 936 l 640 936 l 617 821 l 496 821 l 519 936 z "},"ụ":{"ha":708,"x_min":47,"x_max":672,"o":"m 249 -14 q 99 42 150 -14 q 47 199 47 97 q 58 292 47 231 l 125 685 l 267 685 l 203 310 q 194 232 194 261 q 300 108 194 108 q 442 179 385 108 l 531 685 l 672 685 l 551 0 l 421 0 l 426 67 q 249 -14 346 -14 m 161 -112 l 293 -112 l 268 -240 l 136 -240 l 161 -112 z "},"ù":{"ha":708,"x_min":47,"x_max":672,"o":"m 249 -14 q 99 42 150 -14 q 47 199 47 97 q 58 292 47 231 l 125 685 l 267 685 l 203 310 q 194 232 194 261 q 300 108 194 108 q 442 179 385 108 l 531 685 l 672 685 l 551 0 l 421 0 l 426 67 q 249 -14 346 -14 m 308 896 l 333 1040 l 560 890 l 543 797 l 308 896 z "},"ủ":{"ha":708,"x_min":47,"x_max":672,"o":"m 249 -14 q 99 42 150 -14 q 47 199 47 97 q 58 292 47 231 l 125 685 l 267 685 l 203 310 q 194 232 194 261 q 300 108 194 108 q 442 179 385 108 l 531 685 l 672 685 l 551 0 l 421 0 l 426 67 q 249 -14 346 -14 m 389 781 q 451 835 432 814 q 469 883 469 857 q 457 911 469 901 q 422 921 444 921 q 332 896 388 921 l 322 969 q 438 996 378 996 q 522 971 490 996 q 554 901 554 946 q 522 811 554 850 q 429 733 490 772 l 389 781 z "},"ư":{"ha":708,"x_min":47,"x_max":847,"o":"m 847 788 q 782 666 833 715 q 657 597 731 617 l 551 0 l 421 0 l 426 67 q 249 -14 346 -14 q 99 42 150 -14 q 47 199 47 97 q 58 292 47 231 l 125 685 l 267 685 l 203 310 q 194 232 194 261 q 300 108 194 108 q 442 179 385 108 l 531 685 l 589 685 q 718 788 699 685 l 847 788 z "},"ứ":{"ha":708,"x_min":47,"x_max":847,"o":"m 847 788 q 782 666 833 715 q 657 597 731 617 l 551 0 l 421 0 l 426 67 q 249 -14 346 -14 q 99 42 150 -14 q 47 199 47 97 q 58 292 47 231 l 125 685 l 267 685 l 203 310 q 194 232 194 261 q 300 108 194 108 q 442 179 385 108 l 531 685 l 589 685 q 718 788 699 685 l 847 788 m 319 897 l 582 1044 l 558 883 l 300 796 l 319 897 z "},"ự":{"ha":708,"x_min":47,"x_max":847,"o":"m 847 788 q 782 666 833 715 q 657 597 731 617 l 551 0 l 421 0 l 426 67 q 249 -14 346 -14 q 99 42 150 -14 q 47 199 47 97 q 58 292 47 231 l 125 685 l 267 685 l 203 310 q 194 232 194 261 q 300 108 194 108 q 442 179 385 108 l 531 685 l 589 685 q 718 788 699 685 l 847 788 m 161 -112 l 293 -112 l 268 -240 l 136 -240 l 161 -112 z "},"ừ":{"ha":708,"x_min":47,"x_max":847,"o":"m 847 788 q 782 666 833 715 q 657 597 731 617 l 551 0 l 421 0 l 426 67 q 249 -14 346 -14 q 99 42 150 -14 q 47 199 47 97 q 58 292 47 231 l 125 685 l 267 685 l 203 310 q 194 232 194 261 q 300 108 194 108 q 442 179 385 108 l 531 685 l 589 685 q 718 788 699 685 l 847 788 m 308 896 l 333 1040 l 560 890 l 543 797 l 308 896 z "},"ử":{"ha":708,"x_min":47,"x_max":847,"o":"m 847 788 q 782 666 833 715 q 657 597 731 617 l 551 0 l 421 0 l 426 67 q 249 -14 346 -14 q 99 42 150 -14 q 47 199 47 97 q 58 292 47 231 l 125 685 l 267 685 l 203 310 q 194 232 194 261 q 300 108 194 108 q 442 179 385 108 l 531 685 l 589 685 q 718 788 699 685 l 847 788 m 389 781 q 451 835 432 814 q 469 883 469 857 q 457 911 469 901 q 422 921 444 921 q 332 896 388 921 l 322 969 q 438 996 378 996 q 522 971 490 996 q 554 901 554 946 q 522 811 554 850 q 429 733 490 772 l 389 781 z "},"ữ":{"ha":708,"x_min":47,"x_max":847,"o":"m 847 788 q 782 666 833 715 q 657 597 731 617 l 551 0 l 421 0 l 426 67 q 249 -14 346 -14 q 99 42 150 -14 q 47 199 47 97 q 58 292 47 231 l 125 685 l 267 685 l 203 310 q 194 232 194 261 q 300 108 194 108 q 442 179 385 108 l 531 685 l 589 685 q 718 788 699 685 l 847 788 m 536 804 q 494 813 515 804 q 439 836 472 821 q 357 865 383 865 q 301 815 313 865 l 199 815 q 251 934 214 893 q 344 975 289 975 q 388 967 367 975 q 439 943 410 958 q 483 922 465 929 q 519 914 501 914 q 572 968 563 914 l 676 968 q 625 844 660 883 q 536 804 590 804 z "},"ű":{"ha":708,"x_min":47,"x_max":769,"o":"m 249 -14 q 99 42 150 -14 q 47 199 47 97 q 58 292 47 231 l 125 685 l 267 685 l 203 310 q 194 232 194 261 q 300 108 194 108 q 442 179 385 108 l 531 685 l 672 685 l 551 0 l 421 0 l 426 67 q 249 -14 346 -14 m 419 1044 l 564 1044 l 369 807 l 272 807 l 419 1044 m 625 1044 l 769 1044 l 568 807 l 469 807 l 625 1044 z "},"ȗ":{"ha":708,"x_min":47,"x_max":672,"o":"m 249 -14 q 99 42 150 -14 q 47 199 47 97 q 58 292 47 231 l 125 685 l 267 685 l 203 310 q 194 232 194 261 q 300 108 194 108 q 442 179 385 108 l 531 685 l 672 685 l 551 0 l 421 0 l 426 67 q 249 -14 346 -14 m 449 988 q 581 946 536 988 q 626 838 626 904 q 624 806 626 828 l 513 806 q 514 824 514 813 q 492 874 514 857 q 435 892 471 892 q 363 869 393 892 q 326 806 333 847 l 211 806 q 288 935 225 882 q 449 988 351 988 z "}}}
